<?xml version="1.0" encoding="utf-8" standalone="no"?>
<!DOCTYPE svg PUBLIC "-//W3C//DTD SVG 1.1//EN"
  "http://www.w3.org/Graphics/SVG/1.1/DTD/svg11.dtd">
<!-- Created with matplotlib (https://matplotlib.org/) -->
<svg height="411.000274pt" version="1.1" viewBox="0 0 443.524437 411.000274" width="443.524437pt" xmlns="http://www.w3.org/2000/svg" xmlns:xlink="http://www.w3.org/1999/xlink">
 <metadata>
  <rdf:RDF xmlns:cc="http://creativecommons.org/ns#" xmlns:dc="http://purl.org/dc/elements/1.1/" xmlns:rdf="http://www.w3.org/1999/02/22-rdf-syntax-ns#">
   <cc:Work>
    <dc:type rdf:resource="http://purl.org/dc/dcmitype/StillImage"/>
    <dc:date>2020-12-11T14:49:19.792308</dc:date>
    <dc:format>image/svg+xml</dc:format>
    <dc:creator>
     <cc:Agent>
      <dc:title>Matplotlib v3.3.3, https://matplotlib.org/</dc:title>
     </cc:Agent>
    </dc:creator>
   </cc:Work>
  </rdf:RDF>
 </metadata>
 <defs>
  <style type="text/css">*{stroke-linecap:butt;stroke-linejoin:round;}</style>
 </defs>
 <g id="figure_1">
  <g id="patch_1">
   <path d="M 0 411.000274 
L 443.524437 411.000274 
L 443.524437 0 
L 0 0 
z
" style="fill:#ffffff;"/>
  </g>
  <g id="axes_1">
   <g id="line2d_1">
    <path clip-path="url(#pe171cc8373)" d="M 161.783904 149.218561 
L 278.158235 133.086379 
" style="fill:none;stroke:#000000;stroke-dasharray:1.85,0.8;stroke-dashoffset:0;stroke-opacity:0.4;stroke-width:0.5;"/>
   </g>
   <g id="line2d_2">
    <path clip-path="url(#pe171cc8373)" d="M 142.388182 178.02603 
L 295.986136 160.47748 
" style="fill:none;stroke:#000000;stroke-dasharray:1.85,0.8;stroke-dashoffset:0;stroke-opacity:0.4;stroke-width:0.5;"/>
   </g>
   <g id="line2d_3">
    <path clip-path="url(#pe171cc8373)" d="M 117.024545 215.697336 
L 322.787045 199.027783 
" style="fill:none;stroke:#000000;stroke-dasharray:1.85,0.8;stroke-dashoffset:0;stroke-opacity:0.4;stroke-width:0.5;"/>
   </g>
   <g id="line2d_4">
    <path clip-path="url(#pe171cc8373)" d="M 82.437769 267.067298 
L 362.33126 257.829267 
" style="fill:none;stroke:#000000;stroke-dasharray:1.85,0.8;stroke-dashoffset:0;stroke-opacity:0.4;stroke-width:0.5;"/>
   </g>
   <g id="line2d_5">
    <path clip-path="url(#pe171cc8373)" d="M 59.956364 300.457774 
L 389.683636 300.457774 
" style="fill:none;stroke:#000000;stroke-linecap:square;stroke-width:1.5;"/>
   </g>
   <g id="line2d_6">
    <path clip-path="url(#pe171cc8373)" d="M 224.82 55.594287 
L 59.956364 300.457774 
" style="fill:none;stroke:#000000;stroke-linecap:square;stroke-width:1.5;"/>
   </g>
   <g id="line2d_7">
    <path clip-path="url(#pe171cc8373)" d="M 224.82 55.594287 
L 389.683636 300.457774 
" style="fill:none;stroke:#000000;stroke-linecap:square;stroke-width:1.5;"/>
   </g>
   <g id="line2d_8">
    <path clip-path="url(#pe171cc8373)" d="M 59.956364 300.457774 
L 389.683636 300.457774 
" style="fill:none;stroke:#808080;stroke-dasharray:0.1,0.165;stroke-dashoffset:0;stroke-opacity:0.6;stroke-width:0.1;"/>
   </g>
   <g id="line2d_9">
    <path clip-path="url(#pe171cc8373)" d="M 92.929091 251.485076 
L 356.710909 251.485076 
" style="fill:none;stroke:#808080;stroke-dasharray:0.1,0.165;stroke-dashoffset:0;stroke-opacity:0.6;stroke-width:0.1;"/>
   </g>
   <g id="line2d_10">
    <path clip-path="url(#pe171cc8373)" d="M 125.901818 202.512379 
L 323.738182 202.512379 
" style="fill:none;stroke:#808080;stroke-dasharray:0.1,0.165;stroke-dashoffset:0;stroke-opacity:0.6;stroke-width:0.1;"/>
   </g>
   <g id="line2d_11">
    <path clip-path="url(#pe171cc8373)" d="M 158.874545 153.539682 
L 290.765455 153.539682 
" style="fill:none;stroke:#808080;stroke-dasharray:0.1,0.165;stroke-dashoffset:0;stroke-opacity:0.6;stroke-width:0.1;"/>
   </g>
   <g id="line2d_12">
    <path clip-path="url(#pe171cc8373)" d="M 191.847273 104.566984 
L 257.792727 104.566984 
" style="fill:none;stroke:#808080;stroke-dasharray:0.1,0.165;stroke-dashoffset:0;stroke-opacity:0.6;stroke-width:0.1;"/>
   </g>
   <g id="line2d_13">
    <path clip-path="url(#pe171cc8373)" d="M 224.82 55.594287 
L 59.956364 300.457774 
" style="fill:none;stroke:#808080;stroke-dasharray:0.1,0.165;stroke-dashoffset:0;stroke-opacity:0.6;stroke-width:0.1;"/>
   </g>
   <g id="line2d_14">
    <path clip-path="url(#pe171cc8373)" d="M 224.82 55.594287 
L 389.683636 300.457774 
" style="fill:none;stroke:#808080;stroke-dasharray:0.1,0.165;stroke-dashoffset:0;stroke-opacity:0.6;stroke-width:0.1;"/>
   </g>
   <g id="line2d_15">
    <path clip-path="url(#pe171cc8373)" d="M 257.792727 104.566984 
L 125.901818 300.457774 
" style="fill:none;stroke:#808080;stroke-dasharray:0.1,0.165;stroke-dashoffset:0;stroke-opacity:0.6;stroke-width:0.1;"/>
   </g>
   <g id="line2d_16">
    <path clip-path="url(#pe171cc8373)" d="M 191.847273 104.566984 
L 323.738182 300.457774 
" style="fill:none;stroke:#808080;stroke-dasharray:0.1,0.165;stroke-dashoffset:0;stroke-opacity:0.6;stroke-width:0.1;"/>
   </g>
   <g id="line2d_17">
    <path clip-path="url(#pe171cc8373)" d="M 290.765455 153.539682 
L 191.847273 300.457774 
" style="fill:none;stroke:#808080;stroke-dasharray:0.1,0.165;stroke-dashoffset:0;stroke-opacity:0.6;stroke-width:0.1;"/>
   </g>
   <g id="line2d_18">
    <path clip-path="url(#pe171cc8373)" d="M 158.874545 153.539682 
L 257.792727 300.457774 
" style="fill:none;stroke:#808080;stroke-dasharray:0.1,0.165;stroke-dashoffset:0;stroke-opacity:0.6;stroke-width:0.1;"/>
   </g>
   <g id="line2d_19">
    <path clip-path="url(#pe171cc8373)" d="M 323.738182 202.512379 
L 257.792727 300.457774 
" style="fill:none;stroke:#808080;stroke-dasharray:0.1,0.165;stroke-dashoffset:0;stroke-opacity:0.6;stroke-width:0.1;"/>
   </g>
   <g id="line2d_20">
    <path clip-path="url(#pe171cc8373)" d="M 125.901818 202.512379 
L 191.847273 300.457774 
" style="fill:none;stroke:#808080;stroke-dasharray:0.1,0.165;stroke-dashoffset:0;stroke-opacity:0.6;stroke-width:0.1;"/>
   </g>
   <g id="line2d_21">
    <path clip-path="url(#pe171cc8373)" d="M 356.710909 251.485076 
L 323.738182 300.457774 
" style="fill:none;stroke:#808080;stroke-dasharray:0.1,0.165;stroke-dashoffset:0;stroke-opacity:0.6;stroke-width:0.1;"/>
   </g>
   <g id="line2d_22">
    <path clip-path="url(#pe171cc8373)" d="M 92.929091 251.485076 
L 125.901818 300.457774 
" style="fill:none;stroke:#808080;stroke-dasharray:0.1,0.165;stroke-dashoffset:0;stroke-opacity:0.6;stroke-width:0.1;"/>
   </g>
   <g id="line2d_23">
    <path clip-path="url(#pe171cc8373)" d="M 389.683636 300.457774 
L 389.683636 300.457774 
" style="fill:none;stroke:#808080;stroke-dasharray:0.1,0.165;stroke-dashoffset:0;stroke-opacity:0.6;stroke-width:0.1;"/>
   </g>
   <g id="line2d_24">
    <path clip-path="url(#pe171cc8373)" d="M 59.956364 300.457774 
L 59.956364 300.457774 
" style="fill:none;stroke:#808080;stroke-dasharray:0.1,0.165;stroke-dashoffset:0;stroke-opacity:0.6;stroke-width:0.1;"/>
   </g>
   <g id="line2d_25">
    <path clip-path="url(#pe171cc8373)" d="M 389.683636 300.457774 
L 401.224091 300.457774 
" style="fill:none;stroke:#000000;stroke-linecap:square;"/>
   </g>
   <g id="line2d_26">
    <path clip-path="url(#pe171cc8373)" d="M 356.710909 251.485076 
L 368.251364 251.485076 
" style="fill:none;stroke:#000000;stroke-linecap:square;"/>
   </g>
   <g id="line2d_27">
    <path clip-path="url(#pe171cc8373)" d="M 323.738182 202.512379 
L 335.278636 202.512379 
" style="fill:none;stroke:#000000;stroke-linecap:square;"/>
   </g>
   <g id="line2d_28">
    <path clip-path="url(#pe171cc8373)" d="M 290.765455 153.539682 
L 302.305909 153.539682 
" style="fill:none;stroke:#000000;stroke-linecap:square;"/>
   </g>
   <g id="line2d_29">
    <path clip-path="url(#pe171cc8373)" d="M 257.792727 104.566984 
L 269.333182 104.566984 
" style="fill:none;stroke:#000000;stroke-linecap:square;"/>
   </g>
   <g id="line2d_30">
    <path clip-path="url(#pe171cc8373)" d="M 224.82 55.594287 
L 236.360455 55.594287 
" style="fill:none;stroke:#000000;stroke-linecap:square;"/>
   </g>
   <g id="line2d_31">
    <path clip-path="url(#pe171cc8373)" d="M 59.956364 300.457774 
L 54.186136 291.887552 
" style="fill:none;stroke:#000000;stroke-linecap:square;"/>
   </g>
   <g id="line2d_32">
    <path clip-path="url(#pe171cc8373)" d="M 92.929091 251.485076 
L 87.158864 242.914854 
" style="fill:none;stroke:#000000;stroke-linecap:square;"/>
   </g>
   <g id="line2d_33">
    <path clip-path="url(#pe171cc8373)" d="M 125.901818 202.512379 
L 120.131591 193.942157 
" style="fill:none;stroke:#000000;stroke-linecap:square;"/>
   </g>
   <g id="line2d_34">
    <path clip-path="url(#pe171cc8373)" d="M 158.874545 153.539682 
L 153.104318 144.96946 
" style="fill:none;stroke:#000000;stroke-linecap:square;"/>
   </g>
   <g id="line2d_35">
    <path clip-path="url(#pe171cc8373)" d="M 191.847273 104.566984 
L 186.077045 95.996762 
" style="fill:none;stroke:#000000;stroke-linecap:square;"/>
   </g>
   <g id="line2d_36">
    <path clip-path="url(#pe171cc8373)" d="M 224.82 55.594287 
L 219.049773 47.024065 
" style="fill:none;stroke:#000000;stroke-linecap:square;"/>
   </g>
   <g id="line2d_37">
    <path clip-path="url(#pe171cc8373)" d="M 59.956364 300.457774 
L 54.186136 309.027996 
" style="fill:none;stroke:#000000;stroke-linecap:square;"/>
   </g>
   <g id="line2d_38">
    <path clip-path="url(#pe171cc8373)" d="M 125.901818 300.457774 
L 120.131591 309.027996 
" style="fill:none;stroke:#000000;stroke-linecap:square;"/>
   </g>
   <g id="line2d_39">
    <path clip-path="url(#pe171cc8373)" d="M 191.847273 300.457774 
L 186.077045 309.027996 
" style="fill:none;stroke:#000000;stroke-linecap:square;"/>
   </g>
   <g id="line2d_40">
    <path clip-path="url(#pe171cc8373)" d="M 257.792727 300.457774 
L 252.0225 309.027996 
" style="fill:none;stroke:#000000;stroke-linecap:square;"/>
   </g>
   <g id="line2d_41">
    <path clip-path="url(#pe171cc8373)" d="M 323.738182 300.457774 
L 317.967955 309.027996 
" style="fill:none;stroke:#000000;stroke-linecap:square;"/>
   </g>
   <g id="line2d_42">
    <path clip-path="url(#pe171cc8373)" d="M 389.683636 300.457774 
L 383.913409 309.027996 
" style="fill:none;stroke:#000000;stroke-linecap:square;"/>
   </g>
   <g id="text_1">
    <!-- 0% -->
    <g transform="translate(410.196323 304.742885)scale(0.0833 -0.0833)">
     <defs>
      <path d="M 31.78125 66.40625 
Q 24.171875 66.40625 20.328125 58.90625 
Q 16.5 51.421875 16.5 36.375 
Q 16.5 21.390625 20.328125 13.890625 
Q 24.171875 6.390625 31.78125 6.390625 
Q 39.453125 6.390625 43.28125 13.890625 
Q 47.125 21.390625 47.125 36.375 
Q 47.125 51.421875 43.28125 58.90625 
Q 39.453125 66.40625 31.78125 66.40625 
z
M 31.78125 74.21875 
Q 44.046875 74.21875 50.515625 64.515625 
Q 56.984375 54.828125 56.984375 36.375 
Q 56.984375 17.96875 50.515625 8.265625 
Q 44.046875 -1.421875 31.78125 -1.421875 
Q 19.53125 -1.421875 13.0625 8.265625 
Q 6.59375 17.96875 6.59375 36.375 
Q 6.59375 54.828125 13.0625 64.515625 
Q 19.53125 74.21875 31.78125 74.21875 
z
" id="DejaVuSans-48"/>
      <path d="M 72.703125 32.078125 
Q 68.453125 32.078125 66.03125 28.46875 
Q 63.625 24.859375 63.625 18.40625 
Q 63.625 12.0625 66.03125 8.421875 
Q 68.453125 4.78125 72.703125 4.78125 
Q 76.859375 4.78125 79.265625 8.421875 
Q 81.6875 12.0625 81.6875 18.40625 
Q 81.6875 24.8125 79.265625 28.4375 
Q 76.859375 32.078125 72.703125 32.078125 
z
M 72.703125 38.28125 
Q 80.421875 38.28125 84.953125 32.90625 
Q 89.5 27.546875 89.5 18.40625 
Q 89.5 9.28125 84.9375 3.921875 
Q 80.375 -1.421875 72.703125 -1.421875 
Q 64.890625 -1.421875 60.34375 3.921875 
Q 55.8125 9.28125 55.8125 18.40625 
Q 55.8125 27.59375 60.375 32.9375 
Q 64.9375 38.28125 72.703125 38.28125 
z
M 22.3125 68.015625 
Q 18.109375 68.015625 15.6875 64.375 
Q 13.28125 60.75 13.28125 54.390625 
Q 13.28125 47.953125 15.671875 44.328125 
Q 18.0625 40.71875 22.3125 40.71875 
Q 26.5625 40.71875 28.96875 44.328125 
Q 31.390625 47.953125 31.390625 54.390625 
Q 31.390625 60.6875 28.953125 64.34375 
Q 26.515625 68.015625 22.3125 68.015625 
z
M 66.40625 74.21875 
L 74.21875 74.21875 
L 28.609375 -1.421875 
L 20.796875 -1.421875 
z
M 22.3125 74.21875 
Q 30.03125 74.21875 34.609375 68.875 
Q 39.203125 63.53125 39.203125 54.390625 
Q 39.203125 45.171875 34.640625 39.84375 
Q 30.078125 34.515625 22.3125 34.515625 
Q 14.546875 34.515625 10.03125 39.859375 
Q 5.515625 45.21875 5.515625 54.390625 
Q 5.515625 63.484375 10.046875 68.84375 
Q 14.59375 74.21875 22.3125 74.21875 
z
" id="DejaVuSans-37"/>
     </defs>
     <use xlink:href="#DejaVuSans-48"/>
     <use x="63.623047" xlink:href="#DejaVuSans-37"/>
    </g>
   </g>
   <g id="text_2">
    <!-- 20% -->
    <g transform="translate(374.573614 255.770187)scale(0.0833 -0.0833)">
     <defs>
      <path d="M 19.1875 8.296875 
L 53.609375 8.296875 
L 53.609375 0 
L 7.328125 0 
L 7.328125 8.296875 
Q 12.9375 14.109375 22.625 23.890625 
Q 32.328125 33.6875 34.8125 36.53125 
Q 39.546875 41.84375 41.421875 45.53125 
Q 43.3125 49.21875 43.3125 52.78125 
Q 43.3125 58.59375 39.234375 62.25 
Q 35.15625 65.921875 28.609375 65.921875 
Q 23.96875 65.921875 18.8125 64.3125 
Q 13.671875 62.703125 7.8125 59.421875 
L 7.8125 69.390625 
Q 13.765625 71.78125 18.9375 73 
Q 24.125 74.21875 28.421875 74.21875 
Q 39.75 74.21875 46.484375 68.546875 
Q 53.21875 62.890625 53.21875 53.421875 
Q 53.21875 48.921875 51.53125 44.890625 
Q 49.859375 40.875 45.40625 35.40625 
Q 44.1875 33.984375 37.640625 27.21875 
Q 31.109375 20.453125 19.1875 8.296875 
z
" id="DejaVuSans-50"/>
     </defs>
     <use xlink:href="#DejaVuSans-50"/>
     <use x="63.623047" xlink:href="#DejaVuSans-48"/>
     <use x="127.246094" xlink:href="#DejaVuSans-37"/>
    </g>
   </g>
   <g id="text_3">
    <!-- 40% -->
    <g transform="translate(341.600887 206.79749)scale(0.0833 -0.0833)">
     <defs>
      <path d="M 37.796875 64.3125 
L 12.890625 25.390625 
L 37.796875 25.390625 
z
M 35.203125 72.90625 
L 47.609375 72.90625 
L 47.609375 25.390625 
L 58.015625 25.390625 
L 58.015625 17.1875 
L 47.609375 17.1875 
L 47.609375 0 
L 37.796875 0 
L 37.796875 17.1875 
L 4.890625 17.1875 
L 4.890625 26.703125 
z
" id="DejaVuSans-52"/>
     </defs>
     <use xlink:href="#DejaVuSans-52"/>
     <use x="63.623047" xlink:href="#DejaVuSans-48"/>
     <use x="127.246094" xlink:href="#DejaVuSans-37"/>
    </g>
   </g>
   <g id="text_4">
    <!-- 60% -->
    <g transform="translate(308.628159 157.824793)scale(0.0833 -0.0833)">
     <defs>
      <path d="M 33.015625 40.375 
Q 26.375 40.375 22.484375 35.828125 
Q 18.609375 31.296875 18.609375 23.390625 
Q 18.609375 15.53125 22.484375 10.953125 
Q 26.375 6.390625 33.015625 6.390625 
Q 39.65625 6.390625 43.53125 10.953125 
Q 47.40625 15.53125 47.40625 23.390625 
Q 47.40625 31.296875 43.53125 35.828125 
Q 39.65625 40.375 33.015625 40.375 
z
M 52.59375 71.296875 
L 52.59375 62.3125 
Q 48.875 64.0625 45.09375 64.984375 
Q 41.3125 65.921875 37.59375 65.921875 
Q 27.828125 65.921875 22.671875 59.328125 
Q 17.53125 52.734375 16.796875 39.40625 
Q 19.671875 43.65625 24.015625 45.921875 
Q 28.375 48.1875 33.59375 48.1875 
Q 44.578125 48.1875 50.953125 41.515625 
Q 57.328125 34.859375 57.328125 23.390625 
Q 57.328125 12.15625 50.6875 5.359375 
Q 44.046875 -1.421875 33.015625 -1.421875 
Q 20.359375 -1.421875 13.671875 8.265625 
Q 6.984375 17.96875 6.984375 36.375 
Q 6.984375 53.65625 15.1875 63.9375 
Q 23.390625 74.21875 37.203125 74.21875 
Q 40.921875 74.21875 44.703125 73.484375 
Q 48.484375 72.75 52.59375 71.296875 
z
" id="DejaVuSans-54"/>
     </defs>
     <use xlink:href="#DejaVuSans-54"/>
     <use x="63.623047" xlink:href="#DejaVuSans-48"/>
     <use x="127.246094" xlink:href="#DejaVuSans-37"/>
    </g>
   </g>
   <g id="text_5">
    <!-- 80% -->
    <g transform="translate(275.655432 108.852095)scale(0.0833 -0.0833)">
     <defs>
      <path d="M 31.78125 34.625 
Q 24.75 34.625 20.71875 30.859375 
Q 16.703125 27.09375 16.703125 20.515625 
Q 16.703125 13.921875 20.71875 10.15625 
Q 24.75 6.390625 31.78125 6.390625 
Q 38.8125 6.390625 42.859375 10.171875 
Q 46.921875 13.96875 46.921875 20.515625 
Q 46.921875 27.09375 42.890625 30.859375 
Q 38.875 34.625 31.78125 34.625 
z
M 21.921875 38.8125 
Q 15.578125 40.375 12.03125 44.71875 
Q 8.5 49.078125 8.5 55.328125 
Q 8.5 64.0625 14.71875 69.140625 
Q 20.953125 74.21875 31.78125 74.21875 
Q 42.671875 74.21875 48.875 69.140625 
Q 55.078125 64.0625 55.078125 55.328125 
Q 55.078125 49.078125 51.53125 44.71875 
Q 48 40.375 41.703125 38.8125 
Q 48.828125 37.15625 52.796875 32.3125 
Q 56.78125 27.484375 56.78125 20.515625 
Q 56.78125 9.90625 50.3125 4.234375 
Q 43.84375 -1.421875 31.78125 -1.421875 
Q 19.734375 -1.421875 13.25 4.234375 
Q 6.78125 9.90625 6.78125 20.515625 
Q 6.78125 27.484375 10.78125 32.3125 
Q 14.796875 37.15625 21.921875 38.8125 
z
M 18.3125 54.390625 
Q 18.3125 48.734375 21.84375 45.5625 
Q 25.390625 42.390625 31.78125 42.390625 
Q 38.140625 42.390625 41.71875 45.5625 
Q 45.3125 48.734375 45.3125 54.390625 
Q 45.3125 60.0625 41.71875 63.234375 
Q 38.140625 66.40625 31.78125 66.40625 
Q 25.390625 66.40625 21.84375 63.234375 
Q 18.3125 60.0625 18.3125 54.390625 
z
" id="DejaVuSans-56"/>
     </defs>
     <use xlink:href="#DejaVuSans-56"/>
     <use x="63.623047" xlink:href="#DejaVuSans-48"/>
     <use x="127.246094" xlink:href="#DejaVuSans-37"/>
    </g>
   </g>
   <g id="text_6">
    <!-- 100% -->
    <g transform="translate(240.032724 59.879398)scale(0.0833 -0.0833)">
     <defs>
      <path d="M 12.40625 8.296875 
L 28.515625 8.296875 
L 28.515625 63.921875 
L 10.984375 60.40625 
L 10.984375 69.390625 
L 28.421875 72.90625 
L 38.28125 72.90625 
L 38.28125 8.296875 
L 54.390625 8.296875 
L 54.390625 0 
L 12.40625 0 
z
" id="DejaVuSans-49"/>
     </defs>
     <use xlink:href="#DejaVuSans-49"/>
     <use x="63.623047" xlink:href="#DejaVuSans-48"/>
     <use x="127.246094" xlink:href="#DejaVuSans-48"/>
     <use x="190.869141" xlink:href="#DejaVuSans-37"/>
    </g>
   </g>
   <g id="text_7">
    <!-- 100% -->
    <g transform="translate(33.623451 287.602441)scale(0.0833 -0.0833)">
     <use xlink:href="#DejaVuSans-49"/>
     <use x="63.623047" xlink:href="#DejaVuSans-48"/>
     <use x="127.246094" xlink:href="#DejaVuSans-48"/>
     <use x="190.869141" xlink:href="#DejaVuSans-37"/>
    </g>
   </g>
   <g id="text_8">
    <!-- 80% -->
    <g transform="translate(69.246159 238.629743)scale(0.0833 -0.0833)">
     <use xlink:href="#DejaVuSans-56"/>
     <use x="63.623047" xlink:href="#DejaVuSans-48"/>
     <use x="127.246094" xlink:href="#DejaVuSans-37"/>
    </g>
   </g>
   <g id="text_9">
    <!-- 60% -->
    <g transform="translate(102.218887 189.657046)scale(0.0833 -0.0833)">
     <use xlink:href="#DejaVuSans-54"/>
     <use x="63.623047" xlink:href="#DejaVuSans-48"/>
     <use x="127.246094" xlink:href="#DejaVuSans-37"/>
    </g>
   </g>
   <g id="text_10">
    <!-- 40% -->
    <g transform="translate(135.191614 140.684349)scale(0.0833 -0.0833)">
     <use xlink:href="#DejaVuSans-52"/>
     <use x="63.623047" xlink:href="#DejaVuSans-48"/>
     <use x="127.246094" xlink:href="#DejaVuSans-37"/>
    </g>
   </g>
   <g id="text_11">
    <!-- 20% -->
    <g transform="translate(168.164341 91.711651)scale(0.0833 -0.0833)">
     <use xlink:href="#DejaVuSans-50"/>
     <use x="63.623047" xlink:href="#DejaVuSans-48"/>
     <use x="127.246094" xlink:href="#DejaVuSans-37"/>
    </g>
   </g>
   <g id="text_12">
    <!-- 0% -->
    <g transform="translate(203.78705 42.738954)scale(0.0833 -0.0833)">
     <use xlink:href="#DejaVuSans-48"/>
     <use x="63.623047" xlink:href="#DejaVuSans-37"/>
    </g>
   </g>
   <g id="text_13">
    <!-- 0% -->
    <g transform="translate(38.923413 330.453551)scale(0.0833 -0.0833)">
     <use xlink:href="#DejaVuSans-48"/>
     <use x="63.623047" xlink:href="#DejaVuSans-37"/>
    </g>
   </g>
   <g id="text_14">
    <!-- 20% -->
    <g transform="translate(102.218887 330.453551)scale(0.0833 -0.0833)">
     <use xlink:href="#DejaVuSans-50"/>
     <use x="63.623047" xlink:href="#DejaVuSans-48"/>
     <use x="127.246094" xlink:href="#DejaVuSans-37"/>
    </g>
   </g>
   <g id="text_15">
    <!-- 40% -->
    <g transform="translate(168.164341 330.453551)scale(0.0833 -0.0833)">
     <use xlink:href="#DejaVuSans-52"/>
     <use x="63.623047" xlink:href="#DejaVuSans-48"/>
     <use x="127.246094" xlink:href="#DejaVuSans-37"/>
    </g>
   </g>
   <g id="text_16">
    <!-- 60% -->
    <g transform="translate(234.109796 330.453551)scale(0.0833 -0.0833)">
     <use xlink:href="#DejaVuSans-54"/>
     <use x="63.623047" xlink:href="#DejaVuSans-48"/>
     <use x="127.246094" xlink:href="#DejaVuSans-37"/>
    </g>
   </g>
   <g id="text_17">
    <!-- 80% -->
    <g transform="translate(300.05525 330.453551)scale(0.0833 -0.0833)">
     <use xlink:href="#DejaVuSans-56"/>
     <use x="63.623047" xlink:href="#DejaVuSans-48"/>
     <use x="127.246094" xlink:href="#DejaVuSans-37"/>
    </g>
   </g>
   <g id="text_18">
    <!-- 100% -->
    <g transform="translate(363.350724 330.453551)scale(0.0833 -0.0833)">
     <use xlink:href="#DejaVuSans-49"/>
     <use x="63.623047" xlink:href="#DejaVuSans-48"/>
     <use x="127.246094" xlink:href="#DejaVuSans-48"/>
     <use x="190.869141" xlink:href="#DejaVuSans-37"/>
    </g>
   </g>
   <g id="text_19">
    <path d="M 6.953906 318.987931 
L 12.094531 318.987931 
L 16.246875 325.484025 
L 20.395313 318.987931 
L 25.547656 318.987931 
L 18.602344 329.534806 
L 18.602344 337.214494 
L 13.903125 337.214494 
L 13.903125 329.534806 
z
" style="fill:#ffffff;stroke:#000000;stroke-width:3;"/>
    <path d="M 6.953906 318.987931 
L 12.094531 318.987931 
L 16.246875 325.484025 
L 20.395313 318.987931 
L 25.547656 318.987931 
L 18.602344 329.534806 
L 18.602344 337.214494 
L 13.903125 337.214494 
L 13.903125 329.534806 
z
" style="fill:#ffffff;"/>
   </g>
   <g id="text_20">
    <path d="M 429.504125 327.913712 
L 435.824438 337.214494 
L 430.929906 337.214494 
L 426.672094 330.987931 
L 422.445531 337.214494 
L 417.527563 337.214494 
L 423.851781 327.913712 
L 417.76975 318.987931 
L 422.679906 318.987931 
L 426.672094 324.859025 
L 430.648656 318.987931 
L 435.58225 318.987931 
z
" style="fill:#ffffff;stroke:#000000;stroke-width:3;"/>
    <path d="M 429.504125 327.913712 
L 435.824438 337.214494 
L 430.929906 337.214494 
L 426.672094 330.987931 
L 422.445531 337.214494 
L 417.527563 337.214494 
L 423.851781 327.913712 
L 417.76975 318.987931 
L 422.679906 318.987931 
L 426.672094 324.859025 
L 430.648656 318.987931 
L 435.58225 318.987931 
z
" style="fill:#ffffff;"/>
   </g>
   <g id="text_21">
    <path d="M 222.466484 7.969531 
L 227.165703 7.969531 
L 227.165703 26.196094 
L 222.466484 26.196094 
z
" style="fill:#ffffff;stroke:#000000;stroke-width:3;"/>
    <path d="M 222.466484 7.969531 
L 227.165703 7.969531 
L 227.165703 26.196094 
L 222.466484 26.196094 
z
" style="fill:#ffffff;"/>
   </g>
   <g id="text_22">
    <!-- $C_B = 1.3$ -->
    <g transform="translate(221.598261 133.652182)rotate(-6.5)scale(0.1 -0.1)">
     <defs>
      <path d="M 69.484375 67.28125 
L 67.484375 56.890625 
Q 62.796875 61.625 57.546875 63.921875 
Q 52.296875 66.21875 46.1875 66.21875 
Q 37.84375 66.21875 31.515625 62.203125 
Q 25.203125 58.203125 20.609375 50 
Q 17.671875 44.734375 16.125 38.84375 
Q 14.59375 32.953125 14.59375 27 
Q 14.59375 17.046875 19.75 11.8125 
Q 24.90625 6.59375 34.71875 6.59375 
Q 41.5 6.59375 47.75 8.765625 
Q 54 10.9375 59.90625 15.28125 
L 57.625 3.609375 
Q 51.8125 1.125 45.875 -0.140625 
Q 39.9375 -1.421875 33.984375 -1.421875 
Q 19.96875 -1.421875 12.078125 6.1875 
Q 4.203125 13.8125 4.203125 27.390625 
Q 4.203125 36.078125 7.203125 44.46875 
Q 10.203125 52.875 15.828125 59.8125 
Q 21.78125 67.1875 29.421875 70.703125 
Q 37.0625 74.21875 47.21875 74.21875 
Q 53.46875 74.21875 59.0625 72.484375 
Q 64.65625 70.75 69.484375 67.28125 
z
" id="DejaVuSans-Oblique-67"/>
      <path d="M 16.890625 72.90625 
L 42.09375 72.90625 
Q 52.34375 72.90625 57.421875 69.09375 
Q 62.5 65.28125 62.5 57.625 
Q 62.5 50.59375 58.125 45.484375 
Q 53.765625 40.375 46.6875 39.3125 
Q 52.734375 37.9375 55.765625 34.078125 
Q 58.796875 30.21875 58.796875 23.78125 
Q 58.796875 12.796875 50.65625 6.390625 
Q 42.53125 0 28.421875 0 
L 2.6875 0 
z
M 19.28125 34.8125 
L 14.109375 8.109375 
L 29.984375 8.109375 
Q 38.921875 8.109375 43.75 12.203125 
Q 48.578125 16.3125 48.578125 23.78125 
Q 48.578125 29.546875 45.375 32.171875 
Q 42.1875 34.8125 35.109375 34.8125 
z
M 25.09375 64.796875 
L 20.796875 42.828125 
L 35.5 42.828125 
Q 43.359375 42.828125 47.78125 46.234375 
Q 52.203125 49.65625 52.203125 55.71875 
Q 52.203125 60.453125 49.21875 62.625 
Q 46.234375 64.796875 39.703125 64.796875 
z
" id="DejaVuSans-Oblique-66"/>
      <path d="M 10.59375 45.40625 
L 73.1875 45.40625 
L 73.1875 37.203125 
L 10.59375 37.203125 
z
M 10.59375 25.484375 
L 73.1875 25.484375 
L 73.1875 17.1875 
L 10.59375 17.1875 
z
" id="DejaVuSans-61"/>
      <path d="M 10.6875 12.40625 
L 21 12.40625 
L 21 0 
L 10.6875 0 
z
" id="DejaVuSans-46"/>
      <path d="M 40.578125 39.3125 
Q 47.65625 37.796875 51.625 33 
Q 55.609375 28.21875 55.609375 21.1875 
Q 55.609375 10.40625 48.1875 4.484375 
Q 40.765625 -1.421875 27.09375 -1.421875 
Q 22.515625 -1.421875 17.65625 -0.515625 
Q 12.796875 0.390625 7.625 2.203125 
L 7.625 11.71875 
Q 11.71875 9.328125 16.59375 8.109375 
Q 21.484375 6.890625 26.8125 6.890625 
Q 36.078125 6.890625 40.9375 10.546875 
Q 45.796875 14.203125 45.796875 21.1875 
Q 45.796875 27.640625 41.28125 31.265625 
Q 36.765625 34.90625 28.71875 34.90625 
L 20.21875 34.90625 
L 20.21875 43.015625 
L 29.109375 43.015625 
Q 36.375 43.015625 40.234375 45.921875 
Q 44.09375 48.828125 44.09375 54.296875 
Q 44.09375 59.90625 40.109375 62.90625 
Q 36.140625 65.921875 28.71875 65.921875 
Q 24.65625 65.921875 20.015625 65.03125 
Q 15.375 64.15625 9.8125 62.3125 
L 9.8125 71.09375 
Q 15.4375 72.65625 20.34375 73.4375 
Q 25.25 74.21875 29.59375 74.21875 
Q 40.828125 74.21875 47.359375 69.109375 
Q 53.90625 64.015625 53.90625 55.328125 
Q 53.90625 49.265625 50.4375 45.09375 
Q 46.96875 40.921875 40.578125 39.3125 
z
" id="DejaVuSans-51"/>
     </defs>
     <use transform="translate(0 0.78125)" xlink:href="#DejaVuSans-Oblique-67"/>
     <use transform="translate(69.824219 -15.625)scale(0.7)" xlink:href="#DejaVuSans-Oblique-66"/>
     <use transform="translate(140.063477 0.78125)" xlink:href="#DejaVuSans-61"/>
     <use transform="translate(243.334961 0.78125)" xlink:href="#DejaVuSans-49"/>
     <use transform="translate(306.958008 0.78125)" xlink:href="#DejaVuSans-46"/>
     <use transform="translate(338.745117 0.78125)" xlink:href="#DejaVuSans-51"/>
    </g>
   </g>
   <g id="text_23">
    <!-- $C_B = 1.5$ -->
    <g transform="translate(241.381897 159.099142)rotate(-6.5)scale(0.1 -0.1)">
     <defs>
      <path d="M 10.796875 72.90625 
L 49.515625 72.90625 
L 49.515625 64.59375 
L 19.828125 64.59375 
L 19.828125 46.734375 
Q 21.96875 47.46875 24.109375 47.828125 
Q 26.265625 48.1875 28.421875 48.1875 
Q 40.625 48.1875 47.75 41.5 
Q 54.890625 34.8125 54.890625 23.390625 
Q 54.890625 11.625 47.5625 5.09375 
Q 40.234375 -1.421875 26.90625 -1.421875 
Q 22.3125 -1.421875 17.546875 -0.640625 
Q 12.796875 0.140625 7.71875 1.703125 
L 7.71875 11.625 
Q 12.109375 9.234375 16.796875 8.0625 
Q 21.484375 6.890625 26.703125 6.890625 
Q 35.15625 6.890625 40.078125 11.328125 
Q 45.015625 15.765625 45.015625 23.390625 
Q 45.015625 31 40.078125 35.4375 
Q 35.15625 39.890625 26.703125 39.890625 
Q 22.75 39.890625 18.8125 39.015625 
Q 14.890625 38.140625 10.796875 36.28125 
z
" id="DejaVuSans-53"/>
     </defs>
     <use transform="translate(0 0.78125)" xlink:href="#DejaVuSans-Oblique-67"/>
     <use transform="translate(69.824219 -15.625)scale(0.7)" xlink:href="#DejaVuSans-Oblique-66"/>
     <use transform="translate(140.063477 0.78125)" xlink:href="#DejaVuSans-61"/>
     <use transform="translate(243.334961 0.78125)" xlink:href="#DejaVuSans-49"/>
     <use transform="translate(306.958008 0.78125)" xlink:href="#DejaVuSans-46"/>
     <use transform="translate(338.745117 0.78125)" xlink:href="#DejaVuSans-53"/>
    </g>
   </g>
   <g id="text_24">
    <!-- $C_B = 1.7$ -->
    <g transform="translate(266.424945 196.983044)rotate(-5.5)scale(0.1 -0.1)">
     <defs>
      <path d="M 8.203125 72.90625 
L 55.078125 72.90625 
L 55.078125 68.703125 
L 28.609375 0 
L 18.3125 0 
L 43.21875 64.59375 
L 8.203125 64.59375 
z
" id="DejaVuSans-55"/>
     </defs>
     <use transform="translate(0 0.78125)" xlink:href="#DejaVuSans-Oblique-67"/>
     <use transform="translate(69.824219 -15.625)scale(0.7)" xlink:href="#DejaVuSans-Oblique-66"/>
     <use transform="translate(140.063477 0.78125)" xlink:href="#DejaVuSans-61"/>
     <use transform="translate(243.334961 0.78125)" xlink:href="#DejaVuSans-49"/>
     <use transform="translate(306.958008 0.78125)" xlink:href="#DejaVuSans-46"/>
     <use transform="translate(330.995117 0.78125)" xlink:href="#DejaVuSans-55"/>
    </g>
   </g>
   <g id="text_25">
    <!-- $C_B = 1.9$ -->
    <g transform="translate(290.677705 252.397705)rotate(-4.5)scale(0.1 -0.1)">
     <defs>
      <path d="M 10.984375 1.515625 
L 10.984375 10.5 
Q 14.703125 8.734375 18.5 7.8125 
Q 22.3125 6.890625 25.984375 6.890625 
Q 35.75 6.890625 40.890625 13.453125 
Q 46.046875 20.015625 46.78125 33.40625 
Q 43.953125 29.203125 39.59375 26.953125 
Q 35.25 24.703125 29.984375 24.703125 
Q 19.046875 24.703125 12.671875 31.3125 
Q 6.296875 37.9375 6.296875 49.421875 
Q 6.296875 60.640625 12.9375 67.421875 
Q 19.578125 74.21875 30.609375 74.21875 
Q 43.265625 74.21875 49.921875 64.515625 
Q 56.59375 54.828125 56.59375 36.375 
Q 56.59375 19.140625 48.40625 8.859375 
Q 40.234375 -1.421875 26.421875 -1.421875 
Q 22.703125 -1.421875 18.890625 -0.6875 
Q 15.09375 0.046875 10.984375 1.515625 
z
M 30.609375 32.421875 
Q 37.25 32.421875 41.125 36.953125 
Q 45.015625 41.5 45.015625 49.421875 
Q 45.015625 57.28125 41.125 61.84375 
Q 37.25 66.40625 30.609375 66.40625 
Q 23.96875 66.40625 20.09375 61.84375 
Q 16.21875 57.28125 16.21875 49.421875 
Q 16.21875 41.5 20.09375 36.953125 
Q 23.96875 32.421875 30.609375 32.421875 
z
" id="DejaVuSans-57"/>
     </defs>
     <use transform="translate(0 0.78125)" xlink:href="#DejaVuSans-Oblique-67"/>
     <use transform="translate(69.824219 -15.625)scale(0.7)" xlink:href="#DejaVuSans-Oblique-66"/>
     <use transform="translate(140.063477 0.78125)" xlink:href="#DejaVuSans-61"/>
     <use transform="translate(243.334961 0.78125)" xlink:href="#DejaVuSans-49"/>
     <use transform="translate(306.958008 0.78125)" xlink:href="#DejaVuSans-46"/>
     <use transform="translate(338.745117 0.78125)" xlink:href="#DejaVuSans-57"/>
    </g>
   </g>
   <g id="text_26">
    <!-- $C_B = 1.3$ -->
    <g transform="translate(221.598261 133.652182)rotate(-6.5)scale(0.1 -0.1)">
     <use transform="translate(0 0.78125)" xlink:href="#DejaVuSans-Oblique-67"/>
     <use transform="translate(69.824219 -15.625)scale(0.7)" xlink:href="#DejaVuSans-Oblique-66"/>
     <use transform="translate(140.063477 0.78125)" xlink:href="#DejaVuSans-61"/>
     <use transform="translate(243.334961 0.78125)" xlink:href="#DejaVuSans-49"/>
     <use transform="translate(306.958008 0.78125)" xlink:href="#DejaVuSans-46"/>
     <use transform="translate(338.745117 0.78125)" xlink:href="#DejaVuSans-51"/>
    </g>
   </g>
   <g id="text_27">
    <!-- $C_B = 1.5$ -->
    <g transform="translate(241.381897 159.099142)rotate(-6.5)scale(0.1 -0.1)">
     <use transform="translate(0 0.78125)" xlink:href="#DejaVuSans-Oblique-67"/>
     <use transform="translate(69.824219 -15.625)scale(0.7)" xlink:href="#DejaVuSans-Oblique-66"/>
     <use transform="translate(140.063477 0.78125)" xlink:href="#DejaVuSans-61"/>
     <use transform="translate(243.334961 0.78125)" xlink:href="#DejaVuSans-49"/>
     <use transform="translate(306.958008 0.78125)" xlink:href="#DejaVuSans-46"/>
     <use transform="translate(338.745117 0.78125)" xlink:href="#DejaVuSans-53"/>
    </g>
   </g>
   <g id="text_28">
    <!-- $C_B = 1.7$ -->
    <g transform="translate(266.424945 196.983044)rotate(-5.5)scale(0.1 -0.1)">
     <use transform="translate(0 0.78125)" xlink:href="#DejaVuSans-Oblique-67"/>
     <use transform="translate(69.824219 -15.625)scale(0.7)" xlink:href="#DejaVuSans-Oblique-66"/>
     <use transform="translate(140.063477 0.78125)" xlink:href="#DejaVuSans-61"/>
     <use transform="translate(243.334961 0.78125)" xlink:href="#DejaVuSans-49"/>
     <use transform="translate(306.958008 0.78125)" xlink:href="#DejaVuSans-46"/>
     <use transform="translate(330.995117 0.78125)" xlink:href="#DejaVuSans-55"/>
    </g>
   </g>
   <g id="text_29">
    <!-- $C_B = 1.9$ -->
    <g transform="translate(290.677705 252.397705)rotate(-4.5)scale(0.1 -0.1)">
     <use transform="translate(0 0.78125)" xlink:href="#DejaVuSans-Oblique-67"/>
     <use transform="translate(69.824219 -15.625)scale(0.7)" xlink:href="#DejaVuSans-Oblique-66"/>
     <use transform="translate(140.063477 0.78125)" xlink:href="#DejaVuSans-61"/>
     <use transform="translate(243.334961 0.78125)" xlink:href="#DejaVuSans-49"/>
     <use transform="translate(306.958008 0.78125)" xlink:href="#DejaVuSans-46"/>
     <use transform="translate(338.745117 0.78125)" xlink:href="#DejaVuSans-57"/>
    </g>
   </g>
   <g id="text_30">
    <!-- $C_B = 1.3$ -->
    <g transform="translate(221.598261 133.652182)rotate(-6.5)scale(0.1 -0.1)">
     <use transform="translate(0 0.78125)" xlink:href="#DejaVuSans-Oblique-67"/>
     <use transform="translate(69.824219 -15.625)scale(0.7)" xlink:href="#DejaVuSans-Oblique-66"/>
     <use transform="translate(140.063477 0.78125)" xlink:href="#DejaVuSans-61"/>
     <use transform="translate(243.334961 0.78125)" xlink:href="#DejaVuSans-49"/>
     <use transform="translate(306.958008 0.78125)" xlink:href="#DejaVuSans-46"/>
     <use transform="translate(338.745117 0.78125)" xlink:href="#DejaVuSans-51"/>
    </g>
   </g>
   <g id="text_31">
    <!-- $C_B = 1.5$ -->
    <g transform="translate(241.381897 159.099142)rotate(-6.5)scale(0.1 -0.1)">
     <use transform="translate(0 0.78125)" xlink:href="#DejaVuSans-Oblique-67"/>
     <use transform="translate(69.824219 -15.625)scale(0.7)" xlink:href="#DejaVuSans-Oblique-66"/>
     <use transform="translate(140.063477 0.78125)" xlink:href="#DejaVuSans-61"/>
     <use transform="translate(243.334961 0.78125)" xlink:href="#DejaVuSans-49"/>
     <use transform="translate(306.958008 0.78125)" xlink:href="#DejaVuSans-46"/>
     <use transform="translate(338.745117 0.78125)" xlink:href="#DejaVuSans-53"/>
    </g>
   </g>
   <g id="text_32">
    <!-- $C_B = 1.7$ -->
    <g transform="translate(266.424945 196.983044)rotate(-5.5)scale(0.1 -0.1)">
     <use transform="translate(0 0.78125)" xlink:href="#DejaVuSans-Oblique-67"/>
     <use transform="translate(69.824219 -15.625)scale(0.7)" xlink:href="#DejaVuSans-Oblique-66"/>
     <use transform="translate(140.063477 0.78125)" xlink:href="#DejaVuSans-61"/>
     <use transform="translate(243.334961 0.78125)" xlink:href="#DejaVuSans-49"/>
     <use transform="translate(306.958008 0.78125)" xlink:href="#DejaVuSans-46"/>
     <use transform="translate(330.995117 0.78125)" xlink:href="#DejaVuSans-55"/>
    </g>
   </g>
   <g id="text_33">
    <!-- $C_B = 1.9$ -->
    <g transform="translate(290.677705 252.397705)rotate(-4.5)scale(0.1 -0.1)">
     <use transform="translate(0 0.78125)" xlink:href="#DejaVuSans-Oblique-67"/>
     <use transform="translate(69.824219 -15.625)scale(0.7)" xlink:href="#DejaVuSans-Oblique-66"/>
     <use transform="translate(140.063477 0.78125)" xlink:href="#DejaVuSans-61"/>
     <use transform="translate(243.334961 0.78125)" xlink:href="#DejaVuSans-49"/>
     <use transform="translate(306.958008 0.78125)" xlink:href="#DejaVuSans-46"/>
     <use transform="translate(338.745117 0.78125)" xlink:href="#DejaVuSans-57"/>
    </g>
   </g>
   <g id="text_34">
    <!-- $C_B = 1.3$ -->
    <g transform="translate(221.598261 133.652182)rotate(-6.5)scale(0.1 -0.1)">
     <use transform="translate(0 0.78125)" xlink:href="#DejaVuSans-Oblique-67"/>
     <use transform="translate(69.824219 -15.625)scale(0.7)" xlink:href="#DejaVuSans-Oblique-66"/>
     <use transform="translate(140.063477 0.78125)" xlink:href="#DejaVuSans-61"/>
     <use transform="translate(243.334961 0.78125)" xlink:href="#DejaVuSans-49"/>
     <use transform="translate(306.958008 0.78125)" xlink:href="#DejaVuSans-46"/>
     <use transform="translate(338.745117 0.78125)" xlink:href="#DejaVuSans-51"/>
    </g>
   </g>
   <g id="text_35">
    <!-- $C_B = 1.5$ -->
    <g transform="translate(241.381897 159.099142)rotate(-6.5)scale(0.1 -0.1)">
     <use transform="translate(0 0.78125)" xlink:href="#DejaVuSans-Oblique-67"/>
     <use transform="translate(69.824219 -15.625)scale(0.7)" xlink:href="#DejaVuSans-Oblique-66"/>
     <use transform="translate(140.063477 0.78125)" xlink:href="#DejaVuSans-61"/>
     <use transform="translate(243.334961 0.78125)" xlink:href="#DejaVuSans-49"/>
     <use transform="translate(306.958008 0.78125)" xlink:href="#DejaVuSans-46"/>
     <use transform="translate(338.745117 0.78125)" xlink:href="#DejaVuSans-53"/>
    </g>
   </g>
   <g id="text_36">
    <!-- $C_B = 1.7$ -->
    <g transform="translate(266.424945 196.983044)rotate(-5.5)scale(0.1 -0.1)">
     <use transform="translate(0 0.78125)" xlink:href="#DejaVuSans-Oblique-67"/>
     <use transform="translate(69.824219 -15.625)scale(0.7)" xlink:href="#DejaVuSans-Oblique-66"/>
     <use transform="translate(140.063477 0.78125)" xlink:href="#DejaVuSans-61"/>
     <use transform="translate(243.334961 0.78125)" xlink:href="#DejaVuSans-49"/>
     <use transform="translate(306.958008 0.78125)" xlink:href="#DejaVuSans-46"/>
     <use transform="translate(330.995117 0.78125)" xlink:href="#DejaVuSans-55"/>
    </g>
   </g>
   <g id="text_37">
    <!-- $C_B = 1.9$ -->
    <g transform="translate(290.677705 252.397705)rotate(-4.5)scale(0.1 -0.1)">
     <use transform="translate(0 0.78125)" xlink:href="#DejaVuSans-Oblique-67"/>
     <use transform="translate(69.824219 -15.625)scale(0.7)" xlink:href="#DejaVuSans-Oblique-66"/>
     <use transform="translate(140.063477 0.78125)" xlink:href="#DejaVuSans-61"/>
     <use transform="translate(243.334961 0.78125)" xlink:href="#DejaVuSans-49"/>
     <use transform="translate(306.958008 0.78125)" xlink:href="#DejaVuSans-46"/>
     <use transform="translate(338.745117 0.78125)" xlink:href="#DejaVuSans-57"/>
    </g>
   </g>
   <g id="text_38">
    <g id="patch_2">
     <path d="M 328.097812 57.226911 
L 375.432187 57.226911 
L 375.432187 27.350974 
L 328.097812 27.350974 
z
" style="fill:#faf0e6;stroke:#000000;stroke-linejoin:miter;"/>
    </g>
    <!-- n: 1576 -->
    <g transform="translate(332.597812 39.449411)scale(0.1 -0.1)">
     <defs>
      <path d="M 54.890625 33.015625 
L 54.890625 0 
L 45.90625 0 
L 45.90625 32.71875 
Q 45.90625 40.484375 42.875 44.328125 
Q 39.84375 48.1875 33.796875 48.1875 
Q 26.515625 48.1875 22.3125 43.546875 
Q 18.109375 38.921875 18.109375 30.90625 
L 18.109375 0 
L 9.078125 0 
L 9.078125 54.6875 
L 18.109375 54.6875 
L 18.109375 46.1875 
Q 21.34375 51.125 25.703125 53.5625 
Q 30.078125 56 35.796875 56 
Q 45.21875 56 50.046875 50.171875 
Q 54.890625 44.34375 54.890625 33.015625 
z
" id="DejaVuSans-110"/>
      <path d="M 11.71875 12.40625 
L 22.015625 12.40625 
L 22.015625 0 
L 11.71875 0 
z
M 11.71875 51.703125 
L 22.015625 51.703125 
L 22.015625 39.3125 
L 11.71875 39.3125 
z
" id="DejaVuSans-58"/>
      <path id="DejaVuSans-32"/>
     </defs>
     <use xlink:href="#DejaVuSans-110"/>
     <use x="63.378906" xlink:href="#DejaVuSans-58"/>
     <use x="97.070312" xlink:href="#DejaVuSans-32"/>
     <use x="128.857422" xlink:href="#DejaVuSans-49"/>
     <use x="192.480469" xlink:href="#DejaVuSans-53"/>
     <use x="256.103516" xlink:href="#DejaVuSans-55"/>
     <use x="319.726562" xlink:href="#DejaVuSans-54"/>
    </g>
    <!--  -->
    <g transform="translate(351.765 50.647224)scale(0.1 -0.1)"/>
   </g>
   <g id="PathCollection_1">
    <defs>
     <path d="M 0 2.5 
C 0.663008 2.5 1.29895 2.236584 1.767767 1.767767 
C 2.236584 1.29895 2.5 0.663008 2.5 0 
C 2.5 -0.663008 2.236584 -1.29895 1.767767 -1.767767 
C 1.29895 -2.236584 0.663008 -2.5 0 -2.5 
C -0.663008 -2.5 -1.29895 -2.236584 -1.767767 -1.767767 
C -2.236584 -1.29895 -2.5 -0.663008 -2.5 0 
C -2.5 0.663008 -2.236584 1.29895 -1.767767 1.767767 
C -1.29895 2.236584 -0.663008 2.5 0 2.5 
z
" id="m4e22bb45e1" style="stroke:#000000;"/>
    </defs>
    <g clip-path="url(#pe171cc8373)">
     <use style="stroke:#000000;" x="166.657448" xlink:href="#m4e22bb45e1" y="226.501543"/>
    </g>
   </g>
   <g id="legend_1">
    <g id="patch_3">
     <path d="M 182.694125 405.800274 
L 270.945875 405.800274 
Q 273.825875 405.800274 273.825875 402.920274 
L 273.825875 383.223774 
Q 273.825875 380.343774 270.945875 380.343774 
L 182.694125 380.343774 
Q 179.814125 380.343774 179.814125 383.223774 
L 179.814125 402.920274 
Q 179.814125 405.800274 182.694125 405.800274 
z
" style="fill:#4c4c4c;opacity:0.5;stroke:#4c4c4c;stroke-linejoin:miter;"/>
    </g>
    <g id="patch_4">
     <path d="M 180.694125 403.800274 
L 268.945875 403.800274 
Q 271.825875 403.800274 271.825875 400.920274 
L 271.825875 381.223774 
Q 271.825875 378.343774 268.945875 378.343774 
L 180.694125 378.343774 
Q 177.814125 378.343774 177.814125 381.223774 
L 177.814125 400.920274 
Q 177.814125 403.800274 180.694125 403.800274 
z
" style="fill:#ffffff;stroke:#000000;stroke-linejoin:miter;"/>
    </g>
    <g id="PathCollection_2">
     <g>
      <use style="stroke:#000000;" x="197.974125" xlink:href="#m4e22bb45e1" y="391.265524"/>
     </g>
    </g>
    <g id="text_39">
     <!-- KB11 -->
     <g transform="translate(223.894125 395.045524)scale(0.144 -0.144)">
      <defs>
       <path d="M 9.1875 72.90625 
L 27.984375 72.90625 
L 27.984375 46.296875 
L 55.078125 72.90625 
L 76.90625 72.90625 
L 41.796875 38.375 
L 80.515625 0 
L 56.984375 0 
L 27.984375 28.71875 
L 27.984375 0 
L 9.1875 0 
z
" id="DejaVuSans-Bold-75"/>
       <path d="M 38.375 44.671875 
Q 42.828125 44.671875 45.109375 46.625 
Q 47.40625 48.578125 47.40625 52.390625 
Q 47.40625 56.15625 45.109375 58.125 
Q 42.828125 60.109375 38.375 60.109375 
L 27.984375 60.109375 
L 27.984375 44.671875 
z
M 39.015625 12.796875 
Q 44.671875 12.796875 47.53125 15.1875 
Q 50.390625 17.578125 50.390625 22.40625 
Q 50.390625 27.15625 47.5625 29.515625 
Q 44.734375 31.890625 39.015625 31.890625 
L 27.984375 31.890625 
L 27.984375 12.796875 
z
M 56.5 39.015625 
Q 62.546875 37.25 65.859375 32.515625 
Q 69.1875 27.78125 69.1875 20.90625 
Q 69.1875 10.359375 62.0625 5.171875 
Q 54.9375 0 40.375 0 
L 9.1875 0 
L 9.1875 72.90625 
L 37.40625 72.90625 
Q 52.59375 72.90625 59.40625 68.3125 
Q 66.21875 63.71875 66.21875 53.609375 
Q 66.21875 48.296875 63.71875 44.5625 
Q 61.234375 40.828125 56.5 39.015625 
z
" id="DejaVuSans-Bold-66"/>
       <path d="M 11.71875 12.984375 
L 28.328125 12.984375 
L 28.328125 60.109375 
L 11.28125 56.59375 
L 11.28125 69.390625 
L 28.21875 72.90625 
L 46.09375 72.90625 
L 46.09375 12.984375 
L 62.703125 12.984375 
L 62.703125 0 
L 11.71875 0 
z
" id="DejaVuSans-Bold-49"/>
      </defs>
      <use xlink:href="#DejaVuSans-Bold-75"/>
      <use x="77.490234" xlink:href="#DejaVuSans-Bold-66"/>
      <use x="153.710938" xlink:href="#DejaVuSans-Bold-49"/>
      <use x="223.291016" xlink:href="#DejaVuSans-Bold-49"/>
     </g>
    </g>
   </g>
  </g>
 </g>
 <defs>
  <clipPath id="pe171cc8373">
   <rect height="282.744" width="362.7" x="43.47" y="45.988174"/>
  </clipPath>
 </defs>
</svg>
