<?xml version="1.0" encoding="utf-8" standalone="no"?>
<!DOCTYPE svg PUBLIC "-//W3C//DTD SVG 1.1//EN"
  "http://www.w3.org/Graphics/SVG/1.1/DTD/svg11.dtd">
<!-- Created with matplotlib (https://matplotlib.org/) -->
<svg height="461.648975pt" version="1.1" viewBox="0 0 732.560487 461.648975" width="732.560487pt" xmlns="http://www.w3.org/2000/svg" xmlns:xlink="http://www.w3.org/1999/xlink">
 <metadata>
  <rdf:RDF xmlns:cc="http://creativecommons.org/ns#" xmlns:dc="http://purl.org/dc/elements/1.1/" xmlns:rdf="http://www.w3.org/1999/02/22-rdf-syntax-ns#">
   <cc:Work>
    <dc:type rdf:resource="http://purl.org/dc/dcmitype/StillImage"/>
    <dc:date>2020-12-11T14:49:16.533245</dc:date>
    <dc:format>image/svg+xml</dc:format>
    <dc:creator>
     <cc:Agent>
      <dc:title>Matplotlib v3.3.3, https://matplotlib.org/</dc:title>
     </cc:Agent>
    </dc:creator>
   </cc:Work>
  </rdf:RDF>
 </metadata>
 <defs>
  <style type="text/css">*{stroke-linecap:butt;stroke-linejoin:round;}</style>
 </defs>
 <g id="figure_1">
  <g id="patch_1">
   <path d="M -0 461.648975 
L 732.560487 461.648975 
L 732.560487 0 
L -0 0 
z
" style="fill:#ffffff;"/>
  </g>
  <g id="axes_1">
   <g id="patch_2">
    <path d="M 77.2688 400.750875 
L 467.8688 400.750875 
L 467.8688 12.670875 
L 77.2688 12.670875 
z
" style="fill:#ffffff;"/>
   </g>
   <g id="PathCollection_1">
    <defs>
     <path d="M 0 3.535534 
C 0.937635 3.535534 1.836992 3.163008 2.5 2.5 
C 3.163008 1.836992 3.535534 0.937635 3.535534 0 
C 3.535534 -0.937635 3.163008 -1.836992 2.5 -2.5 
C 1.836992 -3.163008 0.937635 -3.535534 0 -3.535534 
C -0.937635 -3.535534 -1.836992 -3.163008 -2.5 -2.5 
C -3.163008 -1.836992 -3.535534 -0.937635 -3.535534 0 
C -3.535534 0.937635 -3.163008 1.836992 -2.5 2.5 
C -1.836992 3.163008 -0.937635 3.535534 0 3.535534 
z
" id="mf4ea576e20" style="stroke:#1f77b4;"/>
    </defs>
    <g clip-path="url(#pc5abfabfaf)">
     <use style="fill:#1f77b4;stroke:#1f77b4;" x="214.326806" xlink:href="#mf4ea576e20" y="110.577225"/>
     <use style="fill:#1f77b4;stroke:#1f77b4;" x="214.390487" xlink:href="#mf4ea576e20" y="111.041932"/>
     <use style="fill:#1f77b4;stroke:#1f77b4;" x="214.577611" xlink:href="#mf4ea576e20" y="111.511773"/>
     <use style="fill:#1f77b4;stroke:#1f77b4;" x="215.48521" xlink:href="#mf4ea576e20" y="111.986863"/>
     <use style="fill:#1f77b4;stroke:#1f77b4;" x="216.053312" xlink:href="#mf4ea576e20" y="112.467323"/>
     <use style="fill:#1f77b4;stroke:#1f77b4;" x="216.235734" xlink:href="#mf4ea576e20" y="112.953273"/>
     <use style="fill:#1f77b4;stroke:#1f77b4;" x="216.323553" xlink:href="#mf4ea576e20" y="113.444841"/>
     <use style="fill:#1f77b4;stroke:#1f77b4;" x="216.453011" xlink:href="#mf4ea576e20" y="113.942159"/>
     <use style="fill:#1f77b4;stroke:#1f77b4;" x="217.674575" xlink:href="#mf4ea576e20" y="114.445363"/>
     <use style="fill:#1f77b4;stroke:#1f77b4;" x="218.453396" xlink:href="#mf4ea576e20" y="114.954592"/>
     <use style="fill:#1f77b4;stroke:#1f77b4;" x="218.592482" xlink:href="#mf4ea576e20" y="115.469995"/>
     <use style="fill:#1f77b4;stroke:#1f77b4;" x="219.231321" xlink:href="#mf4ea576e20" y="115.991722"/>
     <use style="fill:#1f77b4;stroke:#1f77b4;" x="219.338056" xlink:href="#mf4ea576e20" y="116.519929"/>
     <use style="fill:#1f77b4;stroke:#1f77b4;" x="219.83766" xlink:href="#mf4ea576e20" y="117.054782"/>
     <use style="fill:#1f77b4;stroke:#1f77b4;" x="220.104306" xlink:href="#mf4ea576e20" y="117.596447"/>
     <use style="fill:#1f77b4;stroke:#1f77b4;" x="220.852832" xlink:href="#mf4ea576e20" y="118.145103"/>
     <use style="fill:#1f77b4;stroke:#1f77b4;" x="221.249047" xlink:href="#mf4ea576e20" y="118.70093"/>
     <use style="fill:#1f77b4;stroke:#1f77b4;" x="221.490474" xlink:href="#mf4ea576e20" y="119.264119"/>
     <use style="fill:#1f77b4;stroke:#1f77b4;" x="221.559938" xlink:href="#mf4ea576e20" y="119.834869"/>
     <use style="fill:#1f77b4;stroke:#1f77b4;" x="221.756884" xlink:href="#mf4ea576e20" y="120.413384"/>
     <use style="fill:#1f77b4;stroke:#1f77b4;" x="221.838768" xlink:href="#mf4ea576e20" y="120.999878"/>
     <use style="fill:#1f77b4;stroke:#1f77b4;" x="221.931291" xlink:href="#mf4ea576e20" y="121.594576"/>
     <use style="fill:#1f77b4;stroke:#1f77b4;" x="222.065514" xlink:href="#mf4ea576e20" y="122.197709"/>
     <use style="fill:#1f77b4;stroke:#1f77b4;" x="222.076579" xlink:href="#mf4ea576e20" y="122.809521"/>
     <use style="fill:#1f77b4;stroke:#1f77b4;" x="222.438018" xlink:href="#mf4ea576e20" y="123.430265"/>
     <use style="fill:#1f77b4;stroke:#1f77b4;" x="222.669643" xlink:href="#mf4ea576e20" y="124.060205"/>
     <use style="fill:#1f77b4;stroke:#1f77b4;" x="222.793282" xlink:href="#mf4ea576e20" y="124.699618"/>
     <use style="fill:#1f77b4;stroke:#1f77b4;" x="223.521895" xlink:href="#mf4ea576e20" y="125.348794"/>
     <use style="fill:#1f77b4;stroke:#1f77b4;" x="223.656471" xlink:href="#mf4ea576e20" y="126.008035"/>
     <use style="fill:#1f77b4;stroke:#1f77b4;" x="224.390236" xlink:href="#mf4ea576e20" y="126.677658"/>
     <use style="fill:#1f77b4;stroke:#1f77b4;" x="224.446464" xlink:href="#mf4ea576e20" y="127.357996"/>
     <use style="fill:#1f77b4;stroke:#1f77b4;" x="224.729026" xlink:href="#mf4ea576e20" y="128.049396"/>
     <use style="fill:#1f77b4;stroke:#1f77b4;" x="224.921157" xlink:href="#mf4ea576e20" y="128.752225"/>
     <use style="fill:#1f77b4;stroke:#1f77b4;" x="225.210633" xlink:href="#mf4ea576e20" y="129.466867"/>
     <use style="fill:#1f77b4;stroke:#1f77b4;" x="225.456246" xlink:href="#mf4ea576e20" y="130.193726"/>
     <use style="fill:#1f77b4;stroke:#1f77b4;" x="226.235747" xlink:href="#mf4ea576e20" y="130.933226"/>
     <use style="fill:#1f77b4;stroke:#1f77b4;" x="226.270839" xlink:href="#mf4ea576e20" y="131.685815"/>
     <use style="fill:#1f77b4;stroke:#1f77b4;" x="226.287446" xlink:href="#mf4ea576e20" y="132.451965"/>
     <use style="fill:#1f77b4;stroke:#1f77b4;" x="226.374738" xlink:href="#mf4ea576e20" y="133.232174"/>
     <use style="fill:#1f77b4;stroke:#1f77b4;" x="226.700182" xlink:href="#mf4ea576e20" y="134.026967"/>
     <use style="fill:#1f77b4;stroke:#1f77b4;" x="227.16798" xlink:href="#mf4ea576e20" y="134.8369"/>
     <use style="fill:#1f77b4;stroke:#1f77b4;" x="228.199489" xlink:href="#mf4ea576e20" y="135.662561"/>
     <use style="fill:#1f77b4;stroke:#1f77b4;" x="228.255927" xlink:href="#mf4ea576e20" y="136.504572"/>
     <use style="fill:#1f77b4;stroke:#1f77b4;" x="229.409889" xlink:href="#mf4ea576e20" y="137.363595"/>
     <use style="fill:#1f77b4;stroke:#1f77b4;" x="229.507947" xlink:href="#mf4ea576e20" y="138.240331"/>
     <use style="fill:#1f77b4;stroke:#1f77b4;" x="230.012418" xlink:href="#mf4ea576e20" y="139.135526"/>
     <use style="fill:#1f77b4;stroke:#1f77b4;" x="230.258986" xlink:href="#mf4ea576e20" y="140.049974"/>
     <use style="fill:#1f77b4;stroke:#1f77b4;" x="230.693971" xlink:href="#mf4ea576e20" y="140.984521"/>
     <use style="fill:#1f77b4;stroke:#1f77b4;" x="231.372288" xlink:href="#mf4ea576e20" y="141.940071"/>
     <use style="fill:#1f77b4;stroke:#1f77b4;" x="232.68632" xlink:href="#mf4ea576e20" y="142.91759"/>
     <use style="fill:#1f77b4;stroke:#1f77b4;" x="232.69041" xlink:href="#mf4ea576e20" y="143.918111"/>
     <use style="fill:#1f77b4;stroke:#1f77b4;" x="232.765798" xlink:href="#mf4ea576e20" y="144.942743"/>
     <use style="fill:#1f77b4;stroke:#1f77b4;" x="233.509328" xlink:href="#mf4ea576e20" y="145.992678"/>
     <use style="fill:#1f77b4;stroke:#1f77b4;" x="233.777952" xlink:href="#mf4ea576e20" y="147.069196"/>
     <use style="fill:#1f77b4;stroke:#1f77b4;" x="234.208628" xlink:href="#mf4ea576e20" y="148.173678"/>
     <use style="fill:#1f77b4;stroke:#1f77b4;" x="236.672161" xlink:href="#mf4ea576e20" y="149.307617"/>
     <use style="fill:#1f77b4;stroke:#1f77b4;" x="237.881679" xlink:href="#mf4ea576e20" y="150.472627"/>
     <use style="fill:#1f77b4;stroke:#1f77b4;" x="238.650207" xlink:href="#mf4ea576e20" y="151.670458"/>
     <use style="fill:#1f77b4;stroke:#1f77b4;" x="240.505818" xlink:href="#mf4ea576e20" y="152.903013"/>
     <use style="fill:#1f77b4;stroke:#1f77b4;" x="240.539524" xlink:href="#mf4ea576e20" y="154.172367"/>
     <use style="fill:#1f77b4;stroke:#1f77b4;" x="241.577581" xlink:href="#mf4ea576e20" y="155.480783"/>
     <use style="fill:#1f77b4;stroke:#1f77b4;" x="244.744704" xlink:href="#mf4ea576e20" y="156.830744"/>
     <use style="fill:#1f77b4;stroke:#1f77b4;" x="245.20774" xlink:href="#mf4ea576e20" y="158.224973"/>
     <use style="fill:#1f77b4;stroke:#1f77b4;" x="245.666713" xlink:href="#mf4ea576e20" y="159.666474"/>
     <use style="fill:#1f77b4;stroke:#1f77b4;" x="249.537141" xlink:href="#mf4ea576e20" y="161.158563"/>
     <use style="fill:#1f77b4;stroke:#1f77b4;" x="249.82674" xlink:href="#mf4ea576e20" y="162.704922"/>
     <use style="fill:#1f77b4;stroke:#1f77b4;" x="252.206707" xlink:href="#mf4ea576e20" y="164.309648"/>
     <use style="fill:#1f77b4;stroke:#1f77b4;" x="252.993397" xlink:href="#mf4ea576e20" y="165.97732"/>
     <use style="fill:#1f77b4;stroke:#1f77b4;" x="253.026288" xlink:href="#mf4ea576e20" y="167.713079"/>
     <use style="fill:#1f77b4;stroke:#1f77b4;" x="254.321207" xlink:href="#mf4ea576e20" y="169.522722"/>
     <use style="fill:#1f77b4;stroke:#1f77b4;" x="256.51258" xlink:href="#mf4ea576e20" y="171.412819"/>
     <use style="fill:#1f77b4;stroke:#1f77b4;" x="258.845505" xlink:href="#mf4ea576e20" y="173.390859"/>
     <use style="fill:#1f77b4;stroke:#1f77b4;" x="261.824079" xlink:href="#mf4ea576e20" y="175.465426"/>
     <use style="fill:#1f77b4;stroke:#1f77b4;" x="262.762946" xlink:href="#mf4ea576e20" y="177.646426"/>
     <use style="fill:#1f77b4;stroke:#1f77b4;" x="263.077234" xlink:href="#mf4ea576e20" y="179.945375"/>
     <use style="fill:#1f77b4;stroke:#1f77b4;" x="264.142079" xlink:href="#mf4ea576e20" y="182.375761"/>
     <use style="fill:#1f77b4;stroke:#1f77b4;" x="267.720393" xlink:href="#mf4ea576e20" y="184.953532"/>
     <use style="fill:#1f77b4;stroke:#1f77b4;" x="268.578505" xlink:href="#mf4ea576e20" y="187.697722"/>
     <use style="fill:#1f77b4;stroke:#1f77b4;" x="270.021568" xlink:href="#mf4ea576e20" y="190.631312"/>
     <use style="fill:#1f77b4;stroke:#1f77b4;" x="270.671781" xlink:href="#mf4ea576e20" y="193.782396"/>
     <use style="fill:#1f77b4;stroke:#1f77b4;" x="271.184765" xlink:href="#mf4ea576e20" y="197.185827"/>
     <use style="fill:#1f77b4;stroke:#1f77b4;" x="271.423459" xlink:href="#mf4ea576e20" y="200.885567"/>
     <use style="fill:#1f77b4;stroke:#1f77b4;" x="273.26461" xlink:href="#mf4ea576e20" y="204.938174"/>
     <use style="fill:#1f77b4;stroke:#1f77b4;" x="275.19096" xlink:href="#mf4ea576e20" y="209.418123"/>
     <use style="fill:#1f77b4;stroke:#1f77b4;" x="279.807097" xlink:href="#mf4ea576e20" y="214.42628"/>
     <use style="fill:#1f77b4;stroke:#1f77b4;" x="283.254903" xlink:href="#mf4ea576e20" y="220.10406"/>
     <use style="fill:#1f77b4;stroke:#1f77b4;" x="289.74088" xlink:href="#mf4ea576e20" y="226.658576"/>
     <use style="fill:#1f77b4;stroke:#1f77b4;" x="292.39295" xlink:href="#mf4ea576e20" y="234.410922"/>
     <use style="fill:#1f77b4;stroke:#1f77b4;" x="309.385605" xlink:href="#mf4ea576e20" y="243.899028"/>
     <use style="fill:#1f77b4;stroke:#1f77b4;" x="313.134357" xlink:href="#mf4ea576e20" y="256.131324"/>
     <use style="fill:#1f77b4;stroke:#1f77b4;" x="314.350191" xlink:href="#mf4ea576e20" y="273.371776"/>
     <use style="fill:#1f77b4;stroke:#1f77b4;" x="330.810794" xlink:href="#mf4ea576e20" y="302.844525"/>
    </g>
   </g>
   <g id="matplotlib.axis_1">
    <g id="xtick_1">
     <g id="line2d_1">
      <path clip-path="url(#pc5abfabfaf)" d="M 122.490862 400.750875 
L 122.490862 12.670875 
" style="fill:none;stroke:#000000;stroke-linecap:square;stroke-opacity:0.5;stroke-width:0.8;"/>
     </g>
     <g id="line2d_2">
      <defs>
       <path d="M 0 0 
L 0 3.5 
" id="m9c15c6bb95" style="stroke:#000000;stroke-width:1.2;"/>
      </defs>
      <g>
       <use style="stroke:#000000;stroke-width:1.2;" x="122.490862" xlink:href="#m9c15c6bb95" y="400.750875"/>
      </g>
     </g>
     <g id="text_1">
      <!-- $\mathdefault{10^{0}}$ -->
      <g transform="translate(109.818862 418.692625)scale(0.144 -0.144)">
       <defs>
        <path d="M 12.40625 8.296875 
L 28.515625 8.296875 
L 28.515625 63.921875 
L 10.984375 60.40625 
L 10.984375 69.390625 
L 28.421875 72.90625 
L 38.28125 72.90625 
L 38.28125 8.296875 
L 54.390625 8.296875 
L 54.390625 0 
L 12.40625 0 
z
" id="DejaVuSans-49"/>
        <path d="M 31.78125 66.40625 
Q 24.171875 66.40625 20.328125 58.90625 
Q 16.5 51.421875 16.5 36.375 
Q 16.5 21.390625 20.328125 13.890625 
Q 24.171875 6.390625 31.78125 6.390625 
Q 39.453125 6.390625 43.28125 13.890625 
Q 47.125 21.390625 47.125 36.375 
Q 47.125 51.421875 43.28125 58.90625 
Q 39.453125 66.40625 31.78125 66.40625 
z
M 31.78125 74.21875 
Q 44.046875 74.21875 50.515625 64.515625 
Q 56.984375 54.828125 56.984375 36.375 
Q 56.984375 17.96875 50.515625 8.265625 
Q 44.046875 -1.421875 31.78125 -1.421875 
Q 19.53125 -1.421875 13.0625 8.265625 
Q 6.59375 17.96875 6.59375 36.375 
Q 6.59375 54.828125 13.0625 64.515625 
Q 19.53125 74.21875 31.78125 74.21875 
z
" id="DejaVuSans-48"/>
       </defs>
       <use transform="translate(0 0.765625)" xlink:href="#DejaVuSans-49"/>
       <use transform="translate(63.623047 0.765625)" xlink:href="#DejaVuSans-48"/>
       <use transform="translate(128.203125 39.046875)scale(0.7)" xlink:href="#DejaVuSans-48"/>
      </g>
     </g>
    </g>
    <g id="xtick_2">
     <g id="line2d_3">
      <path clip-path="url(#pc5abfabfaf)" d="M 259.548868 400.750875 
L 259.548868 12.670875 
" style="fill:none;stroke:#000000;stroke-linecap:square;stroke-opacity:0.5;stroke-width:0.8;"/>
     </g>
     <g id="line2d_4">
      <g>
       <use style="stroke:#000000;stroke-width:1.2;" x="259.548868" xlink:href="#m9c15c6bb95" y="400.750875"/>
      </g>
     </g>
     <g id="text_2">
      <!-- $\mathdefault{10^{1}}$ -->
      <g transform="translate(246.876868 418.692625)scale(0.144 -0.144)">
       <use transform="translate(0 0.684375)" xlink:href="#DejaVuSans-49"/>
       <use transform="translate(63.623047 0.684375)" xlink:href="#DejaVuSans-48"/>
       <use transform="translate(128.203125 38.965625)scale(0.7)" xlink:href="#DejaVuSans-49"/>
      </g>
     </g>
    </g>
    <g id="xtick_3">
     <g id="line2d_5">
      <path clip-path="url(#pc5abfabfaf)" d="M 396.606873 400.750875 
L 396.606873 12.670875 
" style="fill:none;stroke:#000000;stroke-linecap:square;stroke-opacity:0.5;stroke-width:0.8;"/>
     </g>
     <g id="line2d_6">
      <g>
       <use style="stroke:#000000;stroke-width:1.2;" x="396.606873" xlink:href="#m9c15c6bb95" y="400.750875"/>
      </g>
     </g>
     <g id="text_3">
      <!-- $\mathdefault{10^{2}}$ -->
      <g transform="translate(383.934873 418.692625)scale(0.144 -0.144)">
       <defs>
        <path d="M 19.1875 8.296875 
L 53.609375 8.296875 
L 53.609375 0 
L 7.328125 0 
L 7.328125 8.296875 
Q 12.9375 14.109375 22.625 23.890625 
Q 32.328125 33.6875 34.8125 36.53125 
Q 39.546875 41.84375 41.421875 45.53125 
Q 43.3125 49.21875 43.3125 52.78125 
Q 43.3125 58.59375 39.234375 62.25 
Q 35.15625 65.921875 28.609375 65.921875 
Q 23.96875 65.921875 18.8125 64.3125 
Q 13.671875 62.703125 7.8125 59.421875 
L 7.8125 69.390625 
Q 13.765625 71.78125 18.9375 73 
Q 24.125 74.21875 28.421875 74.21875 
Q 39.75 74.21875 46.484375 68.546875 
Q 53.21875 62.890625 53.21875 53.421875 
Q 53.21875 48.921875 51.53125 44.890625 
Q 49.859375 40.875 45.40625 35.40625 
Q 44.1875 33.984375 37.640625 27.21875 
Q 31.109375 20.453125 19.1875 8.296875 
z
" id="DejaVuSans-50"/>
       </defs>
       <use transform="translate(0 0.765625)" xlink:href="#DejaVuSans-49"/>
       <use transform="translate(63.623047 0.765625)" xlink:href="#DejaVuSans-48"/>
       <use transform="translate(128.203125 39.046875)scale(0.7)" xlink:href="#DejaVuSans-50"/>
      </g>
     </g>
    </g>
    <g id="xtick_4">
     <g id="line2d_7">
      <defs>
       <path d="M 0 0 
L 0 2 
" id="ma83e4a098f" style="stroke:#000000;stroke-width:0.6;"/>
      </defs>
      <g>
       <use style="stroke:#000000;stroke-width:0.6;" x="81.232291" xlink:href="#ma83e4a098f" y="400.750875"/>
      </g>
     </g>
    </g>
    <g id="xtick_5">
     <g id="line2d_8">
      <g>
       <use style="stroke:#000000;stroke-width:0.6;" x="92.084715" xlink:href="#ma83e4a098f" y="400.750875"/>
      </g>
     </g>
    </g>
    <g id="xtick_6">
     <g id="line2d_9">
      <g>
       <use style="stroke:#000000;stroke-width:0.6;" x="101.260308" xlink:href="#ma83e4a098f" y="400.750875"/>
      </g>
     </g>
    </g>
    <g id="xtick_7">
     <g id="line2d_10">
      <g>
       <use style="stroke:#000000;stroke-width:0.6;" x="109.208569" xlink:href="#ma83e4a098f" y="400.750875"/>
      </g>
     </g>
    </g>
    <g id="xtick_8">
     <g id="line2d_11">
      <g>
       <use style="stroke:#000000;stroke-width:0.6;" x="116.219432" xlink:href="#ma83e4a098f" y="400.750875"/>
      </g>
     </g>
    </g>
    <g id="xtick_9">
     <g id="line2d_12">
      <g>
       <use style="stroke:#000000;stroke-width:0.6;" x="163.749433" xlink:href="#ma83e4a098f" y="400.750875"/>
      </g>
     </g>
    </g>
    <g id="xtick_10">
     <g id="line2d_13">
      <g>
       <use style="stroke:#000000;stroke-width:0.6;" x="187.88415" xlink:href="#ma83e4a098f" y="400.750875"/>
      </g>
     </g>
    </g>
    <g id="xtick_11">
     <g id="line2d_14">
      <g>
       <use style="stroke:#000000;stroke-width:0.6;" x="205.008004" xlink:href="#ma83e4a098f" y="400.750875"/>
      </g>
     </g>
    </g>
    <g id="xtick_12">
     <g id="line2d_15">
      <g>
       <use style="stroke:#000000;stroke-width:0.6;" x="218.290297" xlink:href="#ma83e4a098f" y="400.750875"/>
      </g>
     </g>
    </g>
    <g id="xtick_13">
     <g id="line2d_16">
      <g>
       <use style="stroke:#000000;stroke-width:0.6;" x="229.14272" xlink:href="#ma83e4a098f" y="400.750875"/>
      </g>
     </g>
    </g>
    <g id="xtick_14">
     <g id="line2d_17">
      <g>
       <use style="stroke:#000000;stroke-width:0.6;" x="238.318314" xlink:href="#ma83e4a098f" y="400.750875"/>
      </g>
     </g>
    </g>
    <g id="xtick_15">
     <g id="line2d_18">
      <g>
       <use style="stroke:#000000;stroke-width:0.6;" x="246.266575" xlink:href="#ma83e4a098f" y="400.750875"/>
      </g>
     </g>
    </g>
    <g id="xtick_16">
     <g id="line2d_19">
      <g>
       <use style="stroke:#000000;stroke-width:0.6;" x="253.277437" xlink:href="#ma83e4a098f" y="400.750875"/>
      </g>
     </g>
    </g>
    <g id="xtick_17">
     <g id="line2d_20">
      <g>
       <use style="stroke:#000000;stroke-width:0.6;" x="300.807438" xlink:href="#ma83e4a098f" y="400.750875"/>
      </g>
     </g>
    </g>
    <g id="xtick_18">
     <g id="line2d_21">
      <g>
       <use style="stroke:#000000;stroke-width:0.6;" x="324.942155" xlink:href="#ma83e4a098f" y="400.750875"/>
      </g>
     </g>
    </g>
    <g id="xtick_19">
     <g id="line2d_22">
      <g>
       <use style="stroke:#000000;stroke-width:0.6;" x="342.066009" xlink:href="#ma83e4a098f" y="400.750875"/>
      </g>
     </g>
    </g>
    <g id="xtick_20">
     <g id="line2d_23">
      <g>
       <use style="stroke:#000000;stroke-width:0.6;" x="355.348302" xlink:href="#ma83e4a098f" y="400.750875"/>
      </g>
     </g>
    </g>
    <g id="xtick_21">
     <g id="line2d_24">
      <g>
       <use style="stroke:#000000;stroke-width:0.6;" x="366.200726" xlink:href="#ma83e4a098f" y="400.750875"/>
      </g>
     </g>
    </g>
    <g id="xtick_22">
     <g id="line2d_25">
      <g>
       <use style="stroke:#000000;stroke-width:0.6;" x="375.37632" xlink:href="#ma83e4a098f" y="400.750875"/>
      </g>
     </g>
    </g>
    <g id="xtick_23">
     <g id="line2d_26">
      <g>
       <use style="stroke:#000000;stroke-width:0.6;" x="383.32458" xlink:href="#ma83e4a098f" y="400.750875"/>
      </g>
     </g>
    </g>
    <g id="xtick_24">
     <g id="line2d_27">
      <g>
       <use style="stroke:#000000;stroke-width:0.6;" x="390.335443" xlink:href="#ma83e4a098f" y="400.750875"/>
      </g>
     </g>
    </g>
    <g id="xtick_25">
     <g id="line2d_28">
      <g>
       <use style="stroke:#000000;stroke-width:0.6;" x="437.865444" xlink:href="#ma83e4a098f" y="400.750875"/>
      </g>
     </g>
    </g>
    <g id="xtick_26">
     <g id="line2d_29">
      <g>
       <use style="stroke:#000000;stroke-width:0.6;" x="462.000161" xlink:href="#ma83e4a098f" y="400.750875"/>
      </g>
     </g>
    </g>
    <g id="text_4">
     <!-- Trace Length $(m)$ -->
     <g transform="translate(197.7464 450.820175)scale(0.1728 -0.1728)">
      <defs>
       <path d="M 5.90625 72.90625 
L 67.578125 72.90625 
L 66.015625 64.59375 
L 39.984375 64.59375 
L 27.484375 0 
L 17.578125 0 
L 30.078125 64.59375 
L 4.296875 64.59375 
z
" id="DejaVuSans-Oblique-84"/>
       <path d="M 44.578125 46.390625 
Q 43.21875 47.125 41.453125 47.515625 
Q 39.703125 47.90625 37.703125 47.90625 
Q 30.515625 47.90625 25.140625 42.453125 
Q 19.78125 37.015625 18.015625 27.875 
L 12.5 0 
L 3.515625 0 
L 14.203125 54.6875 
L 23.1875 54.6875 
L 21.484375 46.1875 
Q 25.046875 50.921875 30 53.453125 
Q 34.96875 56 40.578125 56 
Q 42.046875 56 43.453125 55.828125 
Q 44.875 55.671875 46.296875 55.28125 
z
" id="DejaVuSans-Oblique-114"/>
       <path d="M 53.71875 31.203125 
L 47.609375 0 
L 38.625 0 
L 40.28125 8.296875 
Q 36.328125 3.421875 31.265625 1 
Q 26.21875 -1.421875 20.015625 -1.421875 
Q 13.03125 -1.421875 8.5625 2.84375 
Q 4.109375 7.125 4.109375 13.8125 
Q 4.109375 23.390625 11.75 28.953125 
Q 19.390625 34.515625 32.8125 34.515625 
L 45.3125 34.515625 
L 45.796875 36.921875 
Q 45.90625 37.3125 45.953125 37.765625 
Q 46 38.234375 46 39.203125 
Q 46 43.5625 42.453125 45.96875 
Q 38.921875 48.390625 32.515625 48.390625 
Q 28.125 48.390625 23.5 47.265625 
Q 18.890625 46.140625 14.015625 43.890625 
L 15.578125 52.203125 
Q 20.65625 54.109375 25.515625 55.046875 
Q 30.375 56 34.90625 56 
Q 44.578125 56 49.625 51.796875 
Q 54.6875 47.609375 54.6875 39.59375 
Q 54.6875 37.984375 54.4375 35.8125 
Q 54.203125 33.640625 53.71875 31.203125 
z
M 44 27.484375 
L 35.015625 27.484375 
Q 23.96875 27.484375 18.671875 24.53125 
Q 13.375 21.578125 13.375 15.375 
Q 13.375 11.078125 16.078125 8.640625 
Q 18.796875 6.203125 23.578125 6.203125 
Q 30.90625 6.203125 36.375 11.453125 
Q 41.84375 16.703125 43.609375 25.484375 
z
" id="DejaVuSans-Oblique-97"/>
       <path d="M 53.609375 52.59375 
L 51.8125 43.703125 
Q 48.578125 46.046875 44.9375 47.21875 
Q 41.3125 48.390625 37.40625 48.390625 
Q 33.109375 48.390625 29.21875 46.875 
Q 25.34375 45.359375 22.703125 42.578125 
Q 18.5 38.328125 16.203125 32.609375 
Q 13.921875 26.90625 13.921875 20.796875 
Q 13.921875 13.421875 17.609375 9.8125 
Q 21.296875 6.203125 28.8125 6.203125 
Q 32.515625 6.203125 36.6875 7.328125 
Q 40.875 8.453125 45.40625 10.6875 
L 43.703125 1.8125 
Q 39.796875 0.203125 35.671875 -0.609375 
Q 31.546875 -1.421875 27.203125 -1.421875 
Q 16.3125 -1.421875 10.453125 4.015625 
Q 4.59375 9.46875 4.59375 19.578125 
Q 4.59375 28.078125 7.640625 35.234375 
Q 10.6875 42.390625 16.703125 48.09375 
Q 20.796875 52 26.3125 54 
Q 31.84375 56 38.375 56 
Q 42.1875 56 45.9375 55.140625 
Q 49.703125 54.296875 53.609375 52.59375 
z
" id="DejaVuSans-Oblique-99"/>
       <path d="M 48.09375 32.234375 
Q 48.25 33.015625 48.3125 33.84375 
Q 48.390625 34.671875 48.390625 35.5 
Q 48.390625 41.453125 44.890625 44.921875 
Q 41.40625 48.390625 35.40625 48.390625 
Q 28.71875 48.390625 23.578125 44.15625 
Q 18.453125 39.9375 15.828125 32.171875 
z
M 55.90625 25.203125 
L 14.109375 25.203125 
Q 13.8125 23.34375 13.71875 22.265625 
Q 13.625 21.1875 13.625 20.40625 
Q 13.625 13.625 17.796875 9.90625 
Q 21.96875 6.203125 29.59375 6.203125 
Q 35.453125 6.203125 40.671875 7.515625 
Q 45.90625 8.84375 50.390625 11.375 
L 48.6875 2.484375 
Q 43.84375 0.53125 38.6875 -0.4375 
Q 33.546875 -1.421875 28.21875 -1.421875 
Q 16.84375 -1.421875 10.71875 4.015625 
Q 4.59375 9.46875 4.59375 19.484375 
Q 4.59375 28.03125 7.640625 35.375 
Q 10.6875 42.71875 16.609375 48.484375 
Q 20.40625 52.09375 25.65625 54.046875 
Q 30.90625 56 36.8125 56 
Q 46.09375 56 51.578125 50.4375 
Q 57.078125 44.875 57.078125 35.5 
Q 57.078125 33.25 56.78125 30.6875 
Q 56.5 28.125 55.90625 25.203125 
z
" id="DejaVuSans-Oblique-101"/>
       <path id="DejaVuSans-Oblique-32"/>
       <path d="M 16.796875 72.90625 
L 26.703125 72.90625 
L 14.203125 8.203125 
L 49.703125 8.203125 
L 48.09375 0 
L 2.6875 0 
z
" id="DejaVuSans-Oblique-76"/>
       <path d="M 55.71875 33.015625 
L 49.3125 0 
L 40.28125 0 
L 46.6875 32.671875 
Q 47.125 34.96875 47.359375 36.71875 
Q 47.609375 38.484375 47.609375 39.5 
Q 47.609375 43.609375 45.015625 45.890625 
Q 42.4375 48.1875 37.796875 48.1875 
Q 30.5625 48.1875 25.34375 43.375 
Q 20.125 38.578125 18.5 30.328125 
L 12.5 0 
L 3.515625 0 
L 14.109375 54.6875 
L 23.09375 54.6875 
L 21.296875 46.09375 
Q 25.046875 50.828125 30.3125 53.40625 
Q 35.59375 56 41.40625 56 
Q 48.640625 56 52.609375 52.09375 
Q 56.59375 48.1875 56.59375 41.109375 
Q 56.59375 39.359375 56.375 37.359375 
Q 56.15625 35.359375 55.71875 33.015625 
z
" id="DejaVuSans-Oblique-110"/>
       <path d="M 59.625 54.6875 
L 50.296875 6.78125 
Q 47.609375 -7.125 40.015625 -13.953125 
Q 32.421875 -20.796875 19.578125 -20.796875 
Q 14.84375 -20.796875 10.78125 -20.09375 
Q 6.734375 -19.390625 3.21875 -17.921875 
L 4.890625 -9.1875 
Q 8.203125 -11.328125 11.90625 -12.34375 
Q 15.625 -13.375 19.828125 -13.375 
Q 28.375 -13.375 33.859375 -8.703125 
Q 39.359375 -4.046875 41.109375 4.6875 
L 41.890625 8.796875 
Q 38.140625 4.5 33.15625 2.25 
Q 28.171875 0 22.40625 0 
Q 14.109375 0 9.34375 5.484375 
Q 4.59375 10.984375 4.59375 20.609375 
Q 4.59375 28.171875 7.46875 35.421875 
Q 10.359375 42.671875 15.578125 48.296875 
Q 19.046875 52 23.65625 54 
Q 28.265625 56 33.296875 56 
Q 38.8125 56 42.90625 53.4375 
Q 47.015625 50.875 49.03125 46.1875 
L 50.59375 54.6875 
z
M 46.09375 34.625 
Q 46.09375 41.265625 42.96875 44.875 
Q 39.84375 48.484375 34.078125 48.484375 
Q 30.515625 48.484375 27.296875 47.0625 
Q 24.078125 45.65625 21.78125 43.109375 
Q 18.0625 38.921875 15.984375 33.234375 
Q 13.921875 27.546875 13.921875 21.484375 
Q 13.921875 14.75 17.0625 11.125 
Q 20.21875 7.515625 26.125 7.515625 
Q 34.671875 7.515625 40.375 15.25 
Q 46.09375 23 46.09375 34.625 
z
" id="DejaVuSans-Oblique-103"/>
       <path d="M 42.28125 54.6875 
L 40.921875 47.703125 
L 23 47.703125 
L 17.1875 18.015625 
Q 16.890625 16.359375 16.75 15.234375 
Q 16.609375 14.109375 16.609375 13.484375 
Q 16.609375 10.359375 18.484375 8.9375 
Q 20.359375 7.515625 24.515625 7.515625 
L 33.59375 7.515625 
L 32.078125 0 
L 23.484375 0 
Q 15.484375 0 11.546875 3.125 
Q 7.625 6.25 7.625 12.59375 
Q 7.625 13.71875 7.765625 15.0625 
Q 7.90625 16.40625 8.203125 18.015625 
L 14.015625 47.703125 
L 6.390625 47.703125 
L 7.8125 54.6875 
L 15.28125 54.6875 
L 18.3125 70.21875 
L 27.296875 70.21875 
L 24.3125 54.6875 
z
" id="DejaVuSans-Oblique-116"/>
       <path d="M 55.71875 33.015625 
L 49.3125 0 
L 40.28125 0 
L 46.6875 32.671875 
Q 47.125 34.96875 47.359375 36.71875 
Q 47.609375 38.484375 47.609375 39.5 
Q 47.609375 43.609375 45.015625 45.890625 
Q 42.4375 48.1875 37.796875 48.1875 
Q 30.5625 48.1875 25.265625 43.296875 
Q 19.96875 38.421875 18.40625 30.328125 
L 12.5 0 
L 3.515625 0 
L 18.3125 75.984375 
L 27.296875 75.984375 
L 21.484375 46.09375 
Q 24.90625 50.6875 30.21875 53.34375 
Q 35.546875 56 41.40625 56 
Q 48.640625 56 52.609375 52.09375 
Q 56.59375 48.1875 56.59375 41.109375 
Q 56.59375 39.359375 56.375 37.359375 
Q 56.15625 35.359375 55.71875 33.015625 
z
" id="DejaVuSans-Oblique-104"/>
       <path d="M 31 75.875 
Q 24.46875 64.65625 21.28125 53.65625 
Q 18.109375 42.671875 18.109375 31.390625 
Q 18.109375 20.125 21.3125 9.0625 
Q 24.515625 -2 31 -13.1875 
L 23.1875 -13.1875 
Q 15.875 -1.703125 12.234375 9.375 
Q 8.59375 20.453125 8.59375 31.390625 
Q 8.59375 42.28125 12.203125 53.3125 
Q 15.828125 64.359375 23.1875 75.875 
z
" id="DejaVuSans-40"/>
       <path d="M 89.796875 33.015625 
L 83.40625 0 
L 74.421875 0 
L 80.71875 32.71875 
Q 81.109375 34.8125 81.296875 36.328125 
Q 81.5 37.84375 81.5 38.921875 
Q 81.5 43.3125 79.046875 45.75 
Q 76.609375 48.1875 72.21875 48.1875 
Q 65.671875 48.1875 60.546875 43.28125 
Q 55.421875 38.375 53.90625 30.515625 
L 47.90625 0 
L 38.921875 0 
L 45.3125 32.71875 
Q 45.703125 34.515625 45.890625 36.046875 
Q 46.09375 37.59375 46.09375 38.8125 
Q 46.09375 43.265625 43.65625 45.71875 
Q 41.21875 48.1875 36.921875 48.1875 
Q 30.28125 48.1875 25.140625 43.28125 
Q 20.015625 38.375 18.5 30.515625 
L 12.5 0 
L 3.515625 0 
L 14.203125 54.6875 
L 23.1875 54.6875 
L 21.484375 46.1875 
Q 25.140625 50.984375 30.046875 53.484375 
Q 34.96875 56 40.578125 56 
Q 46.53125 56 50.359375 52.875 
Q 54.203125 49.75 54.984375 44.1875 
Q 59.078125 49.953125 64.46875 52.96875 
Q 69.875 56 75.875 56 
Q 82.90625 56 86.734375 51.953125 
Q 90.578125 47.90625 90.578125 40.484375 
Q 90.578125 38.875 90.375 36.9375 
Q 90.1875 35.015625 89.796875 33.015625 
z
" id="DejaVuSans-Oblique-109"/>
       <path d="M 8.015625 75.875 
L 15.828125 75.875 
Q 23.140625 64.359375 26.78125 53.3125 
Q 30.421875 42.28125 30.421875 31.390625 
Q 30.421875 20.453125 26.78125 9.375 
Q 23.140625 -1.703125 15.828125 -13.1875 
L 8.015625 -13.1875 
Q 14.5 -2 17.703125 9.0625 
Q 20.90625 20.125 20.90625 31.390625 
Q 20.90625 42.671875 17.703125 53.65625 
Q 14.5 64.65625 8.015625 75.875 
z
" id="DejaVuSans-41"/>
      </defs>
      <use transform="translate(0 0.015625)" xlink:href="#DejaVuSans-Oblique-84"/>
      <use transform="translate(61.083984 0.015625)" xlink:href="#DejaVuSans-Oblique-114"/>
      <use transform="translate(102.197266 0.015625)" xlink:href="#DejaVuSans-Oblique-97"/>
      <use transform="translate(163.476562 0.015625)" xlink:href="#DejaVuSans-Oblique-99"/>
      <use transform="translate(218.457031 0.015625)" xlink:href="#DejaVuSans-Oblique-101"/>
      <use transform="translate(279.980469 0.015625)" xlink:href="#DejaVuSans-Oblique-32"/>
      <use transform="translate(311.767578 0.015625)" xlink:href="#DejaVuSans-Oblique-76"/>
      <use transform="translate(367.480469 0.015625)" xlink:href="#DejaVuSans-Oblique-101"/>
      <use transform="translate(429.003906 0.015625)" xlink:href="#DejaVuSans-Oblique-110"/>
      <use transform="translate(492.382812 0.015625)" xlink:href="#DejaVuSans-Oblique-103"/>
      <use transform="translate(555.859375 0.015625)" xlink:href="#DejaVuSans-Oblique-116"/>
      <use transform="translate(595.068359 0.015625)" xlink:href="#DejaVuSans-Oblique-104"/>
      <use transform="translate(658.447266 0.015625)" xlink:href="#DejaVuSans-Oblique-32"/>
      <use transform="translate(690.234375 0.015625)" xlink:href="#DejaVuSans-40"/>
      <use transform="translate(729.248047 0.015625)" xlink:href="#DejaVuSans-Oblique-109"/>
      <use transform="translate(826.660156 0.015625)" xlink:href="#DejaVuSans-41"/>
     </g>
    </g>
   </g>
   <g id="matplotlib.axis_2">
    <g id="ytick_1">
     <g id="line2d_30">
      <path clip-path="url(#pc5abfabfaf)" d="M 77.2688 306.389926 
L 467.8688 306.389926 
" style="fill:none;stroke:#000000;stroke-linecap:square;stroke-opacity:0.5;stroke-width:0.8;"/>
     </g>
     <g id="line2d_31">
      <defs>
       <path d="M 0 0 
L -3.5 0 
" id="m102e2e45f8" style="stroke:#000000;stroke-width:1.2;"/>
      </defs>
      <g>
       <use style="stroke:#000000;stroke-width:1.2;" x="77.2688" xlink:href="#m102e2e45f8" y="306.389926"/>
      </g>
     </g>
     <g id="text_5">
      <!-- $\mathdefault{10^{-2}}$ -->
      <g transform="translate(36.4288 311.860801)scale(0.144 -0.144)">
       <defs>
        <path d="M 10.59375 35.5 
L 73.1875 35.5 
L 73.1875 27.203125 
L 10.59375 27.203125 
z
" id="DejaVuSans-8722"/>
       </defs>
       <use transform="translate(0 0.765625)" xlink:href="#DejaVuSans-49"/>
       <use transform="translate(63.623047 0.765625)" xlink:href="#DejaVuSans-48"/>
       <use transform="translate(128.203125 39.046875)scale(0.7)" xlink:href="#DejaVuSans-8722"/>
       <use transform="translate(186.855469 39.046875)scale(0.7)" xlink:href="#DejaVuSans-50"/>
      </g>
     </g>
    </g>
    <g id="ytick_2">
     <g id="line2d_32">
      <path clip-path="url(#pc5abfabfaf)" d="M 77.2688 208.483576 
L 467.8688 208.483576 
" style="fill:none;stroke:#000000;stroke-linecap:square;stroke-opacity:0.5;stroke-width:0.8;"/>
     </g>
     <g id="line2d_33">
      <g>
       <use style="stroke:#000000;stroke-width:1.2;" x="77.2688" xlink:href="#m102e2e45f8" y="208.483576"/>
      </g>
     </g>
     <g id="text_6">
      <!-- $\mathdefault{10^{-1}}$ -->
      <g transform="translate(36.4288 213.954451)scale(0.144 -0.144)">
       <use transform="translate(0 0.684375)" xlink:href="#DejaVuSans-49"/>
       <use transform="translate(63.623047 0.684375)" xlink:href="#DejaVuSans-48"/>
       <use transform="translate(128.203125 38.965625)scale(0.7)" xlink:href="#DejaVuSans-8722"/>
       <use transform="translate(186.855469 38.965625)scale(0.7)" xlink:href="#DejaVuSans-49"/>
      </g>
     </g>
    </g>
    <g id="ytick_3">
     <g id="line2d_34">
      <path clip-path="url(#pc5abfabfaf)" d="M 77.2688 110.577225 
L 467.8688 110.577225 
" style="fill:none;stroke:#000000;stroke-linecap:square;stroke-opacity:0.5;stroke-width:0.8;"/>
     </g>
     <g id="line2d_35">
      <g>
       <use style="stroke:#000000;stroke-width:1.2;" x="77.2688" xlink:href="#m102e2e45f8" y="110.577225"/>
      </g>
     </g>
     <g id="text_7">
      <!-- $\mathdefault{10^{0}}$ -->
      <g transform="translate(44.9248 116.0481)scale(0.144 -0.144)">
       <use transform="translate(0 0.765625)" xlink:href="#DejaVuSans-49"/>
       <use transform="translate(63.623047 0.765625)" xlink:href="#DejaVuSans-48"/>
       <use transform="translate(128.203125 39.046875)scale(0.7)" xlink:href="#DejaVuSans-48"/>
      </g>
     </g>
    </g>
    <g id="ytick_4">
     <g id="line2d_36">
      <path clip-path="url(#pc5abfabfaf)" d="M 77.2688 12.670875 
L 467.8688 12.670875 
" style="fill:none;stroke:#000000;stroke-linecap:square;stroke-opacity:0.5;stroke-width:0.8;"/>
     </g>
     <g id="line2d_37">
      <g>
       <use style="stroke:#000000;stroke-width:1.2;" x="77.2688" xlink:href="#m102e2e45f8" y="12.670875"/>
      </g>
     </g>
     <g id="text_8">
      <!-- $\mathdefault{10^{1}}$ -->
      <g transform="translate(44.9248 18.14175)scale(0.144 -0.144)">
       <use transform="translate(0 0.684375)" xlink:href="#DejaVuSans-49"/>
       <use transform="translate(63.623047 0.684375)" xlink:href="#DejaVuSans-48"/>
       <use transform="translate(128.203125 38.965625)scale(0.7)" xlink:href="#DejaVuSans-49"/>
      </g>
     </g>
    </g>
    <g id="ytick_5">
     <g id="line2d_38">
      <defs>
       <path d="M 0 0 
L -2 0 
" id="mba684d51f3" style="stroke:#000000;stroke-width:0.6;"/>
      </defs>
      <g>
       <use style="stroke:#000000;stroke-width:0.6;" x="77.2688" xlink:href="#mba684d51f3" y="374.823528"/>
      </g>
     </g>
    </g>
    <g id="ytick_6">
     <g id="line2d_39">
      <g>
       <use style="stroke:#000000;stroke-width:0.6;" x="77.2688" xlink:href="#mba684d51f3" y="357.583076"/>
      </g>
     </g>
    </g>
    <g id="ytick_7">
     <g id="line2d_40">
      <g>
       <use style="stroke:#000000;stroke-width:0.6;" x="77.2688" xlink:href="#mba684d51f3" y="345.35078"/>
      </g>
     </g>
    </g>
    <g id="ytick_8">
     <g id="line2d_41">
      <g>
       <use style="stroke:#000000;stroke-width:0.6;" x="77.2688" xlink:href="#mba684d51f3" y="335.862674"/>
      </g>
     </g>
    </g>
    <g id="ytick_9">
     <g id="line2d_42">
      <g>
       <use style="stroke:#000000;stroke-width:0.6;" x="77.2688" xlink:href="#mba684d51f3" y="328.110328"/>
      </g>
     </g>
    </g>
    <g id="ytick_10">
     <g id="line2d_43">
      <g>
       <use style="stroke:#000000;stroke-width:0.6;" x="77.2688" xlink:href="#mba684d51f3" y="321.555812"/>
      </g>
     </g>
    </g>
    <g id="ytick_11">
     <g id="line2d_44">
      <g>
       <use style="stroke:#000000;stroke-width:0.6;" x="77.2688" xlink:href="#mba684d51f3" y="315.878032"/>
      </g>
     </g>
    </g>
    <g id="ytick_12">
     <g id="line2d_45">
      <g>
       <use style="stroke:#000000;stroke-width:0.6;" x="77.2688" xlink:href="#mba684d51f3" y="310.869875"/>
      </g>
     </g>
    </g>
    <g id="ytick_13">
     <g id="line2d_46">
      <g>
       <use style="stroke:#000000;stroke-width:0.6;" x="77.2688" xlink:href="#mba684d51f3" y="276.917178"/>
      </g>
     </g>
    </g>
    <g id="ytick_14">
     <g id="line2d_47">
      <g>
       <use style="stroke:#000000;stroke-width:0.6;" x="77.2688" xlink:href="#mba684d51f3" y="259.676725"/>
      </g>
     </g>
    </g>
    <g id="ytick_15">
     <g id="line2d_48">
      <g>
       <use style="stroke:#000000;stroke-width:0.6;" x="77.2688" xlink:href="#mba684d51f3" y="247.44443"/>
      </g>
     </g>
    </g>
    <g id="ytick_16">
     <g id="line2d_49">
      <g>
       <use style="stroke:#000000;stroke-width:0.6;" x="77.2688" xlink:href="#mba684d51f3" y="237.956324"/>
      </g>
     </g>
    </g>
    <g id="ytick_17">
     <g id="line2d_50">
      <g>
       <use style="stroke:#000000;stroke-width:0.6;" x="77.2688" xlink:href="#mba684d51f3" y="230.203977"/>
      </g>
     </g>
    </g>
    <g id="ytick_18">
     <g id="line2d_51">
      <g>
       <use style="stroke:#000000;stroke-width:0.6;" x="77.2688" xlink:href="#mba684d51f3" y="223.649461"/>
      </g>
     </g>
    </g>
    <g id="ytick_19">
     <g id="line2d_52">
      <g>
       <use style="stroke:#000000;stroke-width:0.6;" x="77.2688" xlink:href="#mba684d51f3" y="217.971682"/>
      </g>
     </g>
    </g>
    <g id="ytick_20">
     <g id="line2d_53">
      <g>
       <use style="stroke:#000000;stroke-width:0.6;" x="77.2688" xlink:href="#mba684d51f3" y="212.963525"/>
      </g>
     </g>
    </g>
    <g id="ytick_21">
     <g id="line2d_54">
      <g>
       <use style="stroke:#000000;stroke-width:0.6;" x="77.2688" xlink:href="#mba684d51f3" y="179.010828"/>
      </g>
     </g>
    </g>
    <g id="ytick_22">
     <g id="line2d_55">
      <g>
       <use style="stroke:#000000;stroke-width:0.6;" x="77.2688" xlink:href="#mba684d51f3" y="161.770375"/>
      </g>
     </g>
    </g>
    <g id="ytick_23">
     <g id="line2d_56">
      <g>
       <use style="stroke:#000000;stroke-width:0.6;" x="77.2688" xlink:href="#mba684d51f3" y="149.538079"/>
      </g>
     </g>
    </g>
    <g id="ytick_24">
     <g id="line2d_57">
      <g>
       <use style="stroke:#000000;stroke-width:0.6;" x="77.2688" xlink:href="#mba684d51f3" y="140.049974"/>
      </g>
     </g>
    </g>
    <g id="ytick_25">
     <g id="line2d_58">
      <g>
       <use style="stroke:#000000;stroke-width:0.6;" x="77.2688" xlink:href="#mba684d51f3" y="132.297627"/>
      </g>
     </g>
    </g>
    <g id="ytick_26">
     <g id="line2d_59">
      <g>
       <use style="stroke:#000000;stroke-width:0.6;" x="77.2688" xlink:href="#mba684d51f3" y="125.743111"/>
      </g>
     </g>
    </g>
    <g id="ytick_27">
     <g id="line2d_60">
      <g>
       <use style="stroke:#000000;stroke-width:0.6;" x="77.2688" xlink:href="#mba684d51f3" y="120.065331"/>
      </g>
     </g>
    </g>
    <g id="ytick_28">
     <g id="line2d_61">
      <g>
       <use style="stroke:#000000;stroke-width:0.6;" x="77.2688" xlink:href="#mba684d51f3" y="115.057174"/>
      </g>
     </g>
    </g>
    <g id="ytick_29">
     <g id="line2d_62">
      <g>
       <use style="stroke:#000000;stroke-width:0.6;" x="77.2688" xlink:href="#mba684d51f3" y="81.104477"/>
      </g>
     </g>
    </g>
    <g id="ytick_30">
     <g id="line2d_63">
      <g>
       <use style="stroke:#000000;stroke-width:0.6;" x="77.2688" xlink:href="#mba684d51f3" y="63.864025"/>
      </g>
     </g>
    </g>
    <g id="ytick_31">
     <g id="line2d_64">
      <g>
       <use style="stroke:#000000;stroke-width:0.6;" x="77.2688" xlink:href="#mba684d51f3" y="51.631729"/>
      </g>
     </g>
    </g>
    <g id="ytick_32">
     <g id="line2d_65">
      <g>
       <use style="stroke:#000000;stroke-width:0.6;" x="77.2688" xlink:href="#mba684d51f3" y="42.143623"/>
      </g>
     </g>
    </g>
    <g id="ytick_33">
     <g id="line2d_66">
      <g>
       <use style="stroke:#000000;stroke-width:0.6;" x="77.2688" xlink:href="#mba684d51f3" y="34.391276"/>
      </g>
     </g>
    </g>
    <g id="ytick_34">
     <g id="line2d_67">
      <g>
       <use style="stroke:#000000;stroke-width:0.6;" x="77.2688" xlink:href="#mba684d51f3" y="27.836761"/>
      </g>
     </g>
    </g>
    <g id="ytick_35">
     <g id="line2d_68">
      <g>
       <use style="stroke:#000000;stroke-width:0.6;" x="77.2688" xlink:href="#mba684d51f3" y="22.158981"/>
      </g>
     </g>
    </g>
    <g id="ytick_36">
     <g id="line2d_69">
      <g>
       <use style="stroke:#000000;stroke-width:0.6;" x="77.2688" xlink:href="#mba684d51f3" y="17.150824"/>
      </g>
     </g>
    </g>
    <g id="text_9">
     <!-- Complementary Cumulative Number $(\frac{1}{m^2})$ -->
     <g transform="translate(23.616 385.386075)rotate(-90)scale(0.1728 -0.1728)">
      <defs>
       <path d="M 69.484375 67.28125 
L 67.484375 56.890625 
Q 62.796875 61.625 57.546875 63.921875 
Q 52.296875 66.21875 46.1875 66.21875 
Q 37.84375 66.21875 31.515625 62.203125 
Q 25.203125 58.203125 20.609375 50 
Q 17.671875 44.734375 16.125 38.84375 
Q 14.59375 32.953125 14.59375 27 
Q 14.59375 17.046875 19.75 11.8125 
Q 24.90625 6.59375 34.71875 6.59375 
Q 41.5 6.59375 47.75 8.765625 
Q 54 10.9375 59.90625 15.28125 
L 57.625 3.609375 
Q 51.8125 1.125 45.875 -0.140625 
Q 39.9375 -1.421875 33.984375 -1.421875 
Q 19.96875 -1.421875 12.078125 6.1875 
Q 4.203125 13.8125 4.203125 27.390625 
Q 4.203125 36.078125 7.203125 44.46875 
Q 10.203125 52.875 15.828125 59.8125 
Q 21.78125 67.1875 29.421875 70.703125 
Q 37.0625 74.21875 47.21875 74.21875 
Q 53.46875 74.21875 59.0625 72.484375 
Q 64.65625 70.75 69.484375 67.28125 
z
" id="DejaVuSans-Oblique-67"/>
       <path d="M 25.390625 -1.421875 
Q 15.765625 -1.421875 10.171875 4.515625 
Q 4.59375 10.453125 4.59375 20.703125 
Q 4.59375 26.65625 6.515625 32.828125 
Q 8.453125 39.015625 11.53125 43.21875 
Q 16.359375 49.75 22.3125 52.875 
Q 28.265625 56 35.796875 56 
Q 45.125 56 50.859375 50.1875 
Q 56.59375 44.390625 56.59375 35.015625 
Q 56.59375 28.515625 54.6875 22.0625 
Q 52.78125 15.625 49.703125 11.375 
Q 44.921875 4.828125 38.96875 1.703125 
Q 33.015625 -1.421875 25.390625 -1.421875 
z
M 13.921875 21 
Q 13.921875 13.578125 17.015625 9.890625 
Q 20.125 6.203125 26.421875 6.203125 
Q 35.453125 6.203125 41.375 14.078125 
Q 47.3125 21.96875 47.3125 34.078125 
Q 47.3125 41.15625 44.140625 44.765625 
Q 40.96875 48.390625 34.8125 48.390625 
Q 29.734375 48.390625 25.78125 46.015625 
Q 21.828125 43.65625 18.703125 38.8125 
Q 16.40625 35.203125 15.15625 30.5625 
Q 13.921875 25.921875 13.921875 21 
z
" id="DejaVuSans-Oblique-111"/>
       <path d="M 49.609375 33.6875 
Q 49.609375 40.875 46.484375 44.671875 
Q 43.359375 48.484375 37.5 48.484375 
Q 33.5 48.484375 29.859375 46.4375 
Q 26.21875 44.390625 23.390625 40.484375 
Q 20.609375 36.625 18.9375 31.15625 
Q 17.28125 25.6875 17.28125 20.3125 
Q 17.28125 13.484375 20.40625 9.796875 
Q 23.53125 6.109375 29.296875 6.109375 
Q 33.546875 6.109375 37.1875 8.109375 
Q 40.828125 10.109375 43.40625 13.921875 
Q 46.1875 17.921875 47.890625 23.34375 
Q 49.609375 28.765625 49.609375 33.6875 
z
M 21.78125 46.390625 
Q 25.390625 51.125 30.296875 53.5625 
Q 35.203125 56 41.21875 56 
Q 49.609375 56 54.25 50.5 
Q 58.890625 45.015625 58.890625 35.109375 
Q 58.890625 27 56 19.65625 
Q 53.125 12.3125 47.703125 6.5 
Q 44.09375 2.640625 39.546875 0.609375 
Q 35.015625 -1.421875 29.984375 -1.421875 
Q 24.171875 -1.421875 20.21875 1 
Q 16.265625 3.421875 14.3125 8.203125 
L 8.6875 -20.796875 
L -0.296875 -20.796875 
L 14.40625 54.6875 
L 23.390625 54.6875 
z
" id="DejaVuSans-Oblique-112"/>
       <path d="M 18.3125 75.984375 
L 27.296875 75.984375 
L 12.5 0 
L 3.515625 0 
z
" id="DejaVuSans-Oblique-108"/>
       <path d="M 24.8125 -5.078125 
Q 18.5625 -15.578125 14.625 -18.1875 
Q 10.6875 -20.796875 4.59375 -20.796875 
L -2.484375 -20.796875 
L -0.984375 -13.28125 
L 4.203125 -13.28125 
Q 7.953125 -13.28125 10.59375 -11.234375 
Q 13.234375 -9.1875 16.5 -3.21875 
L 19.28125 2 
L 7.171875 54.6875 
L 16.703125 54.6875 
L 25.78125 12.796875 
L 50.875 54.6875 
L 60.296875 54.6875 
z
" id="DejaVuSans-Oblique-121"/>
       <path d="M 6.6875 21.6875 
L 13.09375 54.6875 
L 22.125 54.6875 
L 15.71875 22.015625 
Q 15.234375 19.625 15.015625 17.921875 
Q 14.796875 16.21875 14.796875 15.09375 
Q 14.796875 10.9375 17.328125 8.65625 
Q 19.875 6.390625 24.515625 6.390625 
Q 31.734375 6.390625 37 11.265625 
Q 42.28125 16.15625 43.890625 24.421875 
L 49.90625 54.6875 
L 58.890625 54.6875 
L 48.296875 0 
L 39.3125 0 
L 41.109375 8.59375 
Q 37.3125 3.8125 32.0625 1.1875 
Q 26.8125 -1.421875 20.90625 -1.421875 
Q 13.71875 -1.421875 9.71875 2.515625 
Q 5.71875 6.453125 5.71875 13.484375 
Q 5.71875 14.9375 5.953125 17.140625 
Q 6.203125 19.34375 6.6875 21.6875 
z
" id="DejaVuSans-Oblique-117"/>
       <path d="M 18.3125 75.984375 
L 27.296875 75.984375 
L 25.09375 64.59375 
L 16.109375 64.59375 
z
M 14.203125 54.6875 
L 23.1875 54.6875 
L 12.5 0 
L 3.515625 0 
z
" id="DejaVuSans-Oblique-105"/>
       <path d="M 7.171875 54.6875 
L 16.703125 54.6875 
L 24.703125 8.203125 
L 50.875 54.6875 
L 60.40625 54.6875 
L 29.296875 0 
L 17.1875 0 
z
" id="DejaVuSans-Oblique-118"/>
       <path d="M 16.890625 72.90625 
L 30.171875 72.90625 
L 50.296875 10.40625 
L 62.5 72.90625 
L 72.125 72.90625 
L 57.90625 0 
L 44.578125 0 
L 24.515625 62.890625 
L 12.3125 0 
L 2.6875 0 
z
" id="DejaVuSans-Oblique-78"/>
       <path d="M 49.515625 33.40625 
Q 49.515625 40.484375 46.265625 44.484375 
Q 43.015625 48.484375 37.3125 48.484375 
Q 33.15625 48.484375 29.515625 46.453125 
Q 25.875 44.4375 23.1875 40.578125 
Q 20.359375 36.53125 18.71875 31.171875 
Q 17.09375 25.828125 17.09375 20.515625 
Q 17.09375 13.765625 20.28125 9.9375 
Q 23.484375 6.109375 29.109375 6.109375 
Q 33.34375 6.109375 36.953125 8.078125 
Q 40.578125 10.0625 43.3125 13.921875 
Q 46.09375 17.921875 47.796875 23.234375 
Q 49.515625 28.5625 49.515625 33.40625 
z
M 21.578125 46.390625 
Q 24.90625 50.875 29.90625 53.4375 
Q 34.90625 56 40.375 56 
Q 48.78125 56 53.734375 50.328125 
Q 58.6875 44.671875 58.6875 35.015625 
Q 58.6875 27.09375 55.78125 19.671875 
Q 52.875 12.25 47.515625 6.5 
Q 44 2.6875 39.40625 0.625 
Q 34.8125 -1.421875 29.78125 -1.421875 
Q 24.46875 -1.421875 20.5625 1.015625 
Q 16.65625 3.46875 14.203125 8.296875 
L 12.59375 0 
L 3.609375 0 
L 18.40625 75.984375 
L 27.390625 75.984375 
z
" id="DejaVuSans-Oblique-98"/>
      </defs>
      <use transform="translate(0 0.16875)" xlink:href="#DejaVuSans-Oblique-67"/>
      <use transform="translate(69.824219 0.16875)" xlink:href="#DejaVuSans-Oblique-111"/>
      <use transform="translate(131.005859 0.16875)" xlink:href="#DejaVuSans-Oblique-109"/>
      <use transform="translate(228.417969 0.16875)" xlink:href="#DejaVuSans-Oblique-112"/>
      <use transform="translate(291.894531 0.16875)" xlink:href="#DejaVuSans-Oblique-108"/>
      <use transform="translate(319.677734 0.16875)" xlink:href="#DejaVuSans-Oblique-101"/>
      <use transform="translate(381.201172 0.16875)" xlink:href="#DejaVuSans-Oblique-109"/>
      <use transform="translate(478.613281 0.16875)" xlink:href="#DejaVuSans-Oblique-101"/>
      <use transform="translate(540.136719 0.16875)" xlink:href="#DejaVuSans-Oblique-110"/>
      <use transform="translate(603.515625 0.16875)" xlink:href="#DejaVuSans-Oblique-116"/>
      <use transform="translate(642.724609 0.16875)" xlink:href="#DejaVuSans-Oblique-97"/>
      <use transform="translate(704.003906 0.16875)" xlink:href="#DejaVuSans-Oblique-114"/>
      <use transform="translate(745.117188 0.16875)" xlink:href="#DejaVuSans-Oblique-121"/>
      <use transform="translate(804.296875 0.16875)" xlink:href="#DejaVuSans-Oblique-32"/>
      <use transform="translate(836.083984 0.16875)" xlink:href="#DejaVuSans-Oblique-67"/>
      <use transform="translate(905.908203 0.16875)" xlink:href="#DejaVuSans-Oblique-117"/>
      <use transform="translate(969.287109 0.16875)" xlink:href="#DejaVuSans-Oblique-109"/>
      <use transform="translate(1066.699219 0.16875)" xlink:href="#DejaVuSans-Oblique-117"/>
      <use transform="translate(1130.078125 0.16875)" xlink:href="#DejaVuSans-Oblique-108"/>
      <use transform="translate(1157.861328 0.16875)" xlink:href="#DejaVuSans-Oblique-97"/>
      <use transform="translate(1219.140625 0.16875)" xlink:href="#DejaVuSans-Oblique-116"/>
      <use transform="translate(1258.349609 0.16875)" xlink:href="#DejaVuSans-Oblique-105"/>
      <use transform="translate(1286.132812 0.16875)" xlink:href="#DejaVuSans-Oblique-118"/>
      <use transform="translate(1345.3125 0.16875)" xlink:href="#DejaVuSans-Oblique-101"/>
      <use transform="translate(1406.835938 0.16875)" xlink:href="#DejaVuSans-Oblique-32"/>
      <use transform="translate(1438.623047 0.16875)" xlink:href="#DejaVuSans-Oblique-78"/>
      <use transform="translate(1513.427734 0.16875)" xlink:href="#DejaVuSans-Oblique-117"/>
      <use transform="translate(1576.806641 0.16875)" xlink:href="#DejaVuSans-Oblique-109"/>
      <use transform="translate(1674.21875 0.16875)" xlink:href="#DejaVuSans-Oblique-98"/>
      <use transform="translate(1737.695312 0.16875)" xlink:href="#DejaVuSans-Oblique-101"/>
      <use transform="translate(1799.21875 0.16875)" xlink:href="#DejaVuSans-Oblique-114"/>
      <use transform="translate(1840.332031 0.16875)" xlink:href="#DejaVuSans-Oblique-32"/>
      <use transform="translate(1872.119141 0.16875)" xlink:href="#DejaVuSans-40"/>
      <use transform="translate(1941.132812 43.965625)scale(0.7)" xlink:href="#DejaVuSans-49"/>
      <use transform="translate(1911.132812 -50.448437)scale(0.7)" xlink:href="#DejaVuSans-Oblique-109"/>
      <use transform="translate(1982.576216 -23.651562)scale(0.49)" xlink:href="#DejaVuSans-50"/>
      <use transform="translate(2028.165572 0.16875)" xlink:href="#DejaVuSans-41"/>
      <path d="M 1911.132812 18.965625 
L 1911.132812 25.215625 
L 2015.665572 25.215625 
L 2015.665572 18.965625 
L 1911.132812 18.965625 
z
"/>
     </g>
    </g>
   </g>
   <g id="line2d_70">
    <path clip-path="url(#pc5abfabfaf)" d="M 214.326806 110.577225 
L 214.390487 110.638493 
L 214.577611 110.818906 
L 215.48521 111.702042 
L 216.053312 112.261724 
L 216.235734 112.442578 
L 216.323553 112.52984 
L 216.453011 112.658712 
L 217.674575 113.888647 
L 218.453396 114.686084 
L 218.592482 114.829596 
L 219.231321 115.493089 
L 219.338056 115.604638 
L 219.83766 116.129448 
L 220.104306 116.411354 
L 220.852832 117.209501 
L 221.249047 117.636062 
L 221.490474 117.897375 
L 221.559938 117.972758 
L 221.756884 118.186962 
L 221.838768 118.27623 
L 221.931291 118.377244 
L 222.065514 118.524066 
L 222.076579 118.536185 
L 222.438018 118.933272 
L 222.669643 119.189014 
L 222.793282 119.325933 
L 223.521895 120.138613 
L 223.656471 120.289808 
L 224.390236 121.120224 
L 224.446464 121.184282 
L 224.729026 121.507108 
L 224.921157 121.727494 
L 225.210633 122.060886 
L 225.456246 122.345036 
L 226.235747 123.254645 
L 226.270839 123.295875 
L 226.287446 123.315395 
L 226.374738 123.41809 
L 226.700182 123.80229 
L 227.16798 124.358236 
L 228.199489 125.599665 
L 228.255927 125.668211 
L 229.409889 127.08409 
L 229.507947 127.205674 
L 230.012418 127.834356 
L 230.258986 128.143578 
L 230.693971 128.692228 
L 231.372288 129.555834 
L 232.68632 131.257069 
L 232.69041 131.262423 
L 232.765798 131.361176 
L 233.509328 132.341877 
L 233.777952 132.699209 
L 234.208628 133.275485 
L 236.672161 136.653229 
L 237.881679 138.363467 
L 238.650207 139.468349 
L 240.505818 142.195634 
L 240.539524 142.245964 
L 241.577581 143.81003 
L 244.744704 148.754108 
L 245.20774 149.499233 
L 245.666713 150.24356 
L 249.537141 156.753928 
L 249.82674 157.258292 
L 252.206707 161.4975 
L 252.993397 162.936444 
L 253.026288 162.997021 
L 254.321207 165.408715 
L 256.51258 169.611434 
L 258.845505 174.258971 
L 261.824079 180.463731 
L 262.762946 182.484753 
L 263.077234 183.16845 
L 264.142079 185.51191 
L 267.720393 193.701228 
L 268.578505 195.739378 
L 270.021568 199.233832 
L 270.671781 200.836257 
L 271.184765 202.112897 
L 271.423459 202.710685 
L 273.26461 207.403133 
L 275.19096 212.470604 
L 279.807097 225.30254 
L 283.254903 235.557316 
L 289.74088 256.534742 
L 292.39295 265.79279 
L 309.385605 335.986654 
L 313.134357 354.360037 
L 314.350191 360.571924 
L 330.810794 458.443347 
" style="fill:none;stroke:#0000ff;stroke-dasharray:5.55,2.4;stroke-dashoffset:0;stroke-width:1.5;"/>
   </g>
   <g id="line2d_71">
    <path clip-path="url(#pc5abfabfaf)" d="M 214.326806 110.577225 
L 214.390487 110.67643 
L 214.577611 110.967987 
L 215.48521 112.383175 
L 216.053312 113.269895 
L 216.235734 113.554774 
L 216.323553 113.691941 
L 216.453011 113.894177 
L 217.674575 115.804233 
L 218.453396 117.023677 
L 218.592482 117.241589 
L 219.231321 118.243015 
L 219.338056 118.410413 
L 219.83766 119.194303 
L 220.104306 119.612893 
L 220.852832 120.788771 
L 221.249047 121.411681 
L 221.490474 121.791406 
L 221.559938 121.900684 
L 221.756884 122.210569 
L 221.838768 122.339433 
L 221.931291 122.485058 
L 222.065514 122.696349 
L 222.076579 122.71377 
L 222.438018 123.28294 
L 222.669643 123.647835 
L 222.793282 123.842659 
L 223.521895 124.991435 
L 223.656471 125.20374 
L 224.390236 126.361999 
L 224.446464 126.450803 
L 224.729026 126.897173 
L 224.921157 127.200784 
L 225.210633 127.658372 
L 225.456246 128.046765 
L 226.235747 129.280263 
L 226.270839 129.335824 
L 226.287446 129.362118 
L 226.374738 129.500341 
L 226.700182 130.015812 
L 227.16798 130.757154 
L 228.199489 132.393494 
L 228.255927 132.48309 
L 229.409889 134.316524 
L 229.507947 134.472452 
L 230.012418 135.274966 
L 230.258986 135.667406 
L 230.693971 136.360049 
L 231.372288 137.440967 
L 232.68632 139.537723 
L 232.69041 139.544255 
L 232.765798 139.664662 
L 233.509328 140.852853 
L 233.777952 141.282416 
L 234.208628 141.971443 
L 236.672161 145.920428 
L 237.881679 147.864017 
L 238.650207 149.100605 
L 240.505818 152.091563 
L 240.539524 152.14596 
L 241.577581 153.822445 
L 244.744704 158.951695 
L 245.20774 159.703399 
L 245.666713 160.44896 
L 249.537141 166.754105 
L 249.82674 167.227171 
L 252.206707 171.121709 
L 252.993397 172.411708 
L 253.026288 172.465672 
L 254.321207 174.59204 
L 256.51258 178.198663 
L 258.845505 182.049586 
L 261.824079 186.983258 
L 262.762946 188.542335 
L 263.077234 189.064664 
L 264.142079 190.83595 
L 267.720393 196.806038 
L 268.578505 198.241809 
L 270.021568 200.659873 
L 270.671781 201.750863 
L 271.184765 202.612238 
L 271.423459 203.013233 
L 273.26461 206.110395 
L 275.19096 209.35868 
L 279.807097 217.175049 
L 283.254903 223.043012 
L 289.74088 234.151061 
L 292.39295 238.719138 
L 309.385605 268.347598 
L 313.134357 274.967678 
L 314.350191 277.121274 
L 330.810794 306.591459 
" style="fill:none;stroke:#00ff00;stroke-dasharray:5.55,2.4;stroke-dashoffset:0;stroke-width:1.5;"/>
   </g>
   <g id="line2d_72">
    <path clip-path="url(#pc5abfabfaf)" d="M 214.326806 110.577225 
L 214.390487 110.679914 
L 214.577611 110.981658 
L 215.48521 112.445192 
L 216.053312 113.361276 
L 216.235734 113.655437 
L 216.323553 113.797048 
L 216.453011 114.005804 
L 217.674575 115.975617 
L 218.453396 117.231492 
L 218.592482 117.455774 
L 219.231321 118.485923 
L 219.338056 118.658036 
L 219.83766 119.463666 
L 220.104306 119.893641 
L 220.852832 121.100665 
L 221.249047 121.739575 
L 221.490474 122.128884 
L 221.559938 122.240898 
L 221.756884 122.55848 
L 221.838768 122.690519 
L 221.931291 122.839716 
L 222.065514 123.056154 
L 222.076579 123.073999 
L 222.438018 123.656831 
L 222.669643 124.030334 
L 222.793282 124.229706 
L 223.521895 125.404619 
L 223.656471 125.621628 
L 224.390236 126.804849 
L 224.446464 126.895518 
L 224.729026 127.351159 
L 224.921157 127.660977 
L 225.210633 128.127766 
L 225.456246 128.523825 
L 226.235747 129.780798 
L 226.270839 129.837385 
L 226.287446 129.864164 
L 226.374738 130.004926 
L 226.700182 130.529715 
L 227.16798 131.284055 
L 228.199489 132.947399 
L 228.255927 133.038406 
L 229.409889 134.899209 
L 229.507947 135.057331 
L 230.012418 135.870808 
L 230.258986 136.268407 
L 230.693971 136.969835 
L 231.372288 138.063644 
L 232.68632 140.182566 
L 232.69041 140.189161 
L 232.765798 140.310727 
L 233.509328 141.509694 
L 233.777952 141.942859 
L 234.208628 142.637338 
L 236.672161 146.60987 
L 237.881679 148.560258 
L 238.650207 149.799536 
L 240.505818 152.791771 
L 240.539524 152.846123 
L 241.577581 154.520026 
L 244.744704 159.627118 
L 245.20774 160.373781 
L 245.666713 161.113889 
L 249.537141 167.355086 
L 249.82674 167.822075 
L 252.206707 171.659852 
L 252.993397 172.928416 
L 253.026288 172.981454 
L 254.321207 175.069555 
L 256.51258 178.603219 
L 258.845505 182.365138 
L 261.824079 187.16819 
L 262.762946 188.682145 
L 263.077234 189.188946 
L 264.142079 190.906045 
L 267.720393 196.676197 
L 268.578505 198.059932 
L 270.021568 200.38692 
L 270.671781 201.435411 
L 271.184765 202.262615 
L 271.423459 202.647517 
L 273.26461 205.616435 
L 275.19096 208.72274 
L 279.807097 216.166418 
L 283.254903 221.726122 
L 289.74088 232.184979 
L 292.39295 236.461533 
L 309.385605 263.862767 
L 313.134357 269.907756 
L 314.350191 271.868328 
L 330.810794 298.411611 
" style="fill:none;stroke:#ff0000;stroke-dasharray:5.55,2.4;stroke-dashoffset:0;stroke-width:1.5;"/>
   </g>
   <g id="patch_3">
    <path d="M 77.2688 400.750875 
L 77.2688 12.670875 
" style="fill:none;stroke:#000000;stroke-linecap:square;stroke-linejoin:miter;stroke-width:0.8;"/>
   </g>
   <g id="patch_4">
    <path d="M 467.8688 400.750875 
L 467.8688 12.670875 
" style="fill:none;stroke:#000000;stroke-linecap:square;stroke-linejoin:miter;stroke-width:0.8;"/>
   </g>
   <g id="patch_5">
    <path d="M 77.2688 400.750875 
L 467.8688 400.750875 
" style="fill:none;stroke:#000000;stroke-linecap:square;stroke-linejoin:miter;stroke-width:0.8;"/>
   </g>
   <g id="patch_6">
    <path d="M 77.2688 12.670875 
L 467.8688 12.670875 
" style="fill:none;stroke:#000000;stroke-linecap:square;stroke-linejoin:miter;stroke-width:0.8;"/>
   </g>
   <g id="legend_1">
    <g id="patch_7">
     <path d="M 503.821113 51.830525 
L 724.960488 51.830525 
Q 727.360488 51.830525 727.360488 49.430525 
L 727.360488 15.309275 
Q 727.360488 12.909275 724.960488 12.909275 
L 503.821113 12.909275 
Q 501.421113 12.909275 501.421113 15.309275 
L 501.421113 49.430525 
Q 501.421113 51.830525 503.821113 51.830525 
z
" style="fill:#4c4c4c;opacity:0.5;stroke:#4c4c4c;stroke-linejoin:miter;"/>
    </g>
    <g id="patch_8">
     <path d="M 501.821113 49.830525 
L 722.960488 49.830525 
Q 725.360488 49.830525 725.360488 47.430525 
L 725.360488 13.309275 
Q 725.360488 10.909275 722.960488 10.909275 
L 501.821113 10.909275 
Q 499.421113 10.909275 499.421113 13.309275 
L 499.421113 47.430525 
Q 499.421113 49.830525 501.821113 49.830525 
z
" style="fill:#ffffff;stroke:#cccccc;stroke-linejoin:miter;"/>
    </g>
    <g id="line2d_73">
     <path d="M 504.221113 20.6274 
L 528.221113 20.6274 
" style="fill:none;stroke:#0000ff;stroke-dasharray:11.1,4.8;stroke-dashoffset:0;stroke-width:3;"/>
    </g>
    <g id="line2d_74"/>
    <g id="text_10">
     <!-- Exponential -->
     <g transform="translate(537.821113 24.8274)scale(0.12 -0.12)">
      <defs>
       <path d="M 9.1875 72.90625 
L 59.90625 72.90625 
L 59.90625 58.6875 
L 27.984375 58.6875 
L 27.984375 45.125 
L 58.015625 45.125 
L 58.015625 30.90625 
L 27.984375 30.90625 
L 27.984375 14.203125 
L 60.984375 14.203125 
L 60.984375 0 
L 9.1875 0 
z
" id="DejaVuSans-Bold-69"/>
       <path d="M 22.21875 27.984375 
L 2.484375 54.6875 
L 21 54.6875 
L 32.171875 38.484375 
L 43.5 54.6875 
L 62.015625 54.6875 
L 42.28125 28.078125 
L 62.984375 0 
L 44.484375 0 
L 32.171875 17.28125 
L 20.015625 0 
L 1.515625 0 
z
" id="DejaVuSans-Bold-120"/>
       <path d="M 25.875 7.90625 
L 25.875 -20.796875 
L 8.40625 -20.796875 
L 8.40625 54.6875 
L 25.875 54.6875 
L 25.875 46.6875 
Q 29.5 51.46875 33.890625 53.734375 
Q 38.28125 56 44 56 
Q 54.109375 56 60.59375 47.96875 
Q 67.09375 39.9375 67.09375 27.296875 
Q 67.09375 14.65625 60.59375 6.609375 
Q 54.109375 -1.421875 44 -1.421875 
Q 38.28125 -1.421875 33.890625 0.84375 
Q 29.5 3.125 25.875 7.90625 
z
M 37.5 43.3125 
Q 31.890625 43.3125 28.875 39.1875 
Q 25.875 35.0625 25.875 27.296875 
Q 25.875 19.53125 28.875 15.40625 
Q 31.890625 11.28125 37.5 11.28125 
Q 43.109375 11.28125 46.0625 15.375 
Q 49.03125 19.484375 49.03125 27.296875 
Q 49.03125 35.109375 46.0625 39.203125 
Q 43.109375 43.3125 37.5 43.3125 
z
" id="DejaVuSans-Bold-112"/>
       <path d="M 34.421875 43.5 
Q 28.609375 43.5 25.5625 39.328125 
Q 22.515625 35.15625 22.515625 27.296875 
Q 22.515625 19.4375 25.5625 15.25 
Q 28.609375 11.078125 34.421875 11.078125 
Q 40.140625 11.078125 43.15625 15.25 
Q 46.1875 19.4375 46.1875 27.296875 
Q 46.1875 35.15625 43.15625 39.328125 
Q 40.140625 43.5 34.421875 43.5 
z
M 34.421875 56 
Q 48.53125 56 56.46875 48.375 
Q 64.40625 40.765625 64.40625 27.296875 
Q 64.40625 13.8125 56.46875 6.1875 
Q 48.53125 -1.421875 34.421875 -1.421875 
Q 20.265625 -1.421875 12.28125 6.1875 
Q 4.296875 13.8125 4.296875 27.296875 
Q 4.296875 40.765625 12.28125 48.375 
Q 20.265625 56 34.421875 56 
z
" id="DejaVuSans-Bold-111"/>
       <path d="M 63.375 33.296875 
L 63.375 0 
L 45.796875 0 
L 45.796875 5.421875 
L 45.796875 25.484375 
Q 45.796875 32.5625 45.484375 35.25 
Q 45.171875 37.9375 44.390625 39.203125 
Q 43.359375 40.921875 41.59375 41.875 
Q 39.84375 42.828125 37.59375 42.828125 
Q 32.125 42.828125 29 38.59375 
Q 25.875 34.375 25.875 26.90625 
L 25.875 0 
L 8.40625 0 
L 8.40625 54.6875 
L 25.875 54.6875 
L 25.875 46.6875 
Q 29.828125 51.46875 34.265625 53.734375 
Q 38.71875 56 44.09375 56 
Q 53.5625 56 58.46875 50.1875 
Q 63.375 44.390625 63.375 33.296875 
z
" id="DejaVuSans-Bold-110"/>
       <path d="M 62.984375 27.484375 
L 62.984375 22.515625 
L 22.125 22.515625 
Q 22.75 16.359375 26.5625 13.28125 
Q 30.375 10.203125 37.203125 10.203125 
Q 42.71875 10.203125 48.5 11.84375 
Q 54.296875 13.484375 60.40625 16.796875 
L 60.40625 3.328125 
Q 54.203125 0.984375 48 -0.21875 
Q 41.796875 -1.421875 35.59375 -1.421875 
Q 20.75 -1.421875 12.515625 6.125 
Q 4.296875 13.671875 4.296875 27.296875 
Q 4.296875 40.671875 12.375 48.328125 
Q 20.453125 56 34.625 56 
Q 47.515625 56 55.25 48.234375 
Q 62.984375 40.484375 62.984375 27.484375 
z
M 45.015625 33.296875 
Q 45.015625 38.28125 42.109375 41.328125 
Q 39.203125 44.390625 34.515625 44.390625 
Q 29.4375 44.390625 26.265625 41.53125 
Q 23.09375 38.671875 22.3125 33.296875 
z
" id="DejaVuSans-Bold-101"/>
       <path d="M 27.484375 70.21875 
L 27.484375 54.6875 
L 45.515625 54.6875 
L 45.515625 42.1875 
L 27.484375 42.1875 
L 27.484375 19 
Q 27.484375 15.1875 29 13.84375 
Q 30.515625 12.5 35.015625 12.5 
L 44 12.5 
L 44 0 
L 29 0 
Q 18.65625 0 14.328125 4.3125 
Q 10.015625 8.640625 10.015625 19 
L 10.015625 42.1875 
L 1.3125 42.1875 
L 1.3125 54.6875 
L 10.015625 54.6875 
L 10.015625 70.21875 
z
" id="DejaVuSans-Bold-116"/>
       <path d="M 8.40625 54.6875 
L 25.875 54.6875 
L 25.875 0 
L 8.40625 0 
z
M 8.40625 75.984375 
L 25.875 75.984375 
L 25.875 61.71875 
L 8.40625 61.71875 
z
" id="DejaVuSans-Bold-105"/>
       <path d="M 32.90625 24.609375 
Q 27.4375 24.609375 24.671875 22.75 
Q 21.921875 20.90625 21.921875 17.28125 
Q 21.921875 13.96875 24.140625 12.078125 
Q 26.375 10.203125 30.328125 10.203125 
Q 35.25 10.203125 38.625 13.734375 
Q 42 17.28125 42 22.609375 
L 42 24.609375 
z
M 59.625 31.203125 
L 59.625 0 
L 42 0 
L 42 8.109375 
Q 38.484375 3.125 34.078125 0.84375 
Q 29.6875 -1.421875 23.390625 -1.421875 
Q 14.890625 -1.421875 9.59375 3.53125 
Q 4.296875 8.5 4.296875 16.40625 
Q 4.296875 26.03125 10.90625 30.515625 
Q 17.53125 35.015625 31.6875 35.015625 
L 42 35.015625 
L 42 36.375 
Q 42 40.53125 38.71875 42.453125 
Q 35.453125 44.390625 28.515625 44.390625 
Q 22.90625 44.390625 18.0625 43.265625 
Q 13.234375 42.140625 9.078125 39.890625 
L 9.078125 53.21875 
Q 14.703125 54.59375 20.359375 55.296875 
Q 26.03125 56 31.6875 56 
Q 46.484375 56 53.046875 50.171875 
Q 59.625 44.34375 59.625 31.203125 
z
" id="DejaVuSans-Bold-97"/>
       <path d="M 8.40625 75.984375 
L 25.875 75.984375 
L 25.875 0 
L 8.40625 0 
z
" id="DejaVuSans-Bold-108"/>
      </defs>
      <use xlink:href="#DejaVuSans-Bold-69"/>
      <use x="68.310547" xlink:href="#DejaVuSans-Bold-120"/>
      <use x="132.8125" xlink:href="#DejaVuSans-Bold-112"/>
      <use x="204.394531" xlink:href="#DejaVuSans-Bold-111"/>
      <use x="273.095703" xlink:href="#DejaVuSans-Bold-110"/>
      <use x="344.287109" xlink:href="#DejaVuSans-Bold-101"/>
      <use x="412.109375" xlink:href="#DejaVuSans-Bold-110"/>
      <use x="483.300781" xlink:href="#DejaVuSans-Bold-116"/>
      <use x="531.103516" xlink:href="#DejaVuSans-Bold-105"/>
      <use x="565.380859" xlink:href="#DejaVuSans-Bold-97"/>
      <use x="632.861328" xlink:href="#DejaVuSans-Bold-108"/>
     </g>
    </g>
    <g id="line2d_75">
     <path d="M 504.221113 38.24115 
L 528.221113 38.24115 
" style="fill:none;stroke:#00ff00;stroke-dasharray:11.1,4.8;stroke-dashoffset:0;stroke-width:3;"/>
    </g>
    <g id="line2d_76"/>
    <g id="text_11">
     <!-- Lognormal -->
     <g transform="translate(537.821113 42.44115)scale(0.12 -0.12)">
      <defs>
       <path d="M 9.1875 72.90625 
L 27.984375 72.90625 
L 27.984375 14.203125 
L 60.984375 14.203125 
L 60.984375 0 
L 9.1875 0 
z
" id="DejaVuSans-Bold-76"/>
       <path d="M 45.609375 9.28125 
Q 42 4.5 37.640625 2.25 
Q 33.296875 0 27.59375 0 
Q 17.578125 0 11.03125 7.875 
Q 4.5 15.765625 4.5 27.984375 
Q 4.5 40.234375 11.03125 48.0625 
Q 17.578125 55.90625 27.59375 55.90625 
Q 33.296875 55.90625 37.640625 53.65625 
Q 42 51.421875 45.609375 46.578125 
L 45.609375 54.6875 
L 63.1875 54.6875 
L 63.1875 5.515625 
Q 63.1875 -7.671875 54.859375 -14.625 
Q 46.53125 -21.578125 30.71875 -21.578125 
Q 25.59375 -21.578125 20.796875 -20.796875 
Q 16.015625 -20.015625 11.1875 -18.40625 
L 11.1875 -4.78125 
Q 15.765625 -7.421875 20.15625 -8.71875 
Q 24.5625 -10.015625 29 -10.015625 
Q 37.59375 -10.015625 41.59375 -6.25 
Q 45.609375 -2.484375 45.609375 5.515625 
z
M 34.078125 43.3125 
Q 28.65625 43.3125 25.625 39.296875 
Q 22.609375 35.296875 22.609375 27.984375 
Q 22.609375 20.453125 25.53125 16.578125 
Q 28.46875 12.703125 34.078125 12.703125 
Q 39.546875 12.703125 42.578125 16.703125 
Q 45.609375 20.703125 45.609375 27.984375 
Q 45.609375 35.296875 42.578125 39.296875 
Q 39.546875 43.3125 34.078125 43.3125 
z
" id="DejaVuSans-Bold-103"/>
       <path d="M 49.03125 39.796875 
Q 46.734375 40.875 44.453125 41.375 
Q 42.1875 41.890625 39.890625 41.890625 
Q 33.15625 41.890625 29.515625 37.5625 
Q 25.875 33.25 25.875 25.203125 
L 25.875 0 
L 8.40625 0 
L 8.40625 54.6875 
L 25.875 54.6875 
L 25.875 45.703125 
Q 29.25 51.078125 33.609375 53.53125 
Q 37.984375 56 44.09375 56 
Q 44.96875 56 45.984375 55.921875 
Q 47.015625 55.859375 48.96875 55.609375 
z
" id="DejaVuSans-Bold-114"/>
       <path d="M 59.078125 45.609375 
Q 62.40625 50.6875 66.96875 53.34375 
Q 71.53125 56 77 56 
Q 86.421875 56 91.359375 50.1875 
Q 96.296875 44.390625 96.296875 33.296875 
L 96.296875 0 
L 78.71875 0 
L 78.71875 28.515625 
Q 78.765625 29.15625 78.78125 29.828125 
Q 78.8125 30.515625 78.8125 31.78125 
Q 78.8125 37.59375 77.09375 40.203125 
Q 75.390625 42.828125 71.578125 42.828125 
Q 66.609375 42.828125 63.890625 38.71875 
Q 61.1875 34.625 61.078125 26.859375 
L 61.078125 0 
L 43.5 0 
L 43.5 28.515625 
Q 43.5 37.59375 41.9375 40.203125 
Q 40.375 42.828125 36.375 42.828125 
Q 31.34375 42.828125 28.609375 38.703125 
Q 25.875 34.578125 25.875 26.90625 
L 25.875 0 
L 8.296875 0 
L 8.296875 54.6875 
L 25.875 54.6875 
L 25.875 46.6875 
Q 29.109375 51.3125 33.28125 53.65625 
Q 37.453125 56 42.484375 56 
Q 48.140625 56 52.484375 53.265625 
Q 56.84375 50.53125 59.078125 45.609375 
z
" id="DejaVuSans-Bold-109"/>
      </defs>
      <use xlink:href="#DejaVuSans-Bold-76"/>
      <use x="63.720703" xlink:href="#DejaVuSans-Bold-111"/>
      <use x="132.421875" xlink:href="#DejaVuSans-Bold-103"/>
      <use x="204.003906" xlink:href="#DejaVuSans-Bold-110"/>
      <use x="275.195312" xlink:href="#DejaVuSans-Bold-111"/>
      <use x="343.896484" xlink:href="#DejaVuSans-Bold-114"/>
      <use x="393.212891" xlink:href="#DejaVuSans-Bold-109"/>
      <use x="497.412109" xlink:href="#DejaVuSans-Bold-97"/>
      <use x="564.892578" xlink:href="#DejaVuSans-Bold-108"/>
     </g>
    </g>
    <g id="line2d_77">
     <path d="M 621.477988 20.6274 
L 645.477988 20.6274 
" style="fill:none;stroke:#ff0000;stroke-dasharray:11.1,4.8;stroke-dashoffset:0;stroke-width:3;"/>
    </g>
    <g id="line2d_78"/>
    <g id="text_12">
     <!-- Powerlaw -->
     <g transform="translate(655.077988 24.8274)scale(0.12 -0.12)">
      <defs>
       <path d="M 9.1875 72.90625 
L 40.375 72.90625 
Q 54.296875 72.90625 61.734375 66.71875 
Q 69.1875 60.546875 69.1875 49.125 
Q 69.1875 37.640625 61.734375 31.46875 
Q 54.296875 25.296875 40.375 25.296875 
L 27.984375 25.296875 
L 27.984375 0 
L 9.1875 0 
z
M 27.984375 59.28125 
L 27.984375 38.921875 
L 38.375 38.921875 
Q 43.84375 38.921875 46.828125 41.578125 
Q 49.8125 44.234375 49.8125 49.125 
Q 49.8125 54 46.828125 56.640625 
Q 43.84375 59.28125 38.375 59.28125 
z
" id="DejaVuSans-Bold-80"/>
       <path d="M 3.515625 54.6875 
L 20.515625 54.6875 
L 29.6875 17 
L 38.921875 54.6875 
L 53.515625 54.6875 
L 62.703125 17.390625 
L 71.921875 54.6875 
L 88.921875 54.6875 
L 74.515625 0 
L 55.421875 0 
L 46.1875 37.59375 
L 37.015625 0 
L 17.921875 0 
z
" id="DejaVuSans-Bold-119"/>
      </defs>
      <use xlink:href="#DejaVuSans-Bold-80"/>
      <use x="73.291016" xlink:href="#DejaVuSans-Bold-111"/>
      <use x="141.992188" xlink:href="#DejaVuSans-Bold-119"/>
      <use x="234.375" xlink:href="#DejaVuSans-Bold-101"/>
      <use x="302.197266" xlink:href="#DejaVuSans-Bold-114"/>
      <use x="351.513672" xlink:href="#DejaVuSans-Bold-108"/>
      <use x="385.791016" xlink:href="#DejaVuSans-Bold-97"/>
      <use x="453.271484" xlink:href="#DejaVuSans-Bold-119"/>
     </g>
    </g>
    <g id="PathCollection_2">
     <defs>
      <path d="M 0 3.535534 
C 0.937635 3.535534 1.836992 3.163008 2.5 2.5 
C 3.163008 1.836992 3.535534 0.937635 3.535534 0 
C 3.535534 -0.937635 3.163008 -1.836992 2.5 -2.5 
C 1.836992 -3.163008 0.937635 -3.535534 0 -3.535534 
C -0.937635 -3.535534 -1.836992 -3.163008 -2.5 -2.5 
C -3.163008 -1.836992 -3.535534 -0.937635 -3.535534 0 
C -3.535534 0.937635 -3.163008 1.836992 -2.5 2.5 
C -1.836992 3.163008 -0.937635 3.535534 0 3.535534 
z
" id="me707d6798c" style="stroke:#1f77b4;stroke-width:3;"/>
     </defs>
     <g>
      <use style="fill:#1f77b4;stroke:#1f77b4;stroke-width:3;" x="633.477988" xlink:href="#me707d6798c" y="39.29115"/>
     </g>
    </g>
    <g id="text_13">
     <!-- KB11 -->
     <g transform="translate(655.077988 42.44115)scale(0.12 -0.12)">
      <defs>
       <path d="M 9.1875 72.90625 
L 27.984375 72.90625 
L 27.984375 46.296875 
L 55.078125 72.90625 
L 76.90625 72.90625 
L 41.796875 38.375 
L 80.515625 0 
L 56.984375 0 
L 27.984375 28.71875 
L 27.984375 0 
L 9.1875 0 
z
" id="DejaVuSans-Bold-75"/>
       <path d="M 38.375 44.671875 
Q 42.828125 44.671875 45.109375 46.625 
Q 47.40625 48.578125 47.40625 52.390625 
Q 47.40625 56.15625 45.109375 58.125 
Q 42.828125 60.109375 38.375 60.109375 
L 27.984375 60.109375 
L 27.984375 44.671875 
z
M 39.015625 12.796875 
Q 44.671875 12.796875 47.53125 15.1875 
Q 50.390625 17.578125 50.390625 22.40625 
Q 50.390625 27.15625 47.5625 29.515625 
Q 44.734375 31.890625 39.015625 31.890625 
L 27.984375 31.890625 
L 27.984375 12.796875 
z
M 56.5 39.015625 
Q 62.546875 37.25 65.859375 32.515625 
Q 69.1875 27.78125 69.1875 20.90625 
Q 69.1875 10.359375 62.0625 5.171875 
Q 54.9375 0 40.375 0 
L 9.1875 0 
L 9.1875 72.90625 
L 37.40625 72.90625 
Q 52.59375 72.90625 59.40625 68.3125 
Q 66.21875 63.71875 66.21875 53.609375 
Q 66.21875 48.296875 63.71875 44.5625 
Q 61.234375 40.828125 56.5 39.015625 
z
" id="DejaVuSans-Bold-66"/>
       <path d="M 11.71875 12.984375 
L 28.328125 12.984375 
L 28.328125 60.109375 
L 11.28125 56.59375 
L 11.28125 69.390625 
L 28.21875 72.90625 
L 46.09375 72.90625 
L 46.09375 12.984375 
L 62.703125 12.984375 
L 62.703125 0 
L 11.71875 0 
z
" id="DejaVuSans-Bold-49"/>
      </defs>
      <use xlink:href="#DejaVuSans-Bold-75"/>
      <use x="77.490234" xlink:href="#DejaVuSans-Bold-66"/>
      <use x="153.710938" xlink:href="#DejaVuSans-Bold-49"/>
      <use x="223.291016" xlink:href="#DejaVuSans-Bold-49"/>
     </g>
    </g>
   </g>
  </g>
 </g>
 <defs>
  <clipPath id="pc5abfabfaf">
   <rect height="388.08" width="390.6" x="77.2688" y="12.670875"/>
  </clipPath>
 </defs>
</svg>
