<?xml version="1.0" encoding="utf-8" standalone="no"?>
<!DOCTYPE svg PUBLIC "-//W3C//DTD SVG 1.1//EN"
  "http://www.w3.org/Graphics/SVG/1.1/DTD/svg11.dtd">
<!-- Created with matplotlib (https://matplotlib.org/) -->
<svg height="342.488627pt" version="1.1" viewBox="0 0 337.720297 342.488627" width="337.720297pt" xmlns="http://www.w3.org/2000/svg" xmlns:xlink="http://www.w3.org/1999/xlink">
 <metadata>
  <rdf:RDF xmlns:cc="http://creativecommons.org/ns#" xmlns:dc="http://purl.org/dc/elements/1.1/" xmlns:rdf="http://www.w3.org/1999/02/22-rdf-syntax-ns#">
   <cc:Work>
    <dc:type rdf:resource="http://purl.org/dc/dcmitype/StillImage"/>
    <dc:date>2020-12-11T14:49:15.606622</dc:date>
    <dc:format>image/svg+xml</dc:format>
    <dc:creator>
     <cc:Agent>
      <dc:title>Matplotlib v3.3.3, https://matplotlib.org/</dc:title>
     </cc:Agent>
    </dc:creator>
   </cc:Work>
  </rdf:RDF>
 </metadata>
 <defs>
  <style type="text/css">*{stroke-linecap:butt;stroke-linejoin:round;}</style>
 </defs>
 <g id="figure_1">
  <g id="patch_1">
   <path d="M 0 342.488627 
L 337.720297 342.488627 
L 337.720297 0 
L 0 0 
z
" style="fill:#ffffff;"/>
  </g>
  <g id="axes_1">
   <g id="patch_2">
    <path d="M 77.886 312.616314 
C 115.365806 312.616314 151.348875 297.711638 177.8511 271.209414 
C 204.353325 244.707189 219.258 208.72412 219.258 171.244314 
C 219.258 133.764508 204.353325 97.781439 177.8511 71.279214 
C 151.348875 44.776989 115.365806 29.872314 77.886 29.872314 
L 77.886 171.244314 
C 77.886 171.244314 77.886 171.244314 77.886 171.244314 
C 77.886 171.244314 77.886 171.244314 77.886 171.244314 
C 77.886 171.244314 77.886 171.244314 77.886 171.244314 
C 77.886 171.244314 77.886 171.244314 77.886 171.244314 
L 77.886 312.616314 
z
" style="fill:#ffffff;"/>
   </g>
   <g id="matplotlib.axis_1">
    <g id="xtick_1">
     <g id="text_1">
      <!-- 0° -->
      <g style="opacity:0.95;" transform="translate(68.917641 18.597656)scale(0.15 -0.15)">
       <defs>
        <path d="M 46 36.53125 
Q 46 50.203125 43.4375 55.78125 
Q 40.875 61.375 34.8125 61.375 
Q 28.765625 61.375 26.171875 55.78125 
Q 23.578125 50.203125 23.578125 36.53125 
Q 23.578125 22.703125 26.171875 17.03125 
Q 28.765625 11.375 34.8125 11.375 
Q 40.828125 11.375 43.40625 17.03125 
Q 46 22.703125 46 36.53125 
z
M 64.796875 36.375 
Q 64.796875 18.265625 56.984375 8.421875 
Q 49.171875 -1.421875 34.8125 -1.421875 
Q 20.40625 -1.421875 12.59375 8.421875 
Q 4.78125 18.265625 4.78125 36.375 
Q 4.78125 54.546875 12.59375 64.375 
Q 20.40625 74.21875 34.8125 74.21875 
Q 49.171875 74.21875 56.984375 64.375 
Q 64.796875 54.546875 64.796875 36.375 
z
" id="DejaVuSans-Bold-48"/>
        <path d="M 25 67 
Q 21.484375 67 19.046875 64.546875 
Q 16.609375 62.109375 16.609375 58.59375 
Q 16.609375 55.078125 19.015625 52.6875 
Q 21.4375 50.296875 25 50.296875 
Q 28.515625 50.296875 30.953125 52.703125 
Q 33.40625 55.125 33.40625 58.59375 
Q 33.40625 62.109375 30.9375 64.546875 
Q 28.46875 67 25 67 
z
M 25 74.90625 
Q 28.21875 74.90625 31.203125 73.65625 
Q 34.1875 72.40625 36.53125 70.125 
Q 38.8125 67.78125 40.015625 64.84375 
Q 41.21875 61.921875 41.21875 58.59375 
Q 41.21875 55.328125 40.015625 52.375 
Q 38.8125 49.421875 36.625 47.21875 
Q 34.28125 44.875 31.25 43.625 
Q 28.21875 42.390625 24.90625 42.390625 
Q 18.015625 42.390625 13.34375 47.046875 
Q 8.6875 51.703125 8.6875 58.59375 
Q 8.6875 65.484375 13.390625 70.1875 
Q 18.109375 74.90625 25 74.90625 
z
" id="DejaVuSans-Bold-176"/>
       </defs>
       <use xlink:href="#DejaVuSans-Bold-48"/>
       <use x="69.580078" xlink:href="#DejaVuSans-Bold-176"/>
      </g>
     </g>
    </g>
    <g id="xtick_2">
     <g id="text_2">
      <!-- 45° -->
      <g style="opacity:0.95;" transform="translate(174.563527 64.51913)scale(0.15 -0.15)">
       <defs>
        <path d="M 36.8125 57.421875 
L 16.21875 26.90625 
L 36.8125 26.90625 
z
M 33.6875 72.90625 
L 54.59375 72.90625 
L 54.59375 26.90625 
L 64.984375 26.90625 
L 64.984375 13.28125 
L 54.59375 13.28125 
L 54.59375 0 
L 36.8125 0 
L 36.8125 13.28125 
L 4.5 13.28125 
L 4.5 29.390625 
z
" id="DejaVuSans-Bold-52"/>
        <path d="M 10.59375 72.90625 
L 57.328125 72.90625 
L 57.328125 59.078125 
L 25.59375 59.078125 
L 25.59375 47.796875 
Q 27.734375 48.390625 29.90625 48.703125 
Q 32.078125 49.03125 34.421875 49.03125 
Q 47.75 49.03125 55.171875 42.359375 
Q 62.59375 35.6875 62.59375 23.78125 
Q 62.59375 11.96875 54.515625 5.265625 
Q 46.4375 -1.421875 32.078125 -1.421875 
Q 25.875 -1.421875 19.796875 -0.21875 
Q 13.71875 0.984375 7.71875 3.421875 
L 7.71875 18.21875 
Q 13.671875 14.796875 19.015625 13.078125 
Q 24.359375 11.375 29.109375 11.375 
Q 35.9375 11.375 39.859375 14.71875 
Q 43.796875 18.0625 43.796875 23.78125 
Q 43.796875 29.546875 39.859375 32.859375 
Q 35.9375 36.1875 29.109375 36.1875 
Q 25.046875 36.1875 20.453125 35.125 
Q 15.875 34.078125 10.59375 31.890625 
z
" id="DejaVuSans-Bold-53"/>
       </defs>
       <use xlink:href="#DejaVuSans-Bold-52"/>
       <use x="69.580078" xlink:href="#DejaVuSans-Bold-53"/>
       <use x="139.160156" xlink:href="#DejaVuSans-Bold-176"/>
      </g>
     </g>
    </g>
    <g id="xtick_3">
     <g id="text_3">
      <!-- 90° -->
      <g style="opacity:0.95;" transform="translate(220.485001 175.383376)scale(0.15 -0.15)">
       <defs>
        <path d="M 10.015625 1.609375 
L 10.015625 15.09375 
Q 14.5 12.984375 18.59375 11.9375 
Q 22.703125 10.890625 26.703125 10.890625 
Q 35.109375 10.890625 39.796875 15.546875 
Q 44.484375 20.21875 45.3125 29.390625 
Q 42 26.953125 38.234375 25.734375 
Q 34.46875 24.515625 30.078125 24.515625 
Q 18.890625 24.515625 12.03125 31.03125 
Q 5.171875 37.546875 5.171875 48.1875 
Q 5.171875 59.96875 12.8125 67.046875 
Q 20.453125 74.125 33.296875 74.125 
Q 47.5625 74.125 55.375 64.5 
Q 63.1875 54.890625 63.1875 37.3125 
Q 63.1875 19.234375 54.046875 8.90625 
Q 44.921875 -1.421875 29 -1.421875 
Q 23.875 -1.421875 19.1875 -0.65625 
Q 14.5 0.09375 10.015625 1.609375 
z
M 33.203125 36.71875 
Q 38.140625 36.71875 40.625 39.90625 
Q 43.109375 43.109375 43.109375 49.515625 
Q 43.109375 55.859375 40.625 59.078125 
Q 38.140625 62.3125 33.203125 62.3125 
Q 28.265625 62.3125 25.78125 59.078125 
Q 23.296875 55.859375 23.296875 49.515625 
Q 23.296875 43.109375 25.78125 39.90625 
Q 28.265625 36.71875 33.203125 36.71875 
z
" id="DejaVuSans-Bold-57"/>
       </defs>
       <use xlink:href="#DejaVuSans-Bold-57"/>
       <use x="69.580078" xlink:href="#DejaVuSans-Bold-48"/>
       <use x="139.160156" xlink:href="#DejaVuSans-Bold-176"/>
      </g>
     </g>
    </g>
    <g id="xtick_4">
     <g id="text_4">
      <!-- 135° -->
      <g style="opacity:0.95;" transform="translate(169.345168 286.247622)scale(0.15 -0.15)">
       <defs>
        <path d="M 11.71875 12.984375 
L 28.328125 12.984375 
L 28.328125 60.109375 
L 11.28125 56.59375 
L 11.28125 69.390625 
L 28.21875 72.90625 
L 46.09375 72.90625 
L 46.09375 12.984375 
L 62.703125 12.984375 
L 62.703125 0 
L 11.71875 0 
z
" id="DejaVuSans-Bold-49"/>
        <path d="M 46.578125 39.3125 
Q 53.953125 37.40625 57.78125 32.6875 
Q 61.625 27.984375 61.625 20.703125 
Q 61.625 9.859375 53.3125 4.21875 
Q 45.015625 -1.421875 29.109375 -1.421875 
Q 23.484375 -1.421875 17.84375 -0.515625 
Q 12.203125 0.390625 6.6875 2.203125 
L 6.6875 16.703125 
Q 11.96875 14.0625 17.15625 12.71875 
Q 22.359375 11.375 27.390625 11.375 
Q 34.859375 11.375 38.84375 13.953125 
Q 42.828125 16.546875 42.828125 21.390625 
Q 42.828125 26.375 38.75 28.9375 
Q 34.671875 31.5 26.703125 31.5 
L 19.1875 31.5 
L 19.1875 43.609375 
L 27.09375 43.609375 
Q 34.1875 43.609375 37.640625 45.828125 
Q 41.109375 48.046875 41.109375 52.59375 
Q 41.109375 56.78125 37.734375 59.078125 
Q 34.375 61.375 28.21875 61.375 
Q 23.6875 61.375 19.046875 60.34375 
Q 14.40625 59.328125 9.8125 57.328125 
L 9.8125 71.09375 
Q 15.375 72.65625 20.84375 73.4375 
Q 26.3125 74.21875 31.59375 74.21875 
Q 45.796875 74.21875 52.84375 69.546875 
Q 59.90625 64.890625 59.90625 55.515625 
Q 59.90625 49.125 56.53125 45.046875 
Q 53.171875 40.96875 46.578125 39.3125 
z
" id="DejaVuSans-Bold-51"/>
       </defs>
       <use xlink:href="#DejaVuSans-Bold-49"/>
       <use x="69.580078" xlink:href="#DejaVuSans-Bold-51"/>
       <use x="139.160156" xlink:href="#DejaVuSans-Bold-53"/>
       <use x="208.740234" xlink:href="#DejaVuSans-Bold-176"/>
      </g>
     </g>
    </g>
    <g id="xtick_5">
     <g id="text_5">
      <!-- 180° -->
      <g style="opacity:0.95;" transform="translate(58.480922 332.169096)scale(0.15 -0.15)">
       <defs>
        <path d="M 34.8125 32.625 
Q 29.546875 32.625 26.703125 29.734375 
Q 23.875 26.859375 23.875 21.484375 
Q 23.875 16.109375 26.703125 13.25 
Q 29.546875 10.40625 34.8125 10.40625 
Q 40.046875 10.40625 42.828125 13.25 
Q 45.609375 16.109375 45.609375 21.484375 
Q 45.609375 26.90625 42.828125 29.765625 
Q 40.046875 32.625 34.8125 32.625 
z
M 21.09375 38.8125 
Q 14.453125 40.828125 11.078125 44.96875 
Q 7.71875 49.125 7.71875 55.328125 
Q 7.71875 64.546875 14.59375 69.375 
Q 21.484375 74.21875 34.8125 74.21875 
Q 48.046875 74.21875 54.921875 69.40625 
Q 61.8125 64.59375 61.8125 55.328125 
Q 61.8125 49.125 58.421875 44.96875 
Q 55.03125 40.828125 48.390625 38.8125 
Q 55.8125 36.765625 59.59375 32.15625 
Q 63.375 27.546875 63.375 20.515625 
Q 63.375 9.671875 56.171875 4.125 
Q 48.96875 -1.421875 34.8125 -1.421875 
Q 20.609375 -1.421875 13.359375 4.125 
Q 6.109375 9.671875 6.109375 20.515625 
Q 6.109375 27.546875 9.890625 32.15625 
Q 13.671875 36.765625 21.09375 38.8125 
z
M 25.484375 53.421875 
Q 25.484375 49.078125 27.90625 46.734375 
Q 30.328125 44.390625 34.8125 44.390625 
Q 39.203125 44.390625 41.59375 46.734375 
Q 44 49.078125 44 53.421875 
Q 44 57.765625 41.59375 60.078125 
Q 39.203125 62.40625 34.8125 62.40625 
Q 30.328125 62.40625 27.90625 60.0625 
Q 25.484375 57.71875 25.484375 53.421875 
z
" id="DejaVuSans-Bold-56"/>
       </defs>
       <use xlink:href="#DejaVuSans-Bold-49"/>
       <use x="69.580078" xlink:href="#DejaVuSans-Bold-56"/>
       <use x="139.160156" xlink:href="#DejaVuSans-Bold-48"/>
       <use x="208.740234" xlink:href="#DejaVuSans-Bold-176"/>
      </g>
     </g>
    </g>
   </g>
   <g id="matplotlib.axis_2">
    <g id="ytick_1"/>
   </g>
   <g id="patch_3">
    <path d="M 77.886 312.616314 
C 115.365806 312.616314 151.348875 297.711638 177.8511 271.209414 
C 204.353325 244.707189 219.258 208.72412 219.258 171.244314 
C 219.258 133.764508 204.353325 97.781439 177.8511 71.279214 
C 151.348875 44.776989 115.365806 29.872314 77.886 29.872314 
" style="fill:none;stroke:#000000;stroke-linecap:square;stroke-linejoin:miter;stroke-width:0.8;"/>
   </g>
   <g id="patch_4">
    <path d="M 77.886 171.244314 
L 77.886 29.872314 
" style="fill:none;stroke:#000000;stroke-linecap:square;stroke-linejoin:miter;stroke-width:0.8;"/>
   </g>
   <g id="patch_5">
    <path d="M 77.886 171.244314 
L 77.886 312.616314 
" style="fill:none;stroke:#000000;stroke-linecap:square;stroke-linejoin:miter;stroke-width:0.8;"/>
   </g>
   <g id="text_6">
    <g id="patch_6">
     <path d="M 210.038422 285.118989 
L 335.920297 285.118989 
L 335.920297 222.393114 
L 210.038422 222.393114 
z
" style="fill:#faf0e6;stroke:#000000;stroke-linejoin:miter;"/>
    </g>
    <!-- n =708 -->
    <g transform="translate(250.789672 236.911239)scale(0.12 -0.12)">
     <defs>
      <path d="M 54.890625 33.015625 
L 54.890625 0 
L 45.90625 0 
L 45.90625 32.71875 
Q 45.90625 40.484375 42.875 44.328125 
Q 39.84375 48.1875 33.796875 48.1875 
Q 26.515625 48.1875 22.3125 43.546875 
Q 18.109375 38.921875 18.109375 30.90625 
L 18.109375 0 
L 9.078125 0 
L 9.078125 54.6875 
L 18.109375 54.6875 
L 18.109375 46.1875 
Q 21.34375 51.125 25.703125 53.5625 
Q 30.078125 56 35.796875 56 
Q 45.21875 56 50.046875 50.171875 
Q 54.890625 44.34375 54.890625 33.015625 
z
" id="DejaVuSans-110"/>
      <path id="DejaVuSans-32"/>
      <path d="M 10.59375 45.40625 
L 73.1875 45.40625 
L 73.1875 37.203125 
L 10.59375 37.203125 
z
M 10.59375 25.484375 
L 73.1875 25.484375 
L 73.1875 17.1875 
L 10.59375 17.1875 
z
" id="DejaVuSans-61"/>
      <path d="M 8.203125 72.90625 
L 55.078125 72.90625 
L 55.078125 68.703125 
L 28.609375 0 
L 18.3125 0 
L 43.21875 64.59375 
L 8.203125 64.59375 
z
" id="DejaVuSans-55"/>
      <path d="M 31.78125 66.40625 
Q 24.171875 66.40625 20.328125 58.90625 
Q 16.5 51.421875 16.5 36.375 
Q 16.5 21.390625 20.328125 13.890625 
Q 24.171875 6.390625 31.78125 6.390625 
Q 39.453125 6.390625 43.28125 13.890625 
Q 47.125 21.390625 47.125 36.375 
Q 47.125 51.421875 43.28125 58.90625 
Q 39.453125 66.40625 31.78125 66.40625 
z
M 31.78125 74.21875 
Q 44.046875 74.21875 50.515625 64.515625 
Q 56.984375 54.828125 56.984375 36.375 
Q 56.984375 17.96875 50.515625 8.265625 
Q 44.046875 -1.421875 31.78125 -1.421875 
Q 19.53125 -1.421875 13.0625 8.265625 
Q 6.59375 17.96875 6.59375 36.375 
Q 6.59375 54.828125 13.0625 64.515625 
Q 19.53125 74.21875 31.78125 74.21875 
z
" id="DejaVuSans-48"/>
      <path d="M 31.78125 34.625 
Q 24.75 34.625 20.71875 30.859375 
Q 16.703125 27.09375 16.703125 20.515625 
Q 16.703125 13.921875 20.71875 10.15625 
Q 24.75 6.390625 31.78125 6.390625 
Q 38.8125 6.390625 42.859375 10.171875 
Q 46.921875 13.96875 46.921875 20.515625 
Q 46.921875 27.09375 42.890625 30.859375 
Q 38.875 34.625 31.78125 34.625 
z
M 21.921875 38.8125 
Q 15.578125 40.375 12.03125 44.71875 
Q 8.5 49.078125 8.5 55.328125 
Q 8.5 64.0625 14.71875 69.140625 
Q 20.953125 74.21875 31.78125 74.21875 
Q 42.671875 74.21875 48.875 69.140625 
Q 55.078125 64.0625 55.078125 55.328125 
Q 55.078125 49.078125 51.53125 44.71875 
Q 48 40.375 41.703125 38.8125 
Q 48.828125 37.15625 52.796875 32.3125 
Q 56.78125 27.484375 56.78125 20.515625 
Q 56.78125 9.90625 50.3125 4.234375 
Q 43.84375 -1.421875 31.78125 -1.421875 
Q 19.734375 -1.421875 13.25 4.234375 
Q 6.78125 9.90625 6.78125 20.515625 
Q 6.78125 27.484375 10.78125 32.3125 
Q 14.796875 37.15625 21.921875 38.8125 
z
M 18.3125 54.390625 
Q 18.3125 48.734375 21.84375 45.5625 
Q 25.390625 42.390625 31.78125 42.390625 
Q 38.140625 42.390625 41.71875 45.5625 
Q 45.3125 48.734375 45.3125 54.390625 
Q 45.3125 60.0625 41.71875 63.234375 
Q 38.140625 66.40625 31.78125 66.40625 
Q 25.390625 66.40625 21.84375 63.234375 
Q 18.3125 60.0625 18.3125 54.390625 
z
" id="DejaVuSans-56"/>
     </defs>
     <use xlink:href="#DejaVuSans-110"/>
     <use x="63.378906" xlink:href="#DejaVuSans-32"/>
     <use x="95.166016" xlink:href="#DejaVuSans-61"/>
     <use x="178.955078" xlink:href="#DejaVuSans-55"/>
     <use x="242.578125" xlink:href="#DejaVuSans-48"/>
     <use x="306.201172" xlink:href="#DejaVuSans-56"/>
    </g>
    <!-- Set 1, FoL = 11.4% -->
    <g transform="translate(215.438422 250.348614)scale(0.12 -0.12)">
     <defs>
      <path d="M 53.515625 70.515625 
L 53.515625 60.890625 
Q 47.90625 63.578125 42.921875 64.890625 
Q 37.9375 66.21875 33.296875 66.21875 
Q 25.25 66.21875 20.875 63.09375 
Q 16.5 59.96875 16.5 54.203125 
Q 16.5 49.359375 19.40625 46.890625 
Q 22.3125 44.4375 30.421875 42.921875 
L 36.375 41.703125 
Q 47.40625 39.59375 52.65625 34.296875 
Q 57.90625 29 57.90625 20.125 
Q 57.90625 9.515625 50.796875 4.046875 
Q 43.703125 -1.421875 29.984375 -1.421875 
Q 24.8125 -1.421875 18.96875 -0.25 
Q 13.140625 0.921875 6.890625 3.21875 
L 6.890625 13.375 
Q 12.890625 10.015625 18.65625 8.296875 
Q 24.421875 6.59375 29.984375 6.59375 
Q 38.421875 6.59375 43.015625 9.90625 
Q 47.609375 13.234375 47.609375 19.390625 
Q 47.609375 24.75 44.3125 27.78125 
Q 41.015625 30.8125 33.5 32.328125 
L 27.484375 33.5 
Q 16.453125 35.6875 11.515625 40.375 
Q 6.59375 45.0625 6.59375 53.421875 
Q 6.59375 63.09375 13.40625 68.65625 
Q 20.21875 74.21875 32.171875 74.21875 
Q 37.3125 74.21875 42.625 73.28125 
Q 47.953125 72.359375 53.515625 70.515625 
z
" id="DejaVuSans-83"/>
      <path d="M 56.203125 29.59375 
L 56.203125 25.203125 
L 14.890625 25.203125 
Q 15.484375 15.921875 20.484375 11.0625 
Q 25.484375 6.203125 34.421875 6.203125 
Q 39.59375 6.203125 44.453125 7.46875 
Q 49.3125 8.734375 54.109375 11.28125 
L 54.109375 2.78125 
Q 49.265625 0.734375 44.1875 -0.34375 
Q 39.109375 -1.421875 33.890625 -1.421875 
Q 20.796875 -1.421875 13.15625 6.1875 
Q 5.515625 13.8125 5.515625 26.8125 
Q 5.515625 40.234375 12.765625 48.109375 
Q 20.015625 56 32.328125 56 
Q 43.359375 56 49.78125 48.890625 
Q 56.203125 41.796875 56.203125 29.59375 
z
M 47.21875 32.234375 
Q 47.125 39.59375 43.09375 43.984375 
Q 39.0625 48.390625 32.421875 48.390625 
Q 24.90625 48.390625 20.390625 44.140625 
Q 15.875 39.890625 15.1875 32.171875 
z
" id="DejaVuSans-101"/>
      <path d="M 18.3125 70.21875 
L 18.3125 54.6875 
L 36.8125 54.6875 
L 36.8125 47.703125 
L 18.3125 47.703125 
L 18.3125 18.015625 
Q 18.3125 11.328125 20.140625 9.421875 
Q 21.96875 7.515625 27.59375 7.515625 
L 36.8125 7.515625 
L 36.8125 0 
L 27.59375 0 
Q 17.1875 0 13.234375 3.875 
Q 9.28125 7.765625 9.28125 18.015625 
L 9.28125 47.703125 
L 2.6875 47.703125 
L 2.6875 54.6875 
L 9.28125 54.6875 
L 9.28125 70.21875 
z
" id="DejaVuSans-116"/>
      <path d="M 12.40625 8.296875 
L 28.515625 8.296875 
L 28.515625 63.921875 
L 10.984375 60.40625 
L 10.984375 69.390625 
L 28.421875 72.90625 
L 38.28125 72.90625 
L 38.28125 8.296875 
L 54.390625 8.296875 
L 54.390625 0 
L 12.40625 0 
z
" id="DejaVuSans-49"/>
      <path d="M 11.71875 12.40625 
L 22.015625 12.40625 
L 22.015625 4 
L 14.015625 -11.625 
L 7.71875 -11.625 
L 11.71875 4 
z
" id="DejaVuSans-44"/>
      <path d="M 9.8125 72.90625 
L 51.703125 72.90625 
L 51.703125 64.59375 
L 19.671875 64.59375 
L 19.671875 43.109375 
L 48.578125 43.109375 
L 48.578125 34.8125 
L 19.671875 34.8125 
L 19.671875 0 
L 9.8125 0 
z
" id="DejaVuSans-70"/>
      <path d="M 30.609375 48.390625 
Q 23.390625 48.390625 19.1875 42.75 
Q 14.984375 37.109375 14.984375 27.296875 
Q 14.984375 17.484375 19.15625 11.84375 
Q 23.34375 6.203125 30.609375 6.203125 
Q 37.796875 6.203125 41.984375 11.859375 
Q 46.1875 17.53125 46.1875 27.296875 
Q 46.1875 37.015625 41.984375 42.703125 
Q 37.796875 48.390625 30.609375 48.390625 
z
M 30.609375 56 
Q 42.328125 56 49.015625 48.375 
Q 55.71875 40.765625 55.71875 27.296875 
Q 55.71875 13.875 49.015625 6.21875 
Q 42.328125 -1.421875 30.609375 -1.421875 
Q 18.84375 -1.421875 12.171875 6.21875 
Q 5.515625 13.875 5.515625 27.296875 
Q 5.515625 40.765625 12.171875 48.375 
Q 18.84375 56 30.609375 56 
z
" id="DejaVuSans-111"/>
      <path d="M 9.8125 72.90625 
L 19.671875 72.90625 
L 19.671875 8.296875 
L 55.171875 8.296875 
L 55.171875 0 
L 9.8125 0 
z
" id="DejaVuSans-76"/>
      <path d="M 10.6875 12.40625 
L 21 12.40625 
L 21 0 
L 10.6875 0 
z
" id="DejaVuSans-46"/>
      <path d="M 37.796875 64.3125 
L 12.890625 25.390625 
L 37.796875 25.390625 
z
M 35.203125 72.90625 
L 47.609375 72.90625 
L 47.609375 25.390625 
L 58.015625 25.390625 
L 58.015625 17.1875 
L 47.609375 17.1875 
L 47.609375 0 
L 37.796875 0 
L 37.796875 17.1875 
L 4.890625 17.1875 
L 4.890625 26.703125 
z
" id="DejaVuSans-52"/>
      <path d="M 72.703125 32.078125 
Q 68.453125 32.078125 66.03125 28.46875 
Q 63.625 24.859375 63.625 18.40625 
Q 63.625 12.0625 66.03125 8.421875 
Q 68.453125 4.78125 72.703125 4.78125 
Q 76.859375 4.78125 79.265625 8.421875 
Q 81.6875 12.0625 81.6875 18.40625 
Q 81.6875 24.8125 79.265625 28.4375 
Q 76.859375 32.078125 72.703125 32.078125 
z
M 72.703125 38.28125 
Q 80.421875 38.28125 84.953125 32.90625 
Q 89.5 27.546875 89.5 18.40625 
Q 89.5 9.28125 84.9375 3.921875 
Q 80.375 -1.421875 72.703125 -1.421875 
Q 64.890625 -1.421875 60.34375 3.921875 
Q 55.8125 9.28125 55.8125 18.40625 
Q 55.8125 27.59375 60.375 32.9375 
Q 64.9375 38.28125 72.703125 38.28125 
z
M 22.3125 68.015625 
Q 18.109375 68.015625 15.6875 64.375 
Q 13.28125 60.75 13.28125 54.390625 
Q 13.28125 47.953125 15.671875 44.328125 
Q 18.0625 40.71875 22.3125 40.71875 
Q 26.5625 40.71875 28.96875 44.328125 
Q 31.390625 47.953125 31.390625 54.390625 
Q 31.390625 60.6875 28.953125 64.34375 
Q 26.515625 68.015625 22.3125 68.015625 
z
M 66.40625 74.21875 
L 74.21875 74.21875 
L 28.609375 -1.421875 
L 20.796875 -1.421875 
z
M 22.3125 74.21875 
Q 30.03125 74.21875 34.609375 68.875 
Q 39.203125 63.53125 39.203125 54.390625 
Q 39.203125 45.171875 34.640625 39.84375 
Q 30.078125 34.515625 22.3125 34.515625 
Q 14.546875 34.515625 10.03125 39.859375 
Q 5.515625 45.21875 5.515625 54.390625 
Q 5.515625 63.484375 10.046875 68.84375 
Q 14.59375 74.21875 22.3125 74.21875 
z
" id="DejaVuSans-37"/>
     </defs>
     <use xlink:href="#DejaVuSans-83"/>
     <use x="63.476562" xlink:href="#DejaVuSans-101"/>
     <use x="125" xlink:href="#DejaVuSans-116"/>
     <use x="164.208984" xlink:href="#DejaVuSans-32"/>
     <use x="195.996094" xlink:href="#DejaVuSans-49"/>
     <use x="259.619141" xlink:href="#DejaVuSans-44"/>
     <use x="291.40625" xlink:href="#DejaVuSans-32"/>
     <use x="323.193359" xlink:href="#DejaVuSans-70"/>
     <use x="377.087891" xlink:href="#DejaVuSans-111"/>
     <use x="438.269531" xlink:href="#DejaVuSans-76"/>
     <use x="493.982422" xlink:href="#DejaVuSans-32"/>
     <use x="525.769531" xlink:href="#DejaVuSans-61"/>
     <use x="609.558594" xlink:href="#DejaVuSans-32"/>
     <use x="641.345703" xlink:href="#DejaVuSans-49"/>
     <use x="704.96875" xlink:href="#DejaVuSans-49"/>
     <use x="768.591797" xlink:href="#DejaVuSans-46"/>
     <use x="800.378906" xlink:href="#DejaVuSans-52"/>
     <use x="864.001953" xlink:href="#DejaVuSans-37"/>
    </g>
    <!-- Set 2, FoL = 39.9% -->
    <g transform="translate(215.438422 263.785989)scale(0.12 -0.12)">
     <defs>
      <path d="M 19.1875 8.296875 
L 53.609375 8.296875 
L 53.609375 0 
L 7.328125 0 
L 7.328125 8.296875 
Q 12.9375 14.109375 22.625 23.890625 
Q 32.328125 33.6875 34.8125 36.53125 
Q 39.546875 41.84375 41.421875 45.53125 
Q 43.3125 49.21875 43.3125 52.78125 
Q 43.3125 58.59375 39.234375 62.25 
Q 35.15625 65.921875 28.609375 65.921875 
Q 23.96875 65.921875 18.8125 64.3125 
Q 13.671875 62.703125 7.8125 59.421875 
L 7.8125 69.390625 
Q 13.765625 71.78125 18.9375 73 
Q 24.125 74.21875 28.421875 74.21875 
Q 39.75 74.21875 46.484375 68.546875 
Q 53.21875 62.890625 53.21875 53.421875 
Q 53.21875 48.921875 51.53125 44.890625 
Q 49.859375 40.875 45.40625 35.40625 
Q 44.1875 33.984375 37.640625 27.21875 
Q 31.109375 20.453125 19.1875 8.296875 
z
" id="DejaVuSans-50"/>
      <path d="M 40.578125 39.3125 
Q 47.65625 37.796875 51.625 33 
Q 55.609375 28.21875 55.609375 21.1875 
Q 55.609375 10.40625 48.1875 4.484375 
Q 40.765625 -1.421875 27.09375 -1.421875 
Q 22.515625 -1.421875 17.65625 -0.515625 
Q 12.796875 0.390625 7.625 2.203125 
L 7.625 11.71875 
Q 11.71875 9.328125 16.59375 8.109375 
Q 21.484375 6.890625 26.8125 6.890625 
Q 36.078125 6.890625 40.9375 10.546875 
Q 45.796875 14.203125 45.796875 21.1875 
Q 45.796875 27.640625 41.28125 31.265625 
Q 36.765625 34.90625 28.71875 34.90625 
L 20.21875 34.90625 
L 20.21875 43.015625 
L 29.109375 43.015625 
Q 36.375 43.015625 40.234375 45.921875 
Q 44.09375 48.828125 44.09375 54.296875 
Q 44.09375 59.90625 40.109375 62.90625 
Q 36.140625 65.921875 28.71875 65.921875 
Q 24.65625 65.921875 20.015625 65.03125 
Q 15.375 64.15625 9.8125 62.3125 
L 9.8125 71.09375 
Q 15.4375 72.65625 20.34375 73.4375 
Q 25.25 74.21875 29.59375 74.21875 
Q 40.828125 74.21875 47.359375 69.109375 
Q 53.90625 64.015625 53.90625 55.328125 
Q 53.90625 49.265625 50.4375 45.09375 
Q 46.96875 40.921875 40.578125 39.3125 
z
" id="DejaVuSans-51"/>
      <path d="M 10.984375 1.515625 
L 10.984375 10.5 
Q 14.703125 8.734375 18.5 7.8125 
Q 22.3125 6.890625 25.984375 6.890625 
Q 35.75 6.890625 40.890625 13.453125 
Q 46.046875 20.015625 46.78125 33.40625 
Q 43.953125 29.203125 39.59375 26.953125 
Q 35.25 24.703125 29.984375 24.703125 
Q 19.046875 24.703125 12.671875 31.3125 
Q 6.296875 37.9375 6.296875 49.421875 
Q 6.296875 60.640625 12.9375 67.421875 
Q 19.578125 74.21875 30.609375 74.21875 
Q 43.265625 74.21875 49.921875 64.515625 
Q 56.59375 54.828125 56.59375 36.375 
Q 56.59375 19.140625 48.40625 8.859375 
Q 40.234375 -1.421875 26.421875 -1.421875 
Q 22.703125 -1.421875 18.890625 -0.6875 
Q 15.09375 0.046875 10.984375 1.515625 
z
M 30.609375 32.421875 
Q 37.25 32.421875 41.125 36.953125 
Q 45.015625 41.5 45.015625 49.421875 
Q 45.015625 57.28125 41.125 61.84375 
Q 37.25 66.40625 30.609375 66.40625 
Q 23.96875 66.40625 20.09375 61.84375 
Q 16.21875 57.28125 16.21875 49.421875 
Q 16.21875 41.5 20.09375 36.953125 
Q 23.96875 32.421875 30.609375 32.421875 
z
" id="DejaVuSans-57"/>
     </defs>
     <use xlink:href="#DejaVuSans-83"/>
     <use x="63.476562" xlink:href="#DejaVuSans-101"/>
     <use x="125" xlink:href="#DejaVuSans-116"/>
     <use x="164.208984" xlink:href="#DejaVuSans-32"/>
     <use x="195.996094" xlink:href="#DejaVuSans-50"/>
     <use x="259.619141" xlink:href="#DejaVuSans-44"/>
     <use x="291.40625" xlink:href="#DejaVuSans-32"/>
     <use x="323.193359" xlink:href="#DejaVuSans-70"/>
     <use x="377.087891" xlink:href="#DejaVuSans-111"/>
     <use x="438.269531" xlink:href="#DejaVuSans-76"/>
     <use x="493.982422" xlink:href="#DejaVuSans-32"/>
     <use x="525.769531" xlink:href="#DejaVuSans-61"/>
     <use x="609.558594" xlink:href="#DejaVuSans-32"/>
     <use x="641.345703" xlink:href="#DejaVuSans-51"/>
     <use x="704.96875" xlink:href="#DejaVuSans-57"/>
     <use x="768.591797" xlink:href="#DejaVuSans-46"/>
     <use x="800.378906" xlink:href="#DejaVuSans-57"/>
     <use x="864.001953" xlink:href="#DejaVuSans-37"/>
    </g>
    <!-- Set 3, FoL = 48.7% -->
    <g transform="translate(215.438422 277.223364)scale(0.12 -0.12)">
     <use xlink:href="#DejaVuSans-83"/>
     <use x="63.476562" xlink:href="#DejaVuSans-101"/>
     <use x="125" xlink:href="#DejaVuSans-116"/>
     <use x="164.208984" xlink:href="#DejaVuSans-32"/>
     <use x="195.996094" xlink:href="#DejaVuSans-51"/>
     <use x="259.619141" xlink:href="#DejaVuSans-44"/>
     <use x="291.40625" xlink:href="#DejaVuSans-32"/>
     <use x="323.193359" xlink:href="#DejaVuSans-70"/>
     <use x="377.087891" xlink:href="#DejaVuSans-111"/>
     <use x="438.269531" xlink:href="#DejaVuSans-76"/>
     <use x="493.982422" xlink:href="#DejaVuSans-32"/>
     <use x="525.769531" xlink:href="#DejaVuSans-61"/>
     <use x="609.558594" xlink:href="#DejaVuSans-32"/>
     <use x="641.345703" xlink:href="#DejaVuSans-52"/>
     <use x="704.96875" xlink:href="#DejaVuSans-56"/>
     <use x="768.591797" xlink:href="#DejaVuSans-46"/>
     <use x="800.378906" xlink:href="#DejaVuSans-55"/>
     <use x="864.001953" xlink:href="#DejaVuSans-37"/>
    </g>
   </g>
   <g id="text_7">
    <g id="patch_7">
     <path d="M 237.693422 111.777364 
L 308.265297 111.777364 
L 308.265297 80.421114 
L 237.693422 80.421114 
z
" style="fill:#faf0e6;stroke:#000000;stroke-linejoin:miter;stroke-width:2;"/>
    </g>
    <!-- KB11 -->
    <g transform="translate(243.693422 101.617989)scale(0.2 -0.2)">
     <defs>
      <path d="M 9.1875 72.90625 
L 27.984375 72.90625 
L 27.984375 46.296875 
L 55.078125 72.90625 
L 76.90625 72.90625 
L 41.796875 38.375 
L 80.515625 0 
L 56.984375 0 
L 27.984375 28.71875 
L 27.984375 0 
L 9.1875 0 
z
" id="DejaVuSans-Bold-75"/>
      <path d="M 38.375 44.671875 
Q 42.828125 44.671875 45.109375 46.625 
Q 47.40625 48.578125 47.40625 52.390625 
Q 47.40625 56.15625 45.109375 58.125 
Q 42.828125 60.109375 38.375 60.109375 
L 27.984375 60.109375 
L 27.984375 44.671875 
z
M 39.015625 12.796875 
Q 44.671875 12.796875 47.53125 15.1875 
Q 50.390625 17.578125 50.390625 22.40625 
Q 50.390625 27.15625 47.5625 29.515625 
Q 44.734375 31.890625 39.015625 31.890625 
L 27.984375 31.890625 
L 27.984375 12.796875 
z
M 56.5 39.015625 
Q 62.546875 37.25 65.859375 32.515625 
Q 69.1875 27.78125 69.1875 20.90625 
Q 69.1875 10.359375 62.0625 5.171875 
Q 54.9375 0 40.375 0 
L 9.1875 0 
L 9.1875 72.90625 
L 37.40625 72.90625 
Q 52.59375 72.90625 59.40625 68.3125 
Q 66.21875 63.71875 66.21875 53.609375 
Q 66.21875 48.296875 63.71875 44.5625 
Q 61.234375 40.828125 56.5 39.015625 
z
" id="DejaVuSans-Bold-66"/>
     </defs>
     <use xlink:href="#DejaVuSans-Bold-75"/>
     <use x="77.490234" xlink:href="#DejaVuSans-Bold-66"/>
     <use x="153.710938" xlink:href="#DejaVuSans-Bold-49"/>
     <use x="223.291016" xlink:href="#DejaVuSans-Bold-49"/>
    </g>
   </g>
   <g id="patch_8">
    <path clip-path="url(#pfc88ceea64)" d="M 77.886 171.244314 
C 77.886 171.244314 77.886 171.244314 77.886 171.244314 
C 77.886 171.244314 77.886 171.244314 77.886 171.244314 
L 83.833092 137.516677 
C 82.85184 137.343655 81.863503 137.213538 80.870905 137.126697 
C 79.878306 137.039856 78.88239 136.996373 77.886 136.996373 
z
" style="fill:#a9a9a9;opacity:0.85;stroke:#000000;stroke-linejoin:miter;"/>
   </g>
   <g id="patch_9">
    <path clip-path="url(#pfc88ceea64)" d="M 77.886 171.244314 
C 77.886 171.244314 77.886 171.244314 77.886 171.244314 
C 77.886 171.244314 77.886 171.244314 77.886 171.244314 
L 84.769729 152.331425 
C 84.219488 152.131154 83.660769 151.95499 83.095167 151.803438 
C 82.529565 151.651885 81.957619 151.525088 81.380961 151.423407 
z
" style="fill:#a9a9a9;opacity:0.85;stroke:#000000;stroke-linejoin:miter;"/>
   </g>
   <g id="patch_10">
    <path clip-path="url(#pfc88ceea64)" d="M 77.886 171.244314 
C 77.886 171.244314 77.886 171.244314 77.886 171.244314 
C 77.886 171.244314 77.886 171.244314 77.886 171.244314 
L 93.427848 144.325043 
C 92.644674 143.872877 91.84214 143.455105 91.022538 143.072918 
C 90.202935 142.690731 89.367044 142.344493 88.51725 142.035194 
z
" style="fill:#a9a9a9;opacity:0.85;stroke:#000000;stroke-linejoin:miter;"/>
   </g>
   <g id="patch_11">
    <path clip-path="url(#pfc88ceea64)" d="M 77.886 171.244314 
C 77.886 171.244314 77.886 171.244314 77.886 171.244314 
C 77.886 171.244314 77.886 171.244314 77.886 171.244314 
L 102.830576 141.516526 
C 101.965692 140.790803 101.06955 140.103169 100.144707 139.455586 
C 99.219863 138.808004 98.2672 138.201091 97.289435 137.636578 
z
" style="fill:#a9a9a9;opacity:0.85;stroke:#000000;stroke-linejoin:miter;"/>
   </g>
   <g id="patch_12">
    <path clip-path="url(#pfc88ceea64)" d="M 77.886 171.244314 
C 77.886 171.244314 77.886 171.244314 77.886 171.244314 
C 77.886 171.244314 77.886 171.244314 77.886 171.244314 
L 103.953133 149.371392 
C 103.316775 148.613009 102.647624 147.882759 101.947589 147.182724 
C 101.247555 146.48269 100.517305 145.813539 99.758922 145.17718 
z
" style="fill:#a9a9a9;opacity:0.85;stroke:#000000;stroke-linejoin:miter;"/>
   </g>
   <g id="patch_13">
    <path clip-path="url(#pfc88ceea64)" d="M 77.886 171.244314 
C 77.886 171.244314 77.886 171.244314 77.886 171.244314 
C 77.886 171.244314 77.886 171.244314 77.886 171.244314 
L 125.547202 143.727106 
C 124.746632 142.340478 123.885931 140.989447 122.967554 139.677869 
C 122.049178 138.366292 121.074002 137.095418 120.044809 135.868873 
z
" style="fill:#a9a9a9;opacity:0.85;stroke:#000000;stroke-linejoin:miter;"/>
   </g>
   <g id="patch_14">
    <path clip-path="url(#pfc88ceea64)" d="M 77.886 171.244314 
C 77.886 171.244314 77.886 171.244314 77.886 171.244314 
C 77.886 171.244314 77.886 171.244314 77.886 171.244314 
L 167.722603 138.546464 
C 166.771311 135.932809 165.706411 133.361912 164.530943 130.841113 
C 163.355475 128.320314 162.070559 125.852013 160.679862 123.443255 
z
" style="fill:#a9a9a9;opacity:0.85;stroke:#000000;stroke-linejoin:miter;"/>
   </g>
   <g id="patch_15">
    <path clip-path="url(#pfc88ceea64)" d="M 77.886 171.244314 
C 77.886 171.244314 77.886 171.244314 77.886 171.244314 
C 77.886 171.244314 77.886 171.244314 77.886 171.244314 
L 183.227787 152.669714 
C 182.687388 149.60496 182.013501 146.565248 181.208047 143.559255 
C 180.402594 140.553261 179.466342 137.58385 178.401964 134.659495 
z
" style="fill:#a9a9a9;opacity:0.85;stroke:#000000;stroke-linejoin:miter;"/>
   </g>
   <g id="patch_16">
    <path clip-path="url(#pfc88ceea64)" d="M 77.886 171.244314 
C 77.886 171.244314 77.886 171.244314 77.886 171.244314 
C 77.886 171.244314 77.886 171.244314 77.886 171.244314 
L 140.142406 171.244314 
C 140.142406 169.433061 140.063363 167.622671 139.905502 165.81831 
C 139.747641 164.01395 139.511112 162.217338 139.196591 160.433602 
z
" style="fill:#a9a9a9;opacity:0.85;stroke:#000000;stroke-linejoin:miter;"/>
   </g>
   <g id="patch_17">
    <path clip-path="url(#pfc88ceea64)" d="M 77.886 171.244314 
C 77.886 171.244314 77.886 171.244314 77.886 171.244314 
C 77.886 171.244314 77.886 171.244314 77.886 171.244314 
L 121.054466 178.856079 
C 121.275919 177.60016 121.442457 176.335175 121.553606 175.064734 
C 121.664755 173.794294 121.720409 172.519607 121.720409 171.244314 
z
" style="fill:#a9a9a9;opacity:0.85;stroke:#000000;stroke-linejoin:miter;"/>
   </g>
   <g id="patch_18">
    <path clip-path="url(#pfc88ceea64)" d="M 77.886 171.244314 
C 77.886 171.244314 77.886 171.244314 77.886 171.244314 
C 77.886 171.244314 77.886 171.244314 77.886 171.244314 
L 114.59147 184.604012 
C 114.98015 183.536124 115.322042 182.451782 115.616169 181.354082 
C 115.910297 180.256382 116.156381 179.146369 116.353719 178.027211 
z
" style="fill:#a9a9a9;opacity:0.85;stroke:#000000;stroke-linejoin:miter;"/>
   </g>
   <g id="patch_19">
    <path clip-path="url(#pfc88ceea64)" d="M 77.886 171.244314 
C 77.886 171.244314 77.886 171.244314 77.886 171.244314 
C 77.886 171.244314 77.886 171.244314 77.886 171.244314 
L 104.913245 186.848501 
C 105.367225 186.062186 105.786673 185.256433 106.170393 184.433543 
C 106.554113 183.610653 106.901739 182.771409 107.21228 181.918207 
z
" style="fill:#a9a9a9;opacity:0.85;stroke:#000000;stroke-linejoin:miter;"/>
   </g>
   <g id="patch_20">
    <path clip-path="url(#pfc88ceea64)" d="M 77.886 171.244314 
C 77.886 171.244314 77.886 171.244314 77.886 171.244314 
C 77.886 171.244314 77.886 171.244314 77.886 171.244314 
L 93.424307 184.282502 
C 93.803633 183.830439 94.16305 183.362038 94.501532 182.878635 
C 94.840015 182.395232 95.15724 181.897288 95.452303 181.386224 
z
" style="fill:#a9a9a9;opacity:0.85;stroke:#000000;stroke-linejoin:miter;"/>
   </g>
   <g id="patch_21">
    <path clip-path="url(#pfc88ceea64)" d="M 77.886 171.244314 
C 77.886 171.244314 77.886 171.244314 77.886 171.244314 
C 77.886 171.244314 77.886 171.244314 77.886 171.244314 
L 110.177574 209.727913 
C 111.297194 208.78844 112.375282 207.800554 113.408761 206.767075 
C 114.44224 205.733596 115.430126 204.655507 116.369599 203.535887 
z
" style="fill:#a9a9a9;opacity:0.85;stroke:#000000;stroke-linejoin:miter;"/>
   </g>
   <g id="patch_22">
    <path clip-path="url(#pfc88ceea64)" d="M 77.886 171.244314 
C 77.886 171.244314 77.886 171.244314 77.886 171.244314 
C 77.886 171.244314 77.886 171.244314 77.886 171.244314 
L 121.986739 247.629034 
C 124.209033 246.345992 126.374276 244.96658 128.476289 243.494735 
C 130.578302 242.022889 132.615083 240.460013 134.580817 238.810566 
z
" style="fill:#a9a9a9;opacity:0.85;stroke:#000000;stroke-linejoin:miter;"/>
   </g>
   <g id="patch_23">
    <path clip-path="url(#pfc88ceea64)" d="M 77.886 171.244314 
C 77.886 171.244314 77.886 171.244314 77.886 171.244314 
C 77.886 171.244314 77.886 171.244314 77.886 171.244314 
L 123.935592 297.764528 
C 127.6165 296.424787 131.237188 294.925049 134.787323 293.269594 
C 138.337457 291.614139 141.813657 289.804544 145.206 287.845974 
z
" style="fill:#a9a9a9;opacity:0.85;stroke:#000000;stroke-linejoin:miter;"/>
   </g>
   <g id="patch_24">
    <path clip-path="url(#pfc88ceea64)" d="M 77.886 171.244314 
C 77.886 171.244314 77.886 171.244314 77.886 171.244314 
C 77.886 171.244314 77.886 171.244314 77.886 171.244314 
L 90.111682 240.579604 
C 92.128884 240.223917 94.129603 239.780368 96.108129 239.250224 
C 98.086654 238.72008 100.041102 238.103845 101.965894 237.403278 
z
" style="fill:#a9a9a9;opacity:0.85;stroke:#000000;stroke-linejoin:miter;"/>
   </g>
   <g id="patch_25">
    <path clip-path="url(#pfc88ceea64)" d="M 77.886 171.244314 
C 77.886 171.244314 77.886 171.244314 77.886 171.244314 
C 77.886 171.244314 77.886 171.244314 77.886 171.244314 
L 77.886 209.439369 
C 78.997225 209.439369 80.107922 209.390875 81.214918 209.294025 
C 82.321915 209.197176 83.424158 209.052063 84.518502 208.8591 
z
" style="fill:#a9a9a9;opacity:0.85;stroke:#000000;stroke-linejoin:miter;"/>
   </g>
  </g>
 </g>
 <defs>
  <clipPath id="pfc88ceea64">
   <path d="M 77.886 312.616314 
C 115.365806 312.616314 151.348875 297.711638 177.8511 271.209414 
C 204.353325 244.707189 219.258 208.72412 219.258 171.244314 
C 219.258 133.764508 204.353325 97.781439 177.8511 71.279214 
C 151.348875 44.776989 115.365806 29.872314 77.886 29.872314 
L 77.886 171.244314 
C 77.886 171.244314 77.886 171.244314 77.886 171.244314 
C 77.886 171.244314 77.886 171.244314 77.886 171.244314 
C 77.886 171.244314 77.886 171.244314 77.886 171.244314 
C 77.886 171.244314 77.886 171.244314 77.886 171.244314 
L 77.886 312.616314 
z
"/>
  </clipPath>
 </defs>
</svg>
