<?xml version="1.0" encoding="utf-8" standalone="no"?>
<!DOCTYPE svg PUBLIC "-//W3C//DTD SVG 1.1//EN"
  "http://www.w3.org/Graphics/SVG/1.1/DTD/svg11.dtd">
<!-- Created with matplotlib (https://matplotlib.org/) -->
<svg height="251.615pt" version="1.1" viewBox="0 0 777.342813 251.615" width="777.342813pt" xmlns="http://www.w3.org/2000/svg" xmlns:xlink="http://www.w3.org/1999/xlink">
 <metadata>
  <rdf:RDF xmlns:cc="http://creativecommons.org/ns#" xmlns:dc="http://purl.org/dc/elements/1.1/" xmlns:rdf="http://www.w3.org/1999/02/22-rdf-syntax-ns#">
   <cc:Work>
    <dc:type rdf:resource="http://purl.org/dc/dcmitype/StillImage"/>
    <dc:date>2020-12-11T14:49:19.339697</dc:date>
    <dc:format>image/svg+xml</dc:format>
    <dc:creator>
     <cc:Agent>
      <dc:title>Matplotlib v3.3.3, https://matplotlib.org/</dc:title>
     </cc:Agent>
    </dc:creator>
   </cc:Work>
  </rdf:RDF>
 </metadata>
 <defs>
  <style type="text/css">*{stroke-linecap:butt;stroke-linejoin:round;}</style>
 </defs>
 <g id="figure_1">
  <g id="patch_1">
   <path d="M 0 251.615 
L 777.342813 251.615 
L 777.342813 0 
L 0 0 
z
" style="fill:#ffffff;"/>
  </g>
  <g id="axes_1">
   <g id="patch_2">
    <path d="M 49.869063 209.118125 
L 235.869063 209.118125 
L 235.869063 42.798125 
L 49.869063 42.798125 
z
" style="fill:#ffffff;"/>
   </g>
   <g id="matplotlib.axis_1">
    <g id="xtick_1">
     <g id="line2d_1">
      <path clip-path="url(#pa6c74d022b)" d="M 77.111487 209.118125 
L 77.111487 42.798125 
" style="fill:none;stroke:#000000;stroke-linecap:square;stroke-opacity:0.5;stroke-width:0.8;"/>
     </g>
     <g id="line2d_2">
      <defs>
       <path d="M 0 0 
L 0 3.5 
" id="m970caf0428" style="stroke:#000000;stroke-width:0.8;"/>
      </defs>
      <g>
       <use style="stroke:#000000;stroke-width:0.8;" x="77.111487" xlink:href="#m970caf0428" y="209.118125"/>
      </g>
     </g>
     <g id="text_1">
      <!-- X -->
      <g transform="translate(72.485862 225.23625)scale(0.12 -0.12)">
       <defs>
        <path d="M 49.8125 37.203125 
L 75.09375 0 
L 55.515625 0 
L 38.484375 24.90625 
L 21.578125 0 
L 1.90625 0 
L 27.203125 37.203125 
L 2.875 72.90625 
L 22.515625 72.90625 
L 38.484375 49.421875 
L 54.390625 72.90625 
L 74.125 72.90625 
z
" id="DejaVuSans-Bold-88"/>
       </defs>
       <use xlink:href="#DejaVuSans-Bold-88"/>
      </g>
     </g>
    </g>
    <g id="xtick_2">
     <g id="line2d_3">
      <path clip-path="url(#pa6c74d022b)" d="M 189.838759 209.118125 
L 189.838759 42.798125 
" style="fill:none;stroke:#000000;stroke-linecap:square;stroke-opacity:0.5;stroke-width:0.8;"/>
     </g>
     <g id="line2d_4">
      <g>
       <use style="stroke:#000000;stroke-width:0.8;" x="189.838759" xlink:href="#m970caf0428" y="209.118125"/>
      </g>
     </g>
     <g id="text_2">
      <!-- Y -->
      <g transform="translate(185.494384 225.23625)scale(0.12 -0.12)">
       <defs>
        <path d="M -0.984375 72.90625 
L 19.578125 72.90625 
L 36.1875 46.921875 
L 52.78125 72.90625 
L 73.390625 72.90625 
L 45.609375 30.71875 
L 45.609375 0 
L 26.8125 0 
L 26.8125 30.71875 
z
" id="DejaVuSans-Bold-89"/>
       </defs>
       <use xlink:href="#DejaVuSans-Bold-89"/>
      </g>
     </g>
    </g>
    <g id="text_3">
     <!-- Node type -->
     <g transform="translate(105.234063 241.609844)scale(0.13 -0.13)">
      <defs>
       <path d="M 16.3125 72.90625 
L 37.3125 72.90625 
L 54 22.40625 
L 63.8125 72.90625 
L 81.59375 72.90625 
L 67.390625 0 
L 46.390625 0 
L 29.6875 50.484375 
L 19.921875 0 
L 2.09375 0 
z
" id="DejaVuSans-BoldOblique-78"/>
       <path d="M 37.5 43.5 
Q 30.71875 43.5 26.3125 37.34375 
Q 21.921875 31.203125 21.921875 21.6875 
Q 21.921875 16.5 24.28125 13.78125 
Q 26.65625 11.078125 31.203125 11.078125 
Q 37.984375 11.078125 42.375 17.25 
Q 46.78125 23.4375 46.78125 33.015625 
Q 46.78125 38.140625 44.40625 40.8125 
Q 42.046875 43.5 37.5 43.5 
z
M 38.921875 56 
Q 51.125 56 58.109375 49.796875 
Q 65.09375 43.609375 65.09375 32.90625 
Q 65.09375 26.703125 62.890625 20.875 
Q 60.6875 15.046875 56.5 10.203125 
Q 51.515625 4.4375 44.71875 1.5 
Q 37.9375 -1.421875 29.59375 -1.421875 
Q 17.53125 -1.421875 10.5625 4.78125 
Q 3.609375 10.984375 3.609375 21.6875 
Q 3.609375 27.828125 5.859375 33.703125 
Q 8.109375 39.59375 12.3125 44.484375 
Q 17.1875 50.140625 23.953125 53.0625 
Q 30.71875 56 38.921875 56 
z
" id="DejaVuSans-BoldOblique-111"/>
       <path d="M 30.71875 11.28125 
Q 37.453125 11.28125 41.671875 17.484375 
Q 45.90625 23.6875 45.90625 33.6875 
Q 45.90625 38.234375 43.53125 40.765625 
Q 41.15625 43.3125 36.921875 43.3125 
Q 30.28125 43.3125 25.984375 37.1875 
Q 21.6875 31.0625 21.6875 21.484375 
Q 21.6875 16.5 24 13.890625 
Q 26.3125 11.28125 30.71875 11.28125 
z
M 49.125 46.6875 
L 54.78125 75.984375 
L 72.40625 75.984375 
L 57.625 0 
L 39.984375 0 
L 41.609375 7.90625 
Q 37.59375 3.125 33.203125 0.84375 
Q 28.8125 -1.421875 23.578125 -1.421875 
Q 14.359375 -1.421875 8.984375 4.4375 
Q 3.609375 10.296875 3.609375 20.40625 
Q 3.609375 26.703125 5.484375 32.65625 
Q 7.375 38.625 10.890625 43.5 
Q 15.328125 49.65625 20.921875 52.828125 
Q 26.515625 56 32.90625 56 
Q 38.53125 56 42.453125 53.734375 
Q 46.390625 51.46875 49.125 46.6875 
z
" id="DejaVuSans-BoldOblique-100"/>
       <path d="M 62.890625 25.296875 
L 62.3125 22.515625 
L 21.390625 22.515625 
Q 21.390625 22.21875 21.34375 21.65625 
Q 21.296875 21.09375 21.296875 20.796875 
Q 21.296875 15.484375 24.484375 12.84375 
Q 27.6875 10.203125 34.078125 10.203125 
Q 39.59375 10.203125 45.71875 11.859375 
Q 51.859375 13.53125 58.59375 16.796875 
L 55.90625 3.21875 
Q 49.515625 0.875 43.1875 -0.265625 
Q 36.859375 -1.421875 30.328125 -1.421875 
Q 17.53125 -1.421875 10.5625 4.484375 
Q 3.609375 10.40625 3.609375 21.1875 
Q 3.609375 27.4375 5.828125 33.3125 
Q 8.0625 39.203125 12.3125 44.09375 
Q 17.328125 49.953125 24.328125 52.96875 
Q 31.34375 56 39.890625 56 
Q 50.984375 56 57.5 50.09375 
Q 64.015625 44.1875 64.015625 34.1875 
Q 64.015625 32.234375 63.75 30.046875 
Q 63.484375 27.875 62.890625 25.296875 
z
M 46.390625 33.296875 
Q 46.53125 33.9375 46.609375 34.59375 
Q 46.6875 35.25 46.6875 35.890625 
Q 46.6875 39.796875 44.34375 42.09375 
Q 42 44.390625 37.984375 44.390625 
Q 32.859375 44.390625 29.265625 41.578125 
Q 25.6875 38.765625 23.78125 33.296875 
z
" id="DejaVuSans-BoldOblique-101"/>
       <path id="DejaVuSans-BoldOblique-32"/>
       <path d="M 35.984375 70.21875 
L 33.015625 54.6875 
L 50.875 54.6875 
L 48.390625 42.1875 
L 30.515625 42.1875 
L 26.03125 19.046875 
Q 25.828125 18.265625 25.75 17.71875 
Q 25.6875 17.1875 25.6875 16.703125 
Q 25.6875 14.453125 27.171875 13.46875 
Q 28.65625 12.5 32.171875 12.5 
L 41.21875 12.5 
L 38.71875 0 
L 24.03125 0 
Q 16.109375 0 11.953125 3.3125 
Q 7.8125 6.640625 7.8125 12.890625 
Q 7.8125 14.265625 7.953125 15.828125 
Q 8.109375 17.390625 8.40625 19 
L 12.890625 42.1875 
L 4.296875 42.1875 
L 6.6875 54.6875 
L 15.375 54.6875 
L 18.40625 70.21875 
z
" id="DejaVuSans-BoldOblique-116"/>
       <path d="M 6.59375 54.6875 
L 23.09375 54.6875 
L 30.609375 16.796875 
L 50 54.6875 
L 68.703125 54.6875 
L 34.078125 -5.171875 
Q 28.265625 -15.28125 23.328125 -18.421875 
Q 18.40625 -21.578125 10.59375 -21.578125 
L 0 -21.578125 
L 1.8125 -10.109375 
L 7.328125 -10.109375 
Q 11.625 -10.109375 13.984375 -8.671875 
Q 16.359375 -7.234375 18.21875 -3.609375 
L 19.828125 -0.6875 
z
" id="DejaVuSans-BoldOblique-121"/>
       <path d="M 22.21875 7.90625 
L 16.609375 -20.796875 
L -0.984375 -20.796875 
L 13.71875 54.6875 
L 31.296875 54.6875 
L 29.6875 46.6875 
Q 33.6875 51.46875 38.078125 53.734375 
Q 42.484375 56 47.703125 56 
Q 56.9375 56 62.296875 50.140625 
Q 67.671875 44.28125 67.671875 34.1875 
Q 67.671875 27.875 65.796875 21.921875 
Q 63.921875 15.96875 60.40625 11.078125 
Q 55.953125 4.9375 50.359375 1.75 
Q 44.78125 -1.421875 38.375 -1.421875 
Q 32.765625 -1.421875 28.828125 0.84375 
Q 24.90625 3.125 22.21875 7.90625 
z
M 40.578125 43.3125 
Q 33.84375 43.3125 29.5625 37.078125 
Q 25.296875 30.859375 25.296875 20.90625 
Q 25.296875 16.40625 27.703125 13.84375 
Q 30.125 11.28125 34.421875 11.28125 
Q 41.015625 11.28125 45.3125 17.40625 
Q 49.609375 23.53125 49.609375 33.109375 
Q 49.609375 38.09375 47.28125 40.703125 
Q 44.96875 43.3125 40.578125 43.3125 
z
" id="DejaVuSans-BoldOblique-112"/>
      </defs>
      <use xlink:href="#DejaVuSans-BoldOblique-78"/>
      <use x="83.691406" xlink:href="#DejaVuSans-BoldOblique-111"/>
      <use x="152.392578" xlink:href="#DejaVuSans-BoldOblique-100"/>
      <use x="223.974609" xlink:href="#DejaVuSans-BoldOblique-101"/>
      <use x="291.796875" xlink:href="#DejaVuSans-BoldOblique-32"/>
      <use x="326.611328" xlink:href="#DejaVuSans-BoldOblique-116"/>
      <use x="374.414062" xlink:href="#DejaVuSans-BoldOblique-121"/>
      <use x="439.599609" xlink:href="#DejaVuSans-BoldOblique-112"/>
      <use x="511.181641" xlink:href="#DejaVuSans-BoldOblique-101"/>
     </g>
    </g>
   </g>
   <g id="matplotlib.axis_2">
    <g id="ytick_1">
     <g id="line2d_5">
      <path clip-path="url(#pa6c74d022b)" d="M 49.869063 209.118125 
L 235.869063 209.118125 
" style="fill:none;stroke:#000000;stroke-linecap:square;stroke-opacity:0.5;stroke-width:0.8;"/>
     </g>
     <g id="line2d_6">
      <defs>
       <path d="M 0 0 
L -3.5 0 
" id="mf41dc6e407" style="stroke:#000000;stroke-width:0.8;"/>
      </defs>
      <g>
       <use style="stroke:#000000;stroke-width:0.8;" x="49.869063" xlink:href="#mf41dc6e407" y="209.118125"/>
      </g>
     </g>
     <g id="text_4">
      <!-- 0 -->
      <g transform="translate(36.506563 212.917344)scale(0.1 -0.1)">
       <defs>
        <path d="M 31.78125 66.40625 
Q 24.171875 66.40625 20.328125 58.90625 
Q 16.5 51.421875 16.5 36.375 
Q 16.5 21.390625 20.328125 13.890625 
Q 24.171875 6.390625 31.78125 6.390625 
Q 39.453125 6.390625 43.28125 13.890625 
Q 47.125 21.390625 47.125 36.375 
Q 47.125 51.421875 43.28125 58.90625 
Q 39.453125 66.40625 31.78125 66.40625 
z
M 31.78125 74.21875 
Q 44.046875 74.21875 50.515625 64.515625 
Q 56.984375 54.828125 56.984375 36.375 
Q 56.984375 17.96875 50.515625 8.265625 
Q 44.046875 -1.421875 31.78125 -1.421875 
Q 19.53125 -1.421875 13.0625 8.265625 
Q 6.59375 17.96875 6.59375 36.375 
Q 6.59375 54.828125 13.0625 64.515625 
Q 19.53125 74.21875 31.78125 74.21875 
z
" id="DejaVuSans-48"/>
       </defs>
       <use xlink:href="#DejaVuSans-48"/>
      </g>
     </g>
    </g>
    <g id="ytick_2">
     <g id="line2d_7">
      <path clip-path="url(#pa6c74d022b)" d="M 49.869063 187.461875 
L 235.869063 187.461875 
" style="fill:none;stroke:#000000;stroke-linecap:square;stroke-opacity:0.5;stroke-width:0.8;"/>
     </g>
     <g id="line2d_8">
      <g>
       <use style="stroke:#000000;stroke-width:0.8;" x="49.869063" xlink:href="#mf41dc6e407" y="187.461875"/>
      </g>
     </g>
     <g id="text_5">
      <!-- 20 -->
      <g transform="translate(30.144063 191.261094)scale(0.1 -0.1)">
       <defs>
        <path d="M 19.1875 8.296875 
L 53.609375 8.296875 
L 53.609375 0 
L 7.328125 0 
L 7.328125 8.296875 
Q 12.9375 14.109375 22.625 23.890625 
Q 32.328125 33.6875 34.8125 36.53125 
Q 39.546875 41.84375 41.421875 45.53125 
Q 43.3125 49.21875 43.3125 52.78125 
Q 43.3125 58.59375 39.234375 62.25 
Q 35.15625 65.921875 28.609375 65.921875 
Q 23.96875 65.921875 18.8125 64.3125 
Q 13.671875 62.703125 7.8125 59.421875 
L 7.8125 69.390625 
Q 13.765625 71.78125 18.9375 73 
Q 24.125 74.21875 28.421875 74.21875 
Q 39.75 74.21875 46.484375 68.546875 
Q 53.21875 62.890625 53.21875 53.421875 
Q 53.21875 48.921875 51.53125 44.890625 
Q 49.859375 40.875 45.40625 35.40625 
Q 44.1875 33.984375 37.640625 27.21875 
Q 31.109375 20.453125 19.1875 8.296875 
z
" id="DejaVuSans-50"/>
       </defs>
       <use xlink:href="#DejaVuSans-50"/>
       <use x="63.623047" xlink:href="#DejaVuSans-48"/>
      </g>
     </g>
    </g>
    <g id="ytick_3">
     <g id="line2d_9">
      <path clip-path="url(#pa6c74d022b)" d="M 49.869063 165.805625 
L 235.869063 165.805625 
" style="fill:none;stroke:#000000;stroke-linecap:square;stroke-opacity:0.5;stroke-width:0.8;"/>
     </g>
     <g id="line2d_10">
      <g>
       <use style="stroke:#000000;stroke-width:0.8;" x="49.869063" xlink:href="#mf41dc6e407" y="165.805625"/>
      </g>
     </g>
     <g id="text_6">
      <!-- 40 -->
      <g transform="translate(30.144063 169.604844)scale(0.1 -0.1)">
       <defs>
        <path d="M 37.796875 64.3125 
L 12.890625 25.390625 
L 37.796875 25.390625 
z
M 35.203125 72.90625 
L 47.609375 72.90625 
L 47.609375 25.390625 
L 58.015625 25.390625 
L 58.015625 17.1875 
L 47.609375 17.1875 
L 47.609375 0 
L 37.796875 0 
L 37.796875 17.1875 
L 4.890625 17.1875 
L 4.890625 26.703125 
z
" id="DejaVuSans-52"/>
       </defs>
       <use xlink:href="#DejaVuSans-52"/>
       <use x="63.623047" xlink:href="#DejaVuSans-48"/>
      </g>
     </g>
    </g>
    <g id="ytick_4">
     <g id="line2d_11">
      <path clip-path="url(#pa6c74d022b)" d="M 49.869063 144.149375 
L 235.869063 144.149375 
" style="fill:none;stroke:#000000;stroke-linecap:square;stroke-opacity:0.5;stroke-width:0.8;"/>
     </g>
     <g id="line2d_12">
      <g>
       <use style="stroke:#000000;stroke-width:0.8;" x="49.869063" xlink:href="#mf41dc6e407" y="144.149375"/>
      </g>
     </g>
     <g id="text_7">
      <!-- 60 -->
      <g transform="translate(30.144063 147.948594)scale(0.1 -0.1)">
       <defs>
        <path d="M 33.015625 40.375 
Q 26.375 40.375 22.484375 35.828125 
Q 18.609375 31.296875 18.609375 23.390625 
Q 18.609375 15.53125 22.484375 10.953125 
Q 26.375 6.390625 33.015625 6.390625 
Q 39.65625 6.390625 43.53125 10.953125 
Q 47.40625 15.53125 47.40625 23.390625 
Q 47.40625 31.296875 43.53125 35.828125 
Q 39.65625 40.375 33.015625 40.375 
z
M 52.59375 71.296875 
L 52.59375 62.3125 
Q 48.875 64.0625 45.09375 64.984375 
Q 41.3125 65.921875 37.59375 65.921875 
Q 27.828125 65.921875 22.671875 59.328125 
Q 17.53125 52.734375 16.796875 39.40625 
Q 19.671875 43.65625 24.015625 45.921875 
Q 28.375 48.1875 33.59375 48.1875 
Q 44.578125 48.1875 50.953125 41.515625 
Q 57.328125 34.859375 57.328125 23.390625 
Q 57.328125 12.15625 50.6875 5.359375 
Q 44.046875 -1.421875 33.015625 -1.421875 
Q 20.359375 -1.421875 13.671875 8.265625 
Q 6.984375 17.96875 6.984375 36.375 
Q 6.984375 53.65625 15.1875 63.9375 
Q 23.390625 74.21875 37.203125 74.21875 
Q 40.921875 74.21875 44.703125 73.484375 
Q 48.484375 72.75 52.59375 71.296875 
z
" id="DejaVuSans-54"/>
       </defs>
       <use xlink:href="#DejaVuSans-54"/>
       <use x="63.623047" xlink:href="#DejaVuSans-48"/>
      </g>
     </g>
    </g>
    <g id="ytick_5">
     <g id="line2d_13">
      <path clip-path="url(#pa6c74d022b)" d="M 49.869063 122.493125 
L 235.869063 122.493125 
" style="fill:none;stroke:#000000;stroke-linecap:square;stroke-opacity:0.5;stroke-width:0.8;"/>
     </g>
     <g id="line2d_14">
      <g>
       <use style="stroke:#000000;stroke-width:0.8;" x="49.869063" xlink:href="#mf41dc6e407" y="122.493125"/>
      </g>
     </g>
     <g id="text_8">
      <!-- 80 -->
      <g transform="translate(30.144063 126.292344)scale(0.1 -0.1)">
       <defs>
        <path d="M 31.78125 34.625 
Q 24.75 34.625 20.71875 30.859375 
Q 16.703125 27.09375 16.703125 20.515625 
Q 16.703125 13.921875 20.71875 10.15625 
Q 24.75 6.390625 31.78125 6.390625 
Q 38.8125 6.390625 42.859375 10.171875 
Q 46.921875 13.96875 46.921875 20.515625 
Q 46.921875 27.09375 42.890625 30.859375 
Q 38.875 34.625 31.78125 34.625 
z
M 21.921875 38.8125 
Q 15.578125 40.375 12.03125 44.71875 
Q 8.5 49.078125 8.5 55.328125 
Q 8.5 64.0625 14.71875 69.140625 
Q 20.953125 74.21875 31.78125 74.21875 
Q 42.671875 74.21875 48.875 69.140625 
Q 55.078125 64.0625 55.078125 55.328125 
Q 55.078125 49.078125 51.53125 44.71875 
Q 48 40.375 41.703125 38.8125 
Q 48.828125 37.15625 52.796875 32.3125 
Q 56.78125 27.484375 56.78125 20.515625 
Q 56.78125 9.90625 50.3125 4.234375 
Q 43.84375 -1.421875 31.78125 -1.421875 
Q 19.734375 -1.421875 13.25 4.234375 
Q 6.78125 9.90625 6.78125 20.515625 
Q 6.78125 27.484375 10.78125 32.3125 
Q 14.796875 37.15625 21.921875 38.8125 
z
M 18.3125 54.390625 
Q 18.3125 48.734375 21.84375 45.5625 
Q 25.390625 42.390625 31.78125 42.390625 
Q 38.140625 42.390625 41.71875 45.5625 
Q 45.3125 48.734375 45.3125 54.390625 
Q 45.3125 60.0625 41.71875 63.234375 
Q 38.140625 66.40625 31.78125 66.40625 
Q 25.390625 66.40625 21.84375 63.234375 
Q 18.3125 60.0625 18.3125 54.390625 
z
" id="DejaVuSans-56"/>
       </defs>
       <use xlink:href="#DejaVuSans-56"/>
       <use x="63.623047" xlink:href="#DejaVuSans-48"/>
      </g>
     </g>
    </g>
    <g id="ytick_6">
     <g id="line2d_15">
      <path clip-path="url(#pa6c74d022b)" d="M 49.869063 100.836875 
L 235.869063 100.836875 
" style="fill:none;stroke:#000000;stroke-linecap:square;stroke-opacity:0.5;stroke-width:0.8;"/>
     </g>
     <g id="line2d_16">
      <g>
       <use style="stroke:#000000;stroke-width:0.8;" x="49.869063" xlink:href="#mf41dc6e407" y="100.836875"/>
      </g>
     </g>
     <g id="text_9">
      <!-- 100 -->
      <g transform="translate(23.781563 104.636094)scale(0.1 -0.1)">
       <defs>
        <path d="M 12.40625 8.296875 
L 28.515625 8.296875 
L 28.515625 63.921875 
L 10.984375 60.40625 
L 10.984375 69.390625 
L 28.421875 72.90625 
L 38.28125 72.90625 
L 38.28125 8.296875 
L 54.390625 8.296875 
L 54.390625 0 
L 12.40625 0 
z
" id="DejaVuSans-49"/>
       </defs>
       <use xlink:href="#DejaVuSans-49"/>
       <use x="63.623047" xlink:href="#DejaVuSans-48"/>
       <use x="127.246094" xlink:href="#DejaVuSans-48"/>
      </g>
     </g>
    </g>
    <g id="ytick_7">
     <g id="line2d_17">
      <path clip-path="url(#pa6c74d022b)" d="M 49.869063 79.180625 
L 235.869063 79.180625 
" style="fill:none;stroke:#000000;stroke-linecap:square;stroke-opacity:0.5;stroke-width:0.8;"/>
     </g>
     <g id="line2d_18">
      <g>
       <use style="stroke:#000000;stroke-width:0.8;" x="49.869063" xlink:href="#mf41dc6e407" y="79.180625"/>
      </g>
     </g>
     <g id="text_10">
      <!-- 120 -->
      <g transform="translate(23.781563 82.979844)scale(0.1 -0.1)">
       <use xlink:href="#DejaVuSans-49"/>
       <use x="63.623047" xlink:href="#DejaVuSans-50"/>
       <use x="127.246094" xlink:href="#DejaVuSans-48"/>
      </g>
     </g>
    </g>
    <g id="ytick_8">
     <g id="line2d_19">
      <path clip-path="url(#pa6c74d022b)" d="M 49.869063 57.524375 
L 235.869063 57.524375 
" style="fill:none;stroke:#000000;stroke-linecap:square;stroke-opacity:0.5;stroke-width:0.8;"/>
     </g>
     <g id="line2d_20">
      <g>
       <use style="stroke:#000000;stroke-width:0.8;" x="49.869063" xlink:href="#mf41dc6e407" y="57.524375"/>
      </g>
     </g>
     <g id="text_11">
      <!-- 140 -->
      <g transform="translate(23.781563 61.323594)scale(0.1 -0.1)">
       <use xlink:href="#DejaVuSans-49"/>
       <use x="63.623047" xlink:href="#DejaVuSans-52"/>
       <use x="127.246094" xlink:href="#DejaVuSans-48"/>
      </g>
     </g>
    </g>
    <g id="text_12">
     <!-- Node count -->
     <g transform="translate(17.077969 167.867891)rotate(-90)scale(0.13 -0.13)">
      <defs>
       <path d="M 58.109375 52.984375 
L 55.328125 38.71875 
Q 51.8125 41.0625 48.390625 42.28125 
Q 44.96875 43.5 41.703125 43.5 
Q 33.15625 43.5 27.734375 37.765625 
Q 22.3125 32.03125 22.3125 23.09375 
Q 22.3125 17.390625 25.671875 14.234375 
Q 29.046875 11.078125 35.203125 11.078125 
Q 39.3125 11.078125 43.265625 12.296875 
Q 47.21875 13.53125 50.78125 15.921875 
L 48.09375 1.609375 
Q 43.75 0.09375 39.359375 -0.65625 
Q 34.96875 -1.421875 30.515625 -1.421875 
Q 17.625 -1.421875 10.671875 4.359375 
Q 3.71875 10.15625 3.71875 20.796875 
Q 3.71875 27.484375 6.28125 33.78125 
Q 8.84375 40.09375 13.625 45.125 
Q 18.953125 50.640625 25.828125 53.3125 
Q 32.71875 56 41.703125 56 
Q 45.84375 56 49.9375 55.25 
Q 54.046875 54.5 58.109375 52.984375 
z
" id="DejaVuSans-BoldOblique-99"/>
       <path d="M 6.78125 21.296875 
L 13.1875 54.6875 
L 30.71875 54.6875 
L 25.203125 26.21875 
Q 24.609375 23.4375 24.3125 21.484375 
Q 24.03125 19.53125 24.03125 18.40625 
Q 24.03125 15.328125 25.734375 13.625 
Q 27.4375 11.921875 30.609375 11.921875 
Q 36.03125 11.921875 39.9375 16.109375 
Q 43.84375 20.3125 45.3125 27.78125 
L 50.59375 54.6875 
L 68.109375 54.6875 
L 57.515625 0 
L 39.890625 0 
L 41.5 8.015625 
Q 37.015625 3.265625 32.078125 0.921875 
Q 27.15625 -1.421875 21.6875 -1.421875 
Q 14.203125 -1.421875 10.09375 2.53125 
Q 6 6.5 6 13.71875 
Q 6 15.4375 6.1875 17.328125 
Q 6.390625 19.234375 6.78125 21.296875 
z
" id="DejaVuSans-BoldOblique-117"/>
       <path d="M 64.5 33.296875 
L 58.015625 0 
L 40.484375 0 
L 46 28.515625 
Q 46.578125 31.296875 46.890625 33.21875 
Q 47.21875 35.15625 47.21875 36.28125 
Q 47.21875 39.40625 45.484375 41.109375 
Q 43.75 42.828125 40.578125 42.828125 
Q 35.15625 42.828125 31.265625 38.59375 
Q 27.390625 34.375 25.875 26.90625 
L 20.609375 0 
L 3.078125 0 
L 13.71875 54.6875 
L 31.296875 54.6875 
L 29.6875 46.6875 
Q 34.515625 51.421875 39.390625 53.703125 
Q 44.28125 56 49.609375 56 
Q 57.171875 56 61.265625 52.046875 
Q 65.375 48.09375 65.375 40.921875 
Q 65.375 39.359375 65.15625 37.453125 
Q 64.9375 35.546875 64.5 33.296875 
z
" id="DejaVuSans-BoldOblique-110"/>
      </defs>
      <use xlink:href="#DejaVuSans-BoldOblique-78"/>
      <use x="83.691406" xlink:href="#DejaVuSans-BoldOblique-111"/>
      <use x="152.392578" xlink:href="#DejaVuSans-BoldOblique-100"/>
      <use x="223.974609" xlink:href="#DejaVuSans-BoldOblique-101"/>
      <use x="291.796875" xlink:href="#DejaVuSans-BoldOblique-32"/>
      <use x="326.611328" xlink:href="#DejaVuSans-BoldOblique-99"/>
      <use x="385.888672" xlink:href="#DejaVuSans-BoldOblique-111"/>
      <use x="454.589844" xlink:href="#DejaVuSans-BoldOblique-117"/>
      <use x="525.78125" xlink:href="#DejaVuSans-BoldOblique-110"/>
      <use x="596.972656" xlink:href="#DejaVuSans-BoldOblique-116"/>
     </g>
    </g>
   </g>
   <g id="patch_3">
    <path d="M 49.869063 209.118125 
L 49.869063 42.798125 
" style="fill:none;stroke:#000000;stroke-linecap:square;stroke-linejoin:miter;stroke-width:0.8;"/>
   </g>
   <g id="patch_4">
    <path d="M 235.869063 209.118125 
L 235.869063 42.798125 
" style="fill:none;stroke:#000000;stroke-linecap:square;stroke-linejoin:miter;stroke-width:0.8;"/>
   </g>
   <g id="patch_5">
    <path d="M 49.869063 209.118125 
L 235.869063 209.118125 
" style="fill:none;stroke:#000000;stroke-linecap:square;stroke-linejoin:miter;stroke-width:0.8;"/>
   </g>
   <g id="patch_6">
    <path d="M 49.869063 42.798125 
L 235.869063 42.798125 
" style="fill:none;stroke:#000000;stroke-linecap:square;stroke-linejoin:miter;stroke-width:0.8;"/>
   </g>
   <g id="legend_1">
    <g id="patch_7">
     <path d="M 71.284688 94.8325 
L 214.453438 94.8325 
Q 216.453438 94.8325 216.453438 92.8325 
L 216.453438 49.798125 
Q 216.453438 47.798125 214.453438 47.798125 
L 71.284688 47.798125 
Q 69.284688 47.798125 69.284688 49.798125 
L 69.284688 92.8325 
Q 69.284688 94.8325 71.284688 94.8325 
z
" style="fill:#ffffff;stroke:#000000;stroke-linejoin:miter;"/>
    </g>
    <g id="patch_8">
     <path d="M 73.284688 59.396563 
L 93.284688 59.396563 
L 93.284688 52.396563 
L 73.284688 52.396563 
z
" style="fill:#a9a9a9;opacity:0.95;stroke:#000000;stroke-linejoin:miter;"/>
    </g>
    <g id="text_13">
     <!-- Sets 1 and 2 cross-cut -->
     <g transform="translate(101.284688 59.396563)scale(0.1 -0.1)">
      <defs>
       <path d="M 53.515625 70.515625 
L 53.515625 60.890625 
Q 47.90625 63.578125 42.921875 64.890625 
Q 37.9375 66.21875 33.296875 66.21875 
Q 25.25 66.21875 20.875 63.09375 
Q 16.5 59.96875 16.5 54.203125 
Q 16.5 49.359375 19.40625 46.890625 
Q 22.3125 44.4375 30.421875 42.921875 
L 36.375 41.703125 
Q 47.40625 39.59375 52.65625 34.296875 
Q 57.90625 29 57.90625 20.125 
Q 57.90625 9.515625 50.796875 4.046875 
Q 43.703125 -1.421875 29.984375 -1.421875 
Q 24.8125 -1.421875 18.96875 -0.25 
Q 13.140625 0.921875 6.890625 3.21875 
L 6.890625 13.375 
Q 12.890625 10.015625 18.65625 8.296875 
Q 24.421875 6.59375 29.984375 6.59375 
Q 38.421875 6.59375 43.015625 9.90625 
Q 47.609375 13.234375 47.609375 19.390625 
Q 47.609375 24.75 44.3125 27.78125 
Q 41.015625 30.8125 33.5 32.328125 
L 27.484375 33.5 
Q 16.453125 35.6875 11.515625 40.375 
Q 6.59375 45.0625 6.59375 53.421875 
Q 6.59375 63.09375 13.40625 68.65625 
Q 20.21875 74.21875 32.171875 74.21875 
Q 37.3125 74.21875 42.625 73.28125 
Q 47.953125 72.359375 53.515625 70.515625 
z
" id="DejaVuSans-83"/>
       <path d="M 56.203125 29.59375 
L 56.203125 25.203125 
L 14.890625 25.203125 
Q 15.484375 15.921875 20.484375 11.0625 
Q 25.484375 6.203125 34.421875 6.203125 
Q 39.59375 6.203125 44.453125 7.46875 
Q 49.3125 8.734375 54.109375 11.28125 
L 54.109375 2.78125 
Q 49.265625 0.734375 44.1875 -0.34375 
Q 39.109375 -1.421875 33.890625 -1.421875 
Q 20.796875 -1.421875 13.15625 6.1875 
Q 5.515625 13.8125 5.515625 26.8125 
Q 5.515625 40.234375 12.765625 48.109375 
Q 20.015625 56 32.328125 56 
Q 43.359375 56 49.78125 48.890625 
Q 56.203125 41.796875 56.203125 29.59375 
z
M 47.21875 32.234375 
Q 47.125 39.59375 43.09375 43.984375 
Q 39.0625 48.390625 32.421875 48.390625 
Q 24.90625 48.390625 20.390625 44.140625 
Q 15.875 39.890625 15.1875 32.171875 
z
" id="DejaVuSans-101"/>
       <path d="M 18.3125 70.21875 
L 18.3125 54.6875 
L 36.8125 54.6875 
L 36.8125 47.703125 
L 18.3125 47.703125 
L 18.3125 18.015625 
Q 18.3125 11.328125 20.140625 9.421875 
Q 21.96875 7.515625 27.59375 7.515625 
L 36.8125 7.515625 
L 36.8125 0 
L 27.59375 0 
Q 17.1875 0 13.234375 3.875 
Q 9.28125 7.765625 9.28125 18.015625 
L 9.28125 47.703125 
L 2.6875 47.703125 
L 2.6875 54.6875 
L 9.28125 54.6875 
L 9.28125 70.21875 
z
" id="DejaVuSans-116"/>
       <path d="M 44.28125 53.078125 
L 44.28125 44.578125 
Q 40.484375 46.53125 36.375 47.5 
Q 32.28125 48.484375 27.875 48.484375 
Q 21.1875 48.484375 17.84375 46.4375 
Q 14.5 44.390625 14.5 40.28125 
Q 14.5 37.15625 16.890625 35.375 
Q 19.28125 33.59375 26.515625 31.984375 
L 29.59375 31.296875 
Q 39.15625 29.25 43.1875 25.515625 
Q 47.21875 21.78125 47.21875 15.09375 
Q 47.21875 7.46875 41.1875 3.015625 
Q 35.15625 -1.421875 24.609375 -1.421875 
Q 20.21875 -1.421875 15.453125 -0.5625 
Q 10.6875 0.296875 5.421875 2 
L 5.421875 11.28125 
Q 10.40625 8.6875 15.234375 7.390625 
Q 20.0625 6.109375 24.8125 6.109375 
Q 31.15625 6.109375 34.5625 8.28125 
Q 37.984375 10.453125 37.984375 14.40625 
Q 37.984375 18.0625 35.515625 20.015625 
Q 33.0625 21.96875 24.703125 23.78125 
L 21.578125 24.515625 
Q 13.234375 26.265625 9.515625 29.90625 
Q 5.8125 33.546875 5.8125 39.890625 
Q 5.8125 47.609375 11.28125 51.796875 
Q 16.75 56 26.8125 56 
Q 31.78125 56 36.171875 55.265625 
Q 40.578125 54.546875 44.28125 53.078125 
z
" id="DejaVuSans-115"/>
       <path id="DejaVuSans-32"/>
       <path d="M 34.28125 27.484375 
Q 23.390625 27.484375 19.1875 25 
Q 14.984375 22.515625 14.984375 16.5 
Q 14.984375 11.71875 18.140625 8.90625 
Q 21.296875 6.109375 26.703125 6.109375 
Q 34.1875 6.109375 38.703125 11.40625 
Q 43.21875 16.703125 43.21875 25.484375 
L 43.21875 27.484375 
z
M 52.203125 31.203125 
L 52.203125 0 
L 43.21875 0 
L 43.21875 8.296875 
Q 40.140625 3.328125 35.546875 0.953125 
Q 30.953125 -1.421875 24.3125 -1.421875 
Q 15.921875 -1.421875 10.953125 3.296875 
Q 6 8.015625 6 15.921875 
Q 6 25.140625 12.171875 29.828125 
Q 18.359375 34.515625 30.609375 34.515625 
L 43.21875 34.515625 
L 43.21875 35.40625 
Q 43.21875 41.609375 39.140625 45 
Q 35.0625 48.390625 27.6875 48.390625 
Q 23 48.390625 18.546875 47.265625 
Q 14.109375 46.140625 10.015625 43.890625 
L 10.015625 52.203125 
Q 14.9375 54.109375 19.578125 55.046875 
Q 24.21875 56 28.609375 56 
Q 40.484375 56 46.34375 49.84375 
Q 52.203125 43.703125 52.203125 31.203125 
z
" id="DejaVuSans-97"/>
       <path d="M 54.890625 33.015625 
L 54.890625 0 
L 45.90625 0 
L 45.90625 32.71875 
Q 45.90625 40.484375 42.875 44.328125 
Q 39.84375 48.1875 33.796875 48.1875 
Q 26.515625 48.1875 22.3125 43.546875 
Q 18.109375 38.921875 18.109375 30.90625 
L 18.109375 0 
L 9.078125 0 
L 9.078125 54.6875 
L 18.109375 54.6875 
L 18.109375 46.1875 
Q 21.34375 51.125 25.703125 53.5625 
Q 30.078125 56 35.796875 56 
Q 45.21875 56 50.046875 50.171875 
Q 54.890625 44.34375 54.890625 33.015625 
z
" id="DejaVuSans-110"/>
       <path d="M 45.40625 46.390625 
L 45.40625 75.984375 
L 54.390625 75.984375 
L 54.390625 0 
L 45.40625 0 
L 45.40625 8.203125 
Q 42.578125 3.328125 38.25 0.953125 
Q 33.9375 -1.421875 27.875 -1.421875 
Q 17.96875 -1.421875 11.734375 6.484375 
Q 5.515625 14.40625 5.515625 27.296875 
Q 5.515625 40.1875 11.734375 48.09375 
Q 17.96875 56 27.875 56 
Q 33.9375 56 38.25 53.625 
Q 42.578125 51.265625 45.40625 46.390625 
z
M 14.796875 27.296875 
Q 14.796875 17.390625 18.875 11.75 
Q 22.953125 6.109375 30.078125 6.109375 
Q 37.203125 6.109375 41.296875 11.75 
Q 45.40625 17.390625 45.40625 27.296875 
Q 45.40625 37.203125 41.296875 42.84375 
Q 37.203125 48.484375 30.078125 48.484375 
Q 22.953125 48.484375 18.875 42.84375 
Q 14.796875 37.203125 14.796875 27.296875 
z
" id="DejaVuSans-100"/>
       <path d="M 48.78125 52.59375 
L 48.78125 44.1875 
Q 44.96875 46.296875 41.140625 47.34375 
Q 37.3125 48.390625 33.40625 48.390625 
Q 24.65625 48.390625 19.8125 42.84375 
Q 14.984375 37.3125 14.984375 27.296875 
Q 14.984375 17.28125 19.8125 11.734375 
Q 24.65625 6.203125 33.40625 6.203125 
Q 37.3125 6.203125 41.140625 7.25 
Q 44.96875 8.296875 48.78125 10.40625 
L 48.78125 2.09375 
Q 45.015625 0.34375 40.984375 -0.53125 
Q 36.96875 -1.421875 32.421875 -1.421875 
Q 20.0625 -1.421875 12.78125 6.34375 
Q 5.515625 14.109375 5.515625 27.296875 
Q 5.515625 40.671875 12.859375 48.328125 
Q 20.21875 56 33.015625 56 
Q 37.15625 56 41.109375 55.140625 
Q 45.0625 54.296875 48.78125 52.59375 
z
" id="DejaVuSans-99"/>
       <path d="M 41.109375 46.296875 
Q 39.59375 47.171875 37.8125 47.578125 
Q 36.03125 48 33.890625 48 
Q 26.265625 48 22.1875 43.046875 
Q 18.109375 38.09375 18.109375 28.8125 
L 18.109375 0 
L 9.078125 0 
L 9.078125 54.6875 
L 18.109375 54.6875 
L 18.109375 46.1875 
Q 20.953125 51.171875 25.484375 53.578125 
Q 30.03125 56 36.53125 56 
Q 37.453125 56 38.578125 55.875 
Q 39.703125 55.765625 41.0625 55.515625 
z
" id="DejaVuSans-114"/>
       <path d="M 30.609375 48.390625 
Q 23.390625 48.390625 19.1875 42.75 
Q 14.984375 37.109375 14.984375 27.296875 
Q 14.984375 17.484375 19.15625 11.84375 
Q 23.34375 6.203125 30.609375 6.203125 
Q 37.796875 6.203125 41.984375 11.859375 
Q 46.1875 17.53125 46.1875 27.296875 
Q 46.1875 37.015625 41.984375 42.703125 
Q 37.796875 48.390625 30.609375 48.390625 
z
M 30.609375 56 
Q 42.328125 56 49.015625 48.375 
Q 55.71875 40.765625 55.71875 27.296875 
Q 55.71875 13.875 49.015625 6.21875 
Q 42.328125 -1.421875 30.609375 -1.421875 
Q 18.84375 -1.421875 12.171875 6.21875 
Q 5.515625 13.875 5.515625 27.296875 
Q 5.515625 40.765625 12.171875 48.375 
Q 18.84375 56 30.609375 56 
z
" id="DejaVuSans-111"/>
       <path d="M 4.890625 31.390625 
L 31.203125 31.390625 
L 31.203125 23.390625 
L 4.890625 23.390625 
z
" id="DejaVuSans-45"/>
       <path d="M 8.5 21.578125 
L 8.5 54.6875 
L 17.484375 54.6875 
L 17.484375 21.921875 
Q 17.484375 14.15625 20.5 10.265625 
Q 23.53125 6.390625 29.59375 6.390625 
Q 36.859375 6.390625 41.078125 11.03125 
Q 45.3125 15.671875 45.3125 23.6875 
L 45.3125 54.6875 
L 54.296875 54.6875 
L 54.296875 0 
L 45.3125 0 
L 45.3125 8.40625 
Q 42.046875 3.421875 37.71875 1 
Q 33.40625 -1.421875 27.6875 -1.421875 
Q 18.265625 -1.421875 13.375 4.4375 
Q 8.5 10.296875 8.5 21.578125 
z
M 31.109375 56 
z
" id="DejaVuSans-117"/>
      </defs>
      <use xlink:href="#DejaVuSans-83"/>
      <use x="63.476562" xlink:href="#DejaVuSans-101"/>
      <use x="125" xlink:href="#DejaVuSans-116"/>
      <use x="164.208984" xlink:href="#DejaVuSans-115"/>
      <use x="216.308594" xlink:href="#DejaVuSans-32"/>
      <use x="248.095703" xlink:href="#DejaVuSans-49"/>
      <use x="311.71875" xlink:href="#DejaVuSans-32"/>
      <use x="343.505859" xlink:href="#DejaVuSans-97"/>
      <use x="404.785156" xlink:href="#DejaVuSans-110"/>
      <use x="468.164062" xlink:href="#DejaVuSans-100"/>
      <use x="531.640625" xlink:href="#DejaVuSans-32"/>
      <use x="563.427734" xlink:href="#DejaVuSans-50"/>
      <use x="627.050781" xlink:href="#DejaVuSans-32"/>
      <use x="658.837891" xlink:href="#DejaVuSans-99"/>
      <use x="713.818359" xlink:href="#DejaVuSans-114"/>
      <use x="752.681641" xlink:href="#DejaVuSans-111"/>
      <use x="813.863281" xlink:href="#DejaVuSans-115"/>
      <use x="865.962891" xlink:href="#DejaVuSans-115"/>
      <use x="918.0625" xlink:href="#DejaVuSans-45"/>
      <use x="954.146484" xlink:href="#DejaVuSans-99"/>
      <use x="1009.126953" xlink:href="#DejaVuSans-117"/>
      <use x="1072.505859" xlink:href="#DejaVuSans-116"/>
     </g>
    </g>
    <g id="patch_9">
     <path d="M 73.284688 74.074688 
L 93.284688 74.074688 
L 93.284688 67.074688 
L 73.284688 67.074688 
z
" style="fill:#556b2f;opacity:0.95;stroke:#000000;stroke-linejoin:miter;"/>
    </g>
    <g id="text_14">
     <!-- Set 1 abuts to set 2 -->
     <g transform="translate(101.284688 74.074688)scale(0.1 -0.1)">
      <defs>
       <path d="M 48.6875 27.296875 
Q 48.6875 37.203125 44.609375 42.84375 
Q 40.53125 48.484375 33.40625 48.484375 
Q 26.265625 48.484375 22.1875 42.84375 
Q 18.109375 37.203125 18.109375 27.296875 
Q 18.109375 17.390625 22.1875 11.75 
Q 26.265625 6.109375 33.40625 6.109375 
Q 40.53125 6.109375 44.609375 11.75 
Q 48.6875 17.390625 48.6875 27.296875 
z
M 18.109375 46.390625 
Q 20.953125 51.265625 25.265625 53.625 
Q 29.59375 56 35.59375 56 
Q 45.5625 56 51.78125 48.09375 
Q 58.015625 40.1875 58.015625 27.296875 
Q 58.015625 14.40625 51.78125 6.484375 
Q 45.5625 -1.421875 35.59375 -1.421875 
Q 29.59375 -1.421875 25.265625 0.953125 
Q 20.953125 3.328125 18.109375 8.203125 
L 18.109375 0 
L 9.078125 0 
L 9.078125 75.984375 
L 18.109375 75.984375 
z
" id="DejaVuSans-98"/>
      </defs>
      <use xlink:href="#DejaVuSans-83"/>
      <use x="63.476562" xlink:href="#DejaVuSans-101"/>
      <use x="125" xlink:href="#DejaVuSans-116"/>
      <use x="164.208984" xlink:href="#DejaVuSans-32"/>
      <use x="195.996094" xlink:href="#DejaVuSans-49"/>
      <use x="259.619141" xlink:href="#DejaVuSans-32"/>
      <use x="291.40625" xlink:href="#DejaVuSans-97"/>
      <use x="352.685547" xlink:href="#DejaVuSans-98"/>
      <use x="416.162109" xlink:href="#DejaVuSans-117"/>
      <use x="479.541016" xlink:href="#DejaVuSans-116"/>
      <use x="518.75" xlink:href="#DejaVuSans-115"/>
      <use x="570.849609" xlink:href="#DejaVuSans-32"/>
      <use x="602.636719" xlink:href="#DejaVuSans-116"/>
      <use x="641.845703" xlink:href="#DejaVuSans-111"/>
      <use x="703.027344" xlink:href="#DejaVuSans-32"/>
      <use x="734.814453" xlink:href="#DejaVuSans-115"/>
      <use x="786.914062" xlink:href="#DejaVuSans-101"/>
      <use x="848.4375" xlink:href="#DejaVuSans-116"/>
      <use x="887.646484" xlink:href="#DejaVuSans-32"/>
      <use x="919.433594" xlink:href="#DejaVuSans-50"/>
     </g>
    </g>
    <g id="patch_10">
     <path d="M 73.284688 88.752813 
L 93.284688 88.752813 
L 93.284688 81.752813 
L 73.284688 81.752813 
z
" style="fill:#8fbc8f;opacity:0.95;stroke:#000000;stroke-linejoin:miter;"/>
    </g>
    <g id="text_15">
     <!-- Set 2 abuts to set 1 -->
     <g transform="translate(101.284688 88.752813)scale(0.1 -0.1)">
      <use xlink:href="#DejaVuSans-83"/>
      <use x="63.476562" xlink:href="#DejaVuSans-101"/>
      <use x="125" xlink:href="#DejaVuSans-116"/>
      <use x="164.208984" xlink:href="#DejaVuSans-32"/>
      <use x="195.996094" xlink:href="#DejaVuSans-50"/>
      <use x="259.619141" xlink:href="#DejaVuSans-32"/>
      <use x="291.40625" xlink:href="#DejaVuSans-97"/>
      <use x="352.685547" xlink:href="#DejaVuSans-98"/>
      <use x="416.162109" xlink:href="#DejaVuSans-117"/>
      <use x="479.541016" xlink:href="#DejaVuSans-116"/>
      <use x="518.75" xlink:href="#DejaVuSans-115"/>
      <use x="570.849609" xlink:href="#DejaVuSans-32"/>
      <use x="602.636719" xlink:href="#DejaVuSans-116"/>
      <use x="641.845703" xlink:href="#DejaVuSans-111"/>
      <use x="703.027344" xlink:href="#DejaVuSans-32"/>
      <use x="734.814453" xlink:href="#DejaVuSans-115"/>
      <use x="786.914062" xlink:href="#DejaVuSans-101"/>
      <use x="848.4375" xlink:href="#DejaVuSans-116"/>
      <use x="887.646484" xlink:href="#DejaVuSans-32"/>
      <use x="919.433594" xlink:href="#DejaVuSans-49"/>
     </g>
    </g>
   </g>
   <g id="patch_11">
    <path clip-path="url(#pa6c74d022b)" d="M 58.323608 209.118125 
L 95.899366 209.118125 
L 95.899366 184.213437 
L 58.323608 184.213437 
z
" style="fill:#a9a9a9;opacity:0.95;stroke:#000000;stroke-linejoin:miter;"/>
   </g>
   <g id="patch_12">
    <path clip-path="url(#pa6c74d022b)" d="M 152.263002 209.118125 
L 189.838759 209.118125 
L 189.838759 105.168125 
L 152.263002 105.168125 
z
" style="fill:#556b2f;opacity:0.95;stroke:#000000;stroke-linejoin:miter;"/>
   </g>
   <g id="patch_13">
    <path clip-path="url(#pa6c74d022b)" d="M 189.838759 209.118125 
L 227.414517 209.118125 
L 227.414517 190.710312 
L 189.838759 190.710312 
z
" style="fill:#8fbc8f;opacity:0.95;stroke:#000000;stroke-linejoin:miter;"/>
   </g>
  </g>
  <g id="axes_2">
   <g id="patch_14">
    <path d="M 291.669062 209.118125 
L 477.669063 209.118125 
L 477.669063 42.798125 
L 291.669062 42.798125 
z
" style="fill:#ffffff;"/>
   </g>
   <g id="matplotlib.axis_3">
    <g id="xtick_3">
     <g id="line2d_21">
      <path clip-path="url(#p845a657267)" d="M 318.911487 209.118125 
L 318.911487 42.798125 
" style="fill:none;stroke:#000000;stroke-linecap:square;stroke-opacity:0.5;stroke-width:0.8;"/>
     </g>
     <g id="line2d_22">
      <g>
       <use style="stroke:#000000;stroke-width:0.8;" x="318.911487" xlink:href="#m970caf0428" y="209.118125"/>
      </g>
     </g>
     <g id="text_16">
      <!-- X -->
      <g transform="translate(314.285862 225.23625)scale(0.12 -0.12)">
       <use xlink:href="#DejaVuSans-Bold-88"/>
      </g>
     </g>
    </g>
    <g id="xtick_4">
     <g id="line2d_23">
      <path clip-path="url(#p845a657267)" d="M 431.638759 209.118125 
L 431.638759 42.798125 
" style="fill:none;stroke:#000000;stroke-linecap:square;stroke-opacity:0.5;stroke-width:0.8;"/>
     </g>
     <g id="line2d_24">
      <g>
       <use style="stroke:#000000;stroke-width:0.8;" x="431.638759" xlink:href="#m970caf0428" y="209.118125"/>
      </g>
     </g>
     <g id="text_17">
      <!-- Y -->
      <g transform="translate(427.294384 225.23625)scale(0.12 -0.12)">
       <use xlink:href="#DejaVuSans-Bold-89"/>
      </g>
     </g>
    </g>
    <g id="text_18">
     <!-- Node type -->
     <g transform="translate(347.034063 241.609844)scale(0.13 -0.13)">
      <use xlink:href="#DejaVuSans-BoldOblique-78"/>
      <use x="83.691406" xlink:href="#DejaVuSans-BoldOblique-111"/>
      <use x="152.392578" xlink:href="#DejaVuSans-BoldOblique-100"/>
      <use x="223.974609" xlink:href="#DejaVuSans-BoldOblique-101"/>
      <use x="291.796875" xlink:href="#DejaVuSans-BoldOblique-32"/>
      <use x="326.611328" xlink:href="#DejaVuSans-BoldOblique-116"/>
      <use x="374.414062" xlink:href="#DejaVuSans-BoldOblique-121"/>
      <use x="439.599609" xlink:href="#DejaVuSans-BoldOblique-112"/>
      <use x="511.181641" xlink:href="#DejaVuSans-BoldOblique-101"/>
     </g>
    </g>
   </g>
   <g id="matplotlib.axis_4">
    <g id="ytick_9">
     <g id="line2d_25">
      <path clip-path="url(#p845a657267)" d="M 291.669062 209.118125 
L 477.669063 209.118125 
" style="fill:none;stroke:#000000;stroke-linecap:square;stroke-opacity:0.5;stroke-width:0.8;"/>
     </g>
     <g id="line2d_26">
      <g>
       <use style="stroke:#000000;stroke-width:0.8;" x="291.669062" xlink:href="#mf41dc6e407" y="209.118125"/>
      </g>
     </g>
     <g id="text_19">
      <!-- 0 -->
      <g transform="translate(278.306562 212.917344)scale(0.1 -0.1)">
       <use xlink:href="#DejaVuSans-48"/>
      </g>
     </g>
    </g>
    <g id="ytick_10">
     <g id="line2d_27">
      <path clip-path="url(#p845a657267)" d="M 291.669062 189.868125 
L 477.669063 189.868125 
" style="fill:none;stroke:#000000;stroke-linecap:square;stroke-opacity:0.5;stroke-width:0.8;"/>
     </g>
     <g id="line2d_28">
      <g>
       <use style="stroke:#000000;stroke-width:0.8;" x="291.669062" xlink:href="#mf41dc6e407" y="189.868125"/>
      </g>
     </g>
     <g id="text_20">
      <!-- 20 -->
      <g transform="translate(271.944062 193.667344)scale(0.1 -0.1)">
       <use xlink:href="#DejaVuSans-50"/>
       <use x="63.623047" xlink:href="#DejaVuSans-48"/>
      </g>
     </g>
    </g>
    <g id="ytick_11">
     <g id="line2d_29">
      <path clip-path="url(#p845a657267)" d="M 291.669062 170.618125 
L 477.669063 170.618125 
" style="fill:none;stroke:#000000;stroke-linecap:square;stroke-opacity:0.5;stroke-width:0.8;"/>
     </g>
     <g id="line2d_30">
      <g>
       <use style="stroke:#000000;stroke-width:0.8;" x="291.669062" xlink:href="#mf41dc6e407" y="170.618125"/>
      </g>
     </g>
     <g id="text_21">
      <!-- 40 -->
      <g transform="translate(271.944062 174.417344)scale(0.1 -0.1)">
       <use xlink:href="#DejaVuSans-52"/>
       <use x="63.623047" xlink:href="#DejaVuSans-48"/>
      </g>
     </g>
    </g>
    <g id="ytick_12">
     <g id="line2d_31">
      <path clip-path="url(#p845a657267)" d="M 291.669062 151.368125 
L 477.669063 151.368125 
" style="fill:none;stroke:#000000;stroke-linecap:square;stroke-opacity:0.5;stroke-width:0.8;"/>
     </g>
     <g id="line2d_32">
      <g>
       <use style="stroke:#000000;stroke-width:0.8;" x="291.669062" xlink:href="#mf41dc6e407" y="151.368125"/>
      </g>
     </g>
     <g id="text_22">
      <!-- 60 -->
      <g transform="translate(271.944062 155.167344)scale(0.1 -0.1)">
       <use xlink:href="#DejaVuSans-54"/>
       <use x="63.623047" xlink:href="#DejaVuSans-48"/>
      </g>
     </g>
    </g>
    <g id="ytick_13">
     <g id="line2d_33">
      <path clip-path="url(#p845a657267)" d="M 291.669062 132.118125 
L 477.669063 132.118125 
" style="fill:none;stroke:#000000;stroke-linecap:square;stroke-opacity:0.5;stroke-width:0.8;"/>
     </g>
     <g id="line2d_34">
      <g>
       <use style="stroke:#000000;stroke-width:0.8;" x="291.669062" xlink:href="#mf41dc6e407" y="132.118125"/>
      </g>
     </g>
     <g id="text_23">
      <!-- 80 -->
      <g transform="translate(271.944062 135.917344)scale(0.1 -0.1)">
       <use xlink:href="#DejaVuSans-56"/>
       <use x="63.623047" xlink:href="#DejaVuSans-48"/>
      </g>
     </g>
    </g>
    <g id="ytick_14">
     <g id="line2d_35">
      <path clip-path="url(#p845a657267)" d="M 291.669062 112.868125 
L 477.669063 112.868125 
" style="fill:none;stroke:#000000;stroke-linecap:square;stroke-opacity:0.5;stroke-width:0.8;"/>
     </g>
     <g id="line2d_36">
      <g>
       <use style="stroke:#000000;stroke-width:0.8;" x="291.669062" xlink:href="#mf41dc6e407" y="112.868125"/>
      </g>
     </g>
     <g id="text_24">
      <!-- 100 -->
      <g transform="translate(265.581563 116.667344)scale(0.1 -0.1)">
       <use xlink:href="#DejaVuSans-49"/>
       <use x="63.623047" xlink:href="#DejaVuSans-48"/>
       <use x="127.246094" xlink:href="#DejaVuSans-48"/>
      </g>
     </g>
    </g>
    <g id="ytick_15">
     <g id="line2d_37">
      <path clip-path="url(#p845a657267)" d="M 291.669062 93.618125 
L 477.669063 93.618125 
" style="fill:none;stroke:#000000;stroke-linecap:square;stroke-opacity:0.5;stroke-width:0.8;"/>
     </g>
     <g id="line2d_38">
      <g>
       <use style="stroke:#000000;stroke-width:0.8;" x="291.669062" xlink:href="#mf41dc6e407" y="93.618125"/>
      </g>
     </g>
     <g id="text_25">
      <!-- 120 -->
      <g transform="translate(265.581563 97.417344)scale(0.1 -0.1)">
       <use xlink:href="#DejaVuSans-49"/>
       <use x="63.623047" xlink:href="#DejaVuSans-50"/>
       <use x="127.246094" xlink:href="#DejaVuSans-48"/>
      </g>
     </g>
    </g>
    <g id="ytick_16">
     <g id="line2d_39">
      <path clip-path="url(#p845a657267)" d="M 291.669062 74.368125 
L 477.669063 74.368125 
" style="fill:none;stroke:#000000;stroke-linecap:square;stroke-opacity:0.5;stroke-width:0.8;"/>
     </g>
     <g id="line2d_40">
      <g>
       <use style="stroke:#000000;stroke-width:0.8;" x="291.669062" xlink:href="#mf41dc6e407" y="74.368125"/>
      </g>
     </g>
     <g id="text_26">
      <!-- 140 -->
      <g transform="translate(265.581563 78.167344)scale(0.1 -0.1)">
       <use xlink:href="#DejaVuSans-49"/>
       <use x="63.623047" xlink:href="#DejaVuSans-52"/>
       <use x="127.246094" xlink:href="#DejaVuSans-48"/>
      </g>
     </g>
    </g>
    <g id="ytick_17">
     <g id="line2d_41">
      <path clip-path="url(#p845a657267)" d="M 291.669062 55.118125 
L 477.669063 55.118125 
" style="fill:none;stroke:#000000;stroke-linecap:square;stroke-opacity:0.5;stroke-width:0.8;"/>
     </g>
     <g id="line2d_42">
      <g>
       <use style="stroke:#000000;stroke-width:0.8;" x="291.669062" xlink:href="#mf41dc6e407" y="55.118125"/>
      </g>
     </g>
     <g id="text_27">
      <!-- 160 -->
      <g transform="translate(265.581563 58.917344)scale(0.1 -0.1)">
       <use xlink:href="#DejaVuSans-49"/>
       <use x="63.623047" xlink:href="#DejaVuSans-54"/>
       <use x="127.246094" xlink:href="#DejaVuSans-48"/>
      </g>
     </g>
    </g>
    <g id="text_28">
     <!-- Node count -->
     <g transform="translate(258.877969 167.867891)rotate(-90)scale(0.13 -0.13)">
      <use xlink:href="#DejaVuSans-BoldOblique-78"/>
      <use x="83.691406" xlink:href="#DejaVuSans-BoldOblique-111"/>
      <use x="152.392578" xlink:href="#DejaVuSans-BoldOblique-100"/>
      <use x="223.974609" xlink:href="#DejaVuSans-BoldOblique-101"/>
      <use x="291.796875" xlink:href="#DejaVuSans-BoldOblique-32"/>
      <use x="326.611328" xlink:href="#DejaVuSans-BoldOblique-99"/>
      <use x="385.888672" xlink:href="#DejaVuSans-BoldOblique-111"/>
      <use x="454.589844" xlink:href="#DejaVuSans-BoldOblique-117"/>
      <use x="525.78125" xlink:href="#DejaVuSans-BoldOblique-110"/>
      <use x="596.972656" xlink:href="#DejaVuSans-BoldOblique-116"/>
     </g>
    </g>
   </g>
   <g id="patch_15">
    <path d="M 291.669062 209.118125 
L 291.669062 42.798125 
" style="fill:none;stroke:#000000;stroke-linecap:square;stroke-linejoin:miter;stroke-width:0.8;"/>
   </g>
   <g id="patch_16">
    <path d="M 477.669063 209.118125 
L 477.669063 42.798125 
" style="fill:none;stroke:#000000;stroke-linecap:square;stroke-linejoin:miter;stroke-width:0.8;"/>
   </g>
   <g id="patch_17">
    <path d="M 291.669062 209.118125 
L 477.669063 209.118125 
" style="fill:none;stroke:#000000;stroke-linecap:square;stroke-linejoin:miter;stroke-width:0.8;"/>
   </g>
   <g id="patch_18">
    <path d="M 291.669062 42.798125 
L 477.669063 42.798125 
" style="fill:none;stroke:#000000;stroke-linecap:square;stroke-linejoin:miter;stroke-width:0.8;"/>
   </g>
   <g id="legend_2">
    <g id="patch_19">
     <path d="M 313.084688 94.8325 
L 456.253438 94.8325 
Q 458.253438 94.8325 458.253438 92.8325 
L 458.253438 49.798125 
Q 458.253438 47.798125 456.253438 47.798125 
L 313.084688 47.798125 
Q 311.084688 47.798125 311.084688 49.798125 
L 311.084688 92.8325 
Q 311.084688 94.8325 313.084688 94.8325 
z
" style="fill:#ffffff;stroke:#000000;stroke-linejoin:miter;"/>
    </g>
    <g id="patch_20">
     <path d="M 315.084688 59.396563 
L 335.084688 59.396563 
L 335.084688 52.396563 
L 315.084688 52.396563 
z
" style="fill:#a9a9a9;opacity:0.95;stroke:#000000;stroke-linejoin:miter;"/>
    </g>
    <g id="text_29">
     <!-- Sets 1 and 3 cross-cut -->
     <g transform="translate(343.084688 59.396563)scale(0.1 -0.1)">
      <defs>
       <path d="M 40.578125 39.3125 
Q 47.65625 37.796875 51.625 33 
Q 55.609375 28.21875 55.609375 21.1875 
Q 55.609375 10.40625 48.1875 4.484375 
Q 40.765625 -1.421875 27.09375 -1.421875 
Q 22.515625 -1.421875 17.65625 -0.515625 
Q 12.796875 0.390625 7.625 2.203125 
L 7.625 11.71875 
Q 11.71875 9.328125 16.59375 8.109375 
Q 21.484375 6.890625 26.8125 6.890625 
Q 36.078125 6.890625 40.9375 10.546875 
Q 45.796875 14.203125 45.796875 21.1875 
Q 45.796875 27.640625 41.28125 31.265625 
Q 36.765625 34.90625 28.71875 34.90625 
L 20.21875 34.90625 
L 20.21875 43.015625 
L 29.109375 43.015625 
Q 36.375 43.015625 40.234375 45.921875 
Q 44.09375 48.828125 44.09375 54.296875 
Q 44.09375 59.90625 40.109375 62.90625 
Q 36.140625 65.921875 28.71875 65.921875 
Q 24.65625 65.921875 20.015625 65.03125 
Q 15.375 64.15625 9.8125 62.3125 
L 9.8125 71.09375 
Q 15.4375 72.65625 20.34375 73.4375 
Q 25.25 74.21875 29.59375 74.21875 
Q 40.828125 74.21875 47.359375 69.109375 
Q 53.90625 64.015625 53.90625 55.328125 
Q 53.90625 49.265625 50.4375 45.09375 
Q 46.96875 40.921875 40.578125 39.3125 
z
" id="DejaVuSans-51"/>
      </defs>
      <use xlink:href="#DejaVuSans-83"/>
      <use x="63.476562" xlink:href="#DejaVuSans-101"/>
      <use x="125" xlink:href="#DejaVuSans-116"/>
      <use x="164.208984" xlink:href="#DejaVuSans-115"/>
      <use x="216.308594" xlink:href="#DejaVuSans-32"/>
      <use x="248.095703" xlink:href="#DejaVuSans-49"/>
      <use x="311.71875" xlink:href="#DejaVuSans-32"/>
      <use x="343.505859" xlink:href="#DejaVuSans-97"/>
      <use x="404.785156" xlink:href="#DejaVuSans-110"/>
      <use x="468.164062" xlink:href="#DejaVuSans-100"/>
      <use x="531.640625" xlink:href="#DejaVuSans-32"/>
      <use x="563.427734" xlink:href="#DejaVuSans-51"/>
      <use x="627.050781" xlink:href="#DejaVuSans-32"/>
      <use x="658.837891" xlink:href="#DejaVuSans-99"/>
      <use x="713.818359" xlink:href="#DejaVuSans-114"/>
      <use x="752.681641" xlink:href="#DejaVuSans-111"/>
      <use x="813.863281" xlink:href="#DejaVuSans-115"/>
      <use x="865.962891" xlink:href="#DejaVuSans-115"/>
      <use x="918.0625" xlink:href="#DejaVuSans-45"/>
      <use x="954.146484" xlink:href="#DejaVuSans-99"/>
      <use x="1009.126953" xlink:href="#DejaVuSans-117"/>
      <use x="1072.505859" xlink:href="#DejaVuSans-116"/>
     </g>
    </g>
    <g id="patch_21">
     <path d="M 315.084688 74.074688 
L 335.084688 74.074688 
L 335.084688 67.074688 
L 315.084688 67.074688 
z
" style="fill:#556b2f;opacity:0.95;stroke:#000000;stroke-linejoin:miter;"/>
    </g>
    <g id="text_30">
     <!-- Set 1 abuts to set 3 -->
     <g transform="translate(343.084688 74.074688)scale(0.1 -0.1)">
      <use xlink:href="#DejaVuSans-83"/>
      <use x="63.476562" xlink:href="#DejaVuSans-101"/>
      <use x="125" xlink:href="#DejaVuSans-116"/>
      <use x="164.208984" xlink:href="#DejaVuSans-32"/>
      <use x="195.996094" xlink:href="#DejaVuSans-49"/>
      <use x="259.619141" xlink:href="#DejaVuSans-32"/>
      <use x="291.40625" xlink:href="#DejaVuSans-97"/>
      <use x="352.685547" xlink:href="#DejaVuSans-98"/>
      <use x="416.162109" xlink:href="#DejaVuSans-117"/>
      <use x="479.541016" xlink:href="#DejaVuSans-116"/>
      <use x="518.75" xlink:href="#DejaVuSans-115"/>
      <use x="570.849609" xlink:href="#DejaVuSans-32"/>
      <use x="602.636719" xlink:href="#DejaVuSans-116"/>
      <use x="641.845703" xlink:href="#DejaVuSans-111"/>
      <use x="703.027344" xlink:href="#DejaVuSans-32"/>
      <use x="734.814453" xlink:href="#DejaVuSans-115"/>
      <use x="786.914062" xlink:href="#DejaVuSans-101"/>
      <use x="848.4375" xlink:href="#DejaVuSans-116"/>
      <use x="887.646484" xlink:href="#DejaVuSans-32"/>
      <use x="919.433594" xlink:href="#DejaVuSans-51"/>
     </g>
    </g>
    <g id="patch_22">
     <path d="M 315.084688 88.752813 
L 335.084688 88.752813 
L 335.084688 81.752813 
L 315.084688 81.752813 
z
" style="fill:#8fbc8f;opacity:0.95;stroke:#000000;stroke-linejoin:miter;"/>
    </g>
    <g id="text_31">
     <!-- Set 3 abuts to set 1 -->
     <g transform="translate(343.084688 88.752813)scale(0.1 -0.1)">
      <use xlink:href="#DejaVuSans-83"/>
      <use x="63.476562" xlink:href="#DejaVuSans-101"/>
      <use x="125" xlink:href="#DejaVuSans-116"/>
      <use x="164.208984" xlink:href="#DejaVuSans-32"/>
      <use x="195.996094" xlink:href="#DejaVuSans-51"/>
      <use x="259.619141" xlink:href="#DejaVuSans-32"/>
      <use x="291.40625" xlink:href="#DejaVuSans-97"/>
      <use x="352.685547" xlink:href="#DejaVuSans-98"/>
      <use x="416.162109" xlink:href="#DejaVuSans-117"/>
      <use x="479.541016" xlink:href="#DejaVuSans-116"/>
      <use x="518.75" xlink:href="#DejaVuSans-115"/>
      <use x="570.849609" xlink:href="#DejaVuSans-32"/>
      <use x="602.636719" xlink:href="#DejaVuSans-116"/>
      <use x="641.845703" xlink:href="#DejaVuSans-111"/>
      <use x="703.027344" xlink:href="#DejaVuSans-32"/>
      <use x="734.814453" xlink:href="#DejaVuSans-115"/>
      <use x="786.914062" xlink:href="#DejaVuSans-101"/>
      <use x="848.4375" xlink:href="#DejaVuSans-116"/>
      <use x="887.646484" xlink:href="#DejaVuSans-32"/>
      <use x="919.433594" xlink:href="#DejaVuSans-49"/>
     </g>
    </g>
   </g>
   <g id="patch_23">
    <path clip-path="url(#p845a657267)" d="M 300.123608 209.118125 
L 337.699366 209.118125 
L 337.699366 162.918125 
L 300.123608 162.918125 
z
" style="fill:#a9a9a9;opacity:0.95;stroke:#000000;stroke-linejoin:miter;"/>
   </g>
   <g id="patch_24">
    <path clip-path="url(#p845a657267)" d="M 394.063002 209.118125 
L 431.638759 209.118125 
L 431.638759 105.168125 
L 394.063002 105.168125 
z
" style="fill:#556b2f;opacity:0.95;stroke:#000000;stroke-linejoin:miter;"/>
   </g>
   <g id="patch_25">
    <path clip-path="url(#p845a657267)" d="M 431.638759 209.118125 
L 469.214517 209.118125 
L 469.214517 164.843125 
L 431.638759 164.843125 
z
" style="fill:#8fbc8f;opacity:0.95;stroke:#000000;stroke-linejoin:miter;"/>
   </g>
  </g>
  <g id="axes_3">
   <g id="patch_26">
    <path d="M 533.469063 209.118125 
L 719.469063 209.118125 
L 719.469063 42.798125 
L 533.469063 42.798125 
z
" style="fill:#ffffff;"/>
   </g>
   <g id="matplotlib.axis_5">
    <g id="xtick_5">
     <g id="line2d_43">
      <path clip-path="url(#p759c7f5db0)" d="M 560.711487 209.118125 
L 560.711487 42.798125 
" style="fill:none;stroke:#000000;stroke-linecap:square;stroke-opacity:0.5;stroke-width:0.8;"/>
     </g>
     <g id="line2d_44">
      <g>
       <use style="stroke:#000000;stroke-width:0.8;" x="560.711487" xlink:href="#m970caf0428" y="209.118125"/>
      </g>
     </g>
     <g id="text_32">
      <!-- X -->
      <g transform="translate(556.085862 225.23625)scale(0.12 -0.12)">
       <use xlink:href="#DejaVuSans-Bold-88"/>
      </g>
     </g>
    </g>
    <g id="xtick_6">
     <g id="line2d_45">
      <path clip-path="url(#p759c7f5db0)" d="M 673.438759 209.118125 
L 673.438759 42.798125 
" style="fill:none;stroke:#000000;stroke-linecap:square;stroke-opacity:0.5;stroke-width:0.8;"/>
     </g>
     <g id="line2d_46">
      <g>
       <use style="stroke:#000000;stroke-width:0.8;" x="673.438759" xlink:href="#m970caf0428" y="209.118125"/>
      </g>
     </g>
     <g id="text_33">
      <!-- Y -->
      <g transform="translate(669.094384 225.23625)scale(0.12 -0.12)">
       <use xlink:href="#DejaVuSans-Bold-89"/>
      </g>
     </g>
    </g>
    <g id="text_34">
     <!-- Node type -->
     <g transform="translate(588.834063 241.609844)scale(0.13 -0.13)">
      <use xlink:href="#DejaVuSans-BoldOblique-78"/>
      <use x="83.691406" xlink:href="#DejaVuSans-BoldOblique-111"/>
      <use x="152.392578" xlink:href="#DejaVuSans-BoldOblique-100"/>
      <use x="223.974609" xlink:href="#DejaVuSans-BoldOblique-101"/>
      <use x="291.796875" xlink:href="#DejaVuSans-BoldOblique-32"/>
      <use x="326.611328" xlink:href="#DejaVuSans-BoldOblique-116"/>
      <use x="374.414062" xlink:href="#DejaVuSans-BoldOblique-121"/>
      <use x="439.599609" xlink:href="#DejaVuSans-BoldOblique-112"/>
      <use x="511.181641" xlink:href="#DejaVuSans-BoldOblique-101"/>
     </g>
    </g>
   </g>
   <g id="matplotlib.axis_6">
    <g id="ytick_18">
     <g id="line2d_47">
      <path clip-path="url(#p759c7f5db0)" d="M 533.469063 209.118125 
L 719.469063 209.118125 
" style="fill:none;stroke:#000000;stroke-linecap:square;stroke-opacity:0.5;stroke-width:0.8;"/>
     </g>
     <g id="line2d_48">
      <g>
       <use style="stroke:#000000;stroke-width:0.8;" x="533.469063" xlink:href="#mf41dc6e407" y="209.118125"/>
      </g>
     </g>
     <g id="text_35">
      <!-- 0 -->
      <g transform="translate(520.106563 212.917344)scale(0.1 -0.1)">
       <use xlink:href="#DejaVuSans-48"/>
      </g>
     </g>
    </g>
    <g id="ytick_19">
     <g id="line2d_49">
      <path clip-path="url(#p759c7f5db0)" d="M 533.469063 191.647537 
L 719.469063 191.647537 
" style="fill:none;stroke:#000000;stroke-linecap:square;stroke-opacity:0.5;stroke-width:0.8;"/>
     </g>
     <g id="line2d_50">
      <g>
       <use style="stroke:#000000;stroke-width:0.8;" x="533.469063" xlink:href="#mf41dc6e407" y="191.647537"/>
      </g>
     </g>
     <g id="text_36">
      <!-- 40 -->
      <g transform="translate(513.744063 195.446756)scale(0.1 -0.1)">
       <use xlink:href="#DejaVuSans-52"/>
       <use x="63.623047" xlink:href="#DejaVuSans-48"/>
      </g>
     </g>
    </g>
    <g id="ytick_20">
     <g id="line2d_51">
      <path clip-path="url(#p759c7f5db0)" d="M 533.469063 174.176949 
L 719.469063 174.176949 
" style="fill:none;stroke:#000000;stroke-linecap:square;stroke-opacity:0.5;stroke-width:0.8;"/>
     </g>
     <g id="line2d_52">
      <g>
       <use style="stroke:#000000;stroke-width:0.8;" x="533.469063" xlink:href="#mf41dc6e407" y="174.176949"/>
      </g>
     </g>
     <g id="text_37">
      <!-- 80 -->
      <g transform="translate(513.744063 177.976167)scale(0.1 -0.1)">
       <use xlink:href="#DejaVuSans-56"/>
       <use x="63.623047" xlink:href="#DejaVuSans-48"/>
      </g>
     </g>
    </g>
    <g id="ytick_21">
     <g id="line2d_53">
      <path clip-path="url(#p759c7f5db0)" d="M 533.469063 156.70636 
L 719.469063 156.70636 
" style="fill:none;stroke:#000000;stroke-linecap:square;stroke-opacity:0.5;stroke-width:0.8;"/>
     </g>
     <g id="line2d_54">
      <g>
       <use style="stroke:#000000;stroke-width:0.8;" x="533.469063" xlink:href="#mf41dc6e407" y="156.70636"/>
      </g>
     </g>
     <g id="text_38">
      <!-- 120 -->
      <g transform="translate(507.381563 160.505579)scale(0.1 -0.1)">
       <use xlink:href="#DejaVuSans-49"/>
       <use x="63.623047" xlink:href="#DejaVuSans-50"/>
       <use x="127.246094" xlink:href="#DejaVuSans-48"/>
      </g>
     </g>
    </g>
    <g id="ytick_22">
     <g id="line2d_55">
      <path clip-path="url(#p759c7f5db0)" d="M 533.469063 139.235772 
L 719.469063 139.235772 
" style="fill:none;stroke:#000000;stroke-linecap:square;stroke-opacity:0.5;stroke-width:0.8;"/>
     </g>
     <g id="line2d_56">
      <g>
       <use style="stroke:#000000;stroke-width:0.8;" x="533.469063" xlink:href="#mf41dc6e407" y="139.235772"/>
      </g>
     </g>
     <g id="text_39">
      <!-- 160 -->
      <g transform="translate(507.381563 143.034991)scale(0.1 -0.1)">
       <use xlink:href="#DejaVuSans-49"/>
       <use x="63.623047" xlink:href="#DejaVuSans-54"/>
       <use x="127.246094" xlink:href="#DejaVuSans-48"/>
      </g>
     </g>
    </g>
    <g id="ytick_23">
     <g id="line2d_57">
      <path clip-path="url(#p759c7f5db0)" d="M 533.469063 121.765184 
L 719.469063 121.765184 
" style="fill:none;stroke:#000000;stroke-linecap:square;stroke-opacity:0.5;stroke-width:0.8;"/>
     </g>
     <g id="line2d_58">
      <g>
       <use style="stroke:#000000;stroke-width:0.8;" x="533.469063" xlink:href="#mf41dc6e407" y="121.765184"/>
      </g>
     </g>
     <g id="text_40">
      <!-- 200 -->
      <g transform="translate(507.381563 125.564403)scale(0.1 -0.1)">
       <use xlink:href="#DejaVuSans-50"/>
       <use x="63.623047" xlink:href="#DejaVuSans-48"/>
       <use x="127.246094" xlink:href="#DejaVuSans-48"/>
      </g>
     </g>
    </g>
    <g id="ytick_24">
     <g id="line2d_59">
      <path clip-path="url(#p759c7f5db0)" d="M 533.469063 104.294596 
L 719.469063 104.294596 
" style="fill:none;stroke:#000000;stroke-linecap:square;stroke-opacity:0.5;stroke-width:0.8;"/>
     </g>
     <g id="line2d_60">
      <g>
       <use style="stroke:#000000;stroke-width:0.8;" x="533.469063" xlink:href="#mf41dc6e407" y="104.294596"/>
      </g>
     </g>
     <g id="text_41">
      <!-- 240 -->
      <g transform="translate(507.381563 108.093814)scale(0.1 -0.1)">
       <use xlink:href="#DejaVuSans-50"/>
       <use x="63.623047" xlink:href="#DejaVuSans-52"/>
       <use x="127.246094" xlink:href="#DejaVuSans-48"/>
      </g>
     </g>
    </g>
    <g id="ytick_25">
     <g id="line2d_61">
      <path clip-path="url(#p759c7f5db0)" d="M 533.469063 86.824007 
L 719.469063 86.824007 
" style="fill:none;stroke:#000000;stroke-linecap:square;stroke-opacity:0.5;stroke-width:0.8;"/>
     </g>
     <g id="line2d_62">
      <g>
       <use style="stroke:#000000;stroke-width:0.8;" x="533.469063" xlink:href="#mf41dc6e407" y="86.824007"/>
      </g>
     </g>
     <g id="text_42">
      <!-- 280 -->
      <g transform="translate(507.381563 90.623226)scale(0.1 -0.1)">
       <use xlink:href="#DejaVuSans-50"/>
       <use x="63.623047" xlink:href="#DejaVuSans-56"/>
       <use x="127.246094" xlink:href="#DejaVuSans-48"/>
      </g>
     </g>
    </g>
    <g id="ytick_26">
     <g id="line2d_63">
      <path clip-path="url(#p759c7f5db0)" d="M 533.469063 69.353419 
L 719.469063 69.353419 
" style="fill:none;stroke:#000000;stroke-linecap:square;stroke-opacity:0.5;stroke-width:0.8;"/>
     </g>
     <g id="line2d_64">
      <g>
       <use style="stroke:#000000;stroke-width:0.8;" x="533.469063" xlink:href="#mf41dc6e407" y="69.353419"/>
      </g>
     </g>
     <g id="text_43">
      <!-- 320 -->
      <g transform="translate(507.381563 73.152638)scale(0.1 -0.1)">
       <use xlink:href="#DejaVuSans-51"/>
       <use x="63.623047" xlink:href="#DejaVuSans-50"/>
       <use x="127.246094" xlink:href="#DejaVuSans-48"/>
      </g>
     </g>
    </g>
    <g id="ytick_27">
     <g id="line2d_65">
      <path clip-path="url(#p759c7f5db0)" d="M 533.469063 51.882831 
L 719.469063 51.882831 
" style="fill:none;stroke:#000000;stroke-linecap:square;stroke-opacity:0.5;stroke-width:0.8;"/>
     </g>
     <g id="line2d_66">
      <g>
       <use style="stroke:#000000;stroke-width:0.8;" x="533.469063" xlink:href="#mf41dc6e407" y="51.882831"/>
      </g>
     </g>
     <g id="text_44">
      <!-- 360 -->
      <g transform="translate(507.381563 55.68205)scale(0.1 -0.1)">
       <use xlink:href="#DejaVuSans-51"/>
       <use x="63.623047" xlink:href="#DejaVuSans-54"/>
       <use x="127.246094" xlink:href="#DejaVuSans-48"/>
      </g>
     </g>
    </g>
    <g id="text_45">
     <!-- Node count -->
     <g transform="translate(500.677969 167.867891)rotate(-90)scale(0.13 -0.13)">
      <use xlink:href="#DejaVuSans-BoldOblique-78"/>
      <use x="83.691406" xlink:href="#DejaVuSans-BoldOblique-111"/>
      <use x="152.392578" xlink:href="#DejaVuSans-BoldOblique-100"/>
      <use x="223.974609" xlink:href="#DejaVuSans-BoldOblique-101"/>
      <use x="291.796875" xlink:href="#DejaVuSans-BoldOblique-32"/>
      <use x="326.611328" xlink:href="#DejaVuSans-BoldOblique-99"/>
      <use x="385.888672" xlink:href="#DejaVuSans-BoldOblique-111"/>
      <use x="454.589844" xlink:href="#DejaVuSans-BoldOblique-117"/>
      <use x="525.78125" xlink:href="#DejaVuSans-BoldOblique-110"/>
      <use x="596.972656" xlink:href="#DejaVuSans-BoldOblique-116"/>
     </g>
    </g>
   </g>
   <g id="patch_27">
    <path d="M 533.469063 209.118125 
L 533.469063 42.798125 
" style="fill:none;stroke:#000000;stroke-linecap:square;stroke-linejoin:miter;stroke-width:0.8;"/>
   </g>
   <g id="patch_28">
    <path d="M 719.469063 209.118125 
L 719.469063 42.798125 
" style="fill:none;stroke:#000000;stroke-linecap:square;stroke-linejoin:miter;stroke-width:0.8;"/>
   </g>
   <g id="patch_29">
    <path d="M 533.469063 209.118125 
L 719.469063 209.118125 
" style="fill:none;stroke:#000000;stroke-linecap:square;stroke-linejoin:miter;stroke-width:0.8;"/>
   </g>
   <g id="patch_30">
    <path d="M 533.469063 42.798125 
L 719.469063 42.798125 
" style="fill:none;stroke:#000000;stroke-linecap:square;stroke-linejoin:miter;stroke-width:0.8;"/>
   </g>
   <g id="text_46">
    <g id="patch_31">
     <path d="M 774.642813 186.446406 
L 774.642813 65.469844 
L 733.569063 65.469844 
L 733.569063 186.446406 
z
" style="fill:#faf0e6;stroke:#000000;stroke-linejoin:miter;"/>
    </g>
    <!-- Set 1 trace count: 161 -->
    <g transform="translate(745.6675 181.946406)rotate(-90)scale(0.1 -0.1)">
     <defs>
      <path d="M 11.71875 12.40625 
L 22.015625 12.40625 
L 22.015625 0 
L 11.71875 0 
z
M 11.71875 51.703125 
L 22.015625 51.703125 
L 22.015625 39.3125 
L 11.71875 39.3125 
z
" id="DejaVuSans-58"/>
     </defs>
     <use xlink:href="#DejaVuSans-83"/>
     <use x="63.476562" xlink:href="#DejaVuSans-101"/>
     <use x="125" xlink:href="#DejaVuSans-116"/>
     <use x="164.208984" xlink:href="#DejaVuSans-32"/>
     <use x="195.996094" xlink:href="#DejaVuSans-49"/>
     <use x="259.619141" xlink:href="#DejaVuSans-32"/>
     <use x="291.40625" xlink:href="#DejaVuSans-116"/>
     <use x="330.615234" xlink:href="#DejaVuSans-114"/>
     <use x="371.728516" xlink:href="#DejaVuSans-97"/>
     <use x="433.007812" xlink:href="#DejaVuSans-99"/>
     <use x="487.988281" xlink:href="#DejaVuSans-101"/>
     <use x="549.511719" xlink:href="#DejaVuSans-32"/>
     <use x="581.298828" xlink:href="#DejaVuSans-99"/>
     <use x="636.279297" xlink:href="#DejaVuSans-111"/>
     <use x="697.460938" xlink:href="#DejaVuSans-117"/>
     <use x="760.839844" xlink:href="#DejaVuSans-110"/>
     <use x="824.21875" xlink:href="#DejaVuSans-116"/>
     <use x="863.427734" xlink:href="#DejaVuSans-58"/>
     <use x="897.119141" xlink:href="#DejaVuSans-32"/>
     <use x="928.90625" xlink:href="#DejaVuSans-49"/>
     <use x="992.529297" xlink:href="#DejaVuSans-54"/>
     <use x="1056.152344" xlink:href="#DejaVuSans-49"/>
    </g>
    <!-- Set 2 trace count: 227 -->
    <g transform="translate(756.865313 181.946406)rotate(-90)scale(0.1 -0.1)">
     <defs>
      <path d="M 8.203125 72.90625 
L 55.078125 72.90625 
L 55.078125 68.703125 
L 28.609375 0 
L 18.3125 0 
L 43.21875 64.59375 
L 8.203125 64.59375 
z
" id="DejaVuSans-55"/>
     </defs>
     <use xlink:href="#DejaVuSans-83"/>
     <use x="63.476562" xlink:href="#DejaVuSans-101"/>
     <use x="125" xlink:href="#DejaVuSans-116"/>
     <use x="164.208984" xlink:href="#DejaVuSans-32"/>
     <use x="195.996094" xlink:href="#DejaVuSans-50"/>
     <use x="259.619141" xlink:href="#DejaVuSans-32"/>
     <use x="291.40625" xlink:href="#DejaVuSans-116"/>
     <use x="330.615234" xlink:href="#DejaVuSans-114"/>
     <use x="371.728516" xlink:href="#DejaVuSans-97"/>
     <use x="433.007812" xlink:href="#DejaVuSans-99"/>
     <use x="487.988281" xlink:href="#DejaVuSans-101"/>
     <use x="549.511719" xlink:href="#DejaVuSans-32"/>
     <use x="581.298828" xlink:href="#DejaVuSans-99"/>
     <use x="636.279297" xlink:href="#DejaVuSans-111"/>
     <use x="697.460938" xlink:href="#DejaVuSans-117"/>
     <use x="760.839844" xlink:href="#DejaVuSans-110"/>
     <use x="824.21875" xlink:href="#DejaVuSans-116"/>
     <use x="863.427734" xlink:href="#DejaVuSans-58"/>
     <use x="897.119141" xlink:href="#DejaVuSans-32"/>
     <use x="928.90625" xlink:href="#DejaVuSans-50"/>
     <use x="992.529297" xlink:href="#DejaVuSans-50"/>
     <use x="1056.152344" xlink:href="#DejaVuSans-55"/>
    </g>
    <!-- Set 3 trace count: 320 -->
    <g transform="translate(768.063125 181.946406)rotate(-90)scale(0.1 -0.1)">
     <use xlink:href="#DejaVuSans-83"/>
     <use x="63.476562" xlink:href="#DejaVuSans-101"/>
     <use x="125" xlink:href="#DejaVuSans-116"/>
     <use x="164.208984" xlink:href="#DejaVuSans-32"/>
     <use x="195.996094" xlink:href="#DejaVuSans-51"/>
     <use x="259.619141" xlink:href="#DejaVuSans-32"/>
     <use x="291.40625" xlink:href="#DejaVuSans-116"/>
     <use x="330.615234" xlink:href="#DejaVuSans-114"/>
     <use x="371.728516" xlink:href="#DejaVuSans-97"/>
     <use x="433.007812" xlink:href="#DejaVuSans-99"/>
     <use x="487.988281" xlink:href="#DejaVuSans-101"/>
     <use x="549.511719" xlink:href="#DejaVuSans-32"/>
     <use x="581.298828" xlink:href="#DejaVuSans-99"/>
     <use x="636.279297" xlink:href="#DejaVuSans-111"/>
     <use x="697.460938" xlink:href="#DejaVuSans-117"/>
     <use x="760.839844" xlink:href="#DejaVuSans-110"/>
     <use x="824.21875" xlink:href="#DejaVuSans-116"/>
     <use x="863.427734" xlink:href="#DejaVuSans-58"/>
     <use x="897.119141" xlink:href="#DejaVuSans-32"/>
     <use x="928.90625" xlink:href="#DejaVuSans-51"/>
     <use x="992.529297" xlink:href="#DejaVuSans-50"/>
     <use x="1056.152344" xlink:href="#DejaVuSans-48"/>
    </g>
   </g>
   <g id="legend_3">
    <g id="patch_32">
     <path d="M 554.884688 94.8325 
L 698.053437 94.8325 
Q 700.053437 94.8325 700.053437 92.8325 
L 700.053437 49.798125 
Q 700.053437 47.798125 698.053437 47.798125 
L 554.884688 47.798125 
Q 552.884688 47.798125 552.884688 49.798125 
L 552.884688 92.8325 
Q 552.884688 94.8325 554.884688 94.8325 
z
" style="fill:#ffffff;stroke:#000000;stroke-linejoin:miter;"/>
    </g>
    <g id="patch_33">
     <path d="M 556.884688 59.396563 
L 576.884688 59.396563 
L 576.884688 52.396563 
L 556.884688 52.396563 
z
" style="fill:#a9a9a9;opacity:0.95;stroke:#000000;stroke-linejoin:miter;"/>
    </g>
    <g id="text_47">
     <!-- Sets 2 and 3 cross-cut -->
     <g transform="translate(584.884688 59.396563)scale(0.1 -0.1)">
      <use xlink:href="#DejaVuSans-83"/>
      <use x="63.476562" xlink:href="#DejaVuSans-101"/>
      <use x="125" xlink:href="#DejaVuSans-116"/>
      <use x="164.208984" xlink:href="#DejaVuSans-115"/>
      <use x="216.308594" xlink:href="#DejaVuSans-32"/>
      <use x="248.095703" xlink:href="#DejaVuSans-50"/>
      <use x="311.71875" xlink:href="#DejaVuSans-32"/>
      <use x="343.505859" xlink:href="#DejaVuSans-97"/>
      <use x="404.785156" xlink:href="#DejaVuSans-110"/>
      <use x="468.164062" xlink:href="#DejaVuSans-100"/>
      <use x="531.640625" xlink:href="#DejaVuSans-32"/>
      <use x="563.427734" xlink:href="#DejaVuSans-51"/>
      <use x="627.050781" xlink:href="#DejaVuSans-32"/>
      <use x="658.837891" xlink:href="#DejaVuSans-99"/>
      <use x="713.818359" xlink:href="#DejaVuSans-114"/>
      <use x="752.681641" xlink:href="#DejaVuSans-111"/>
      <use x="813.863281" xlink:href="#DejaVuSans-115"/>
      <use x="865.962891" xlink:href="#DejaVuSans-115"/>
      <use x="918.0625" xlink:href="#DejaVuSans-45"/>
      <use x="954.146484" xlink:href="#DejaVuSans-99"/>
      <use x="1009.126953" xlink:href="#DejaVuSans-117"/>
      <use x="1072.505859" xlink:href="#DejaVuSans-116"/>
     </g>
    </g>
    <g id="patch_34">
     <path d="M 556.884688 74.074688 
L 576.884688 74.074688 
L 576.884688 67.074688 
L 556.884688 67.074688 
z
" style="fill:#556b2f;opacity:0.95;stroke:#000000;stroke-linejoin:miter;"/>
    </g>
    <g id="text_48">
     <!-- Set 2 abuts to set 3 -->
     <g transform="translate(584.884688 74.074688)scale(0.1 -0.1)">
      <use xlink:href="#DejaVuSans-83"/>
      <use x="63.476562" xlink:href="#DejaVuSans-101"/>
      <use x="125" xlink:href="#DejaVuSans-116"/>
      <use x="164.208984" xlink:href="#DejaVuSans-32"/>
      <use x="195.996094" xlink:href="#DejaVuSans-50"/>
      <use x="259.619141" xlink:href="#DejaVuSans-32"/>
      <use x="291.40625" xlink:href="#DejaVuSans-97"/>
      <use x="352.685547" xlink:href="#DejaVuSans-98"/>
      <use x="416.162109" xlink:href="#DejaVuSans-117"/>
      <use x="479.541016" xlink:href="#DejaVuSans-116"/>
      <use x="518.75" xlink:href="#DejaVuSans-115"/>
      <use x="570.849609" xlink:href="#DejaVuSans-32"/>
      <use x="602.636719" xlink:href="#DejaVuSans-116"/>
      <use x="641.845703" xlink:href="#DejaVuSans-111"/>
      <use x="703.027344" xlink:href="#DejaVuSans-32"/>
      <use x="734.814453" xlink:href="#DejaVuSans-115"/>
      <use x="786.914062" xlink:href="#DejaVuSans-101"/>
      <use x="848.4375" xlink:href="#DejaVuSans-116"/>
      <use x="887.646484" xlink:href="#DejaVuSans-32"/>
      <use x="919.433594" xlink:href="#DejaVuSans-51"/>
     </g>
    </g>
    <g id="patch_35">
     <path d="M 556.884688 88.752813 
L 576.884688 88.752813 
L 576.884688 81.752813 
L 556.884688 81.752813 
z
" style="fill:#8fbc8f;opacity:0.95;stroke:#000000;stroke-linejoin:miter;"/>
    </g>
    <g id="text_49">
     <!-- Set 3 abuts to set 2 -->
     <g transform="translate(584.884688 88.752813)scale(0.1 -0.1)">
      <use xlink:href="#DejaVuSans-83"/>
      <use x="63.476562" xlink:href="#DejaVuSans-101"/>
      <use x="125" xlink:href="#DejaVuSans-116"/>
      <use x="164.208984" xlink:href="#DejaVuSans-32"/>
      <use x="195.996094" xlink:href="#DejaVuSans-51"/>
      <use x="259.619141" xlink:href="#DejaVuSans-32"/>
      <use x="291.40625" xlink:href="#DejaVuSans-97"/>
      <use x="352.685547" xlink:href="#DejaVuSans-98"/>
      <use x="416.162109" xlink:href="#DejaVuSans-117"/>
      <use x="479.541016" xlink:href="#DejaVuSans-116"/>
      <use x="518.75" xlink:href="#DejaVuSans-115"/>
      <use x="570.849609" xlink:href="#DejaVuSans-32"/>
      <use x="602.636719" xlink:href="#DejaVuSans-116"/>
      <use x="641.845703" xlink:href="#DejaVuSans-111"/>
      <use x="703.027344" xlink:href="#DejaVuSans-32"/>
      <use x="734.814453" xlink:href="#DejaVuSans-115"/>
      <use x="786.914062" xlink:href="#DejaVuSans-101"/>
      <use x="848.4375" xlink:href="#DejaVuSans-116"/>
      <use x="887.646484" xlink:href="#DejaVuSans-32"/>
      <use x="919.433594" xlink:href="#DejaVuSans-50"/>
     </g>
    </g>
   </g>
   <g id="patch_36">
    <path clip-path="url(#p759c7f5db0)" d="M 541.923608 209.118125 
L 579.499366 209.118125 
L 579.499366 128.316654 
L 541.923608 128.316654 
z
" style="fill:#a9a9a9;opacity:0.95;stroke:#000000;stroke-linejoin:miter;"/>
   </g>
   <g id="patch_37">
    <path clip-path="url(#p759c7f5db0)" d="M 635.863002 209.118125 
L 673.438759 209.118125 
L 673.438759 143.603419 
L 635.863002 143.603419 
z
" style="fill:#556b2f;opacity:0.95;stroke:#000000;stroke-linejoin:miter;"/>
   </g>
   <g id="patch_38">
    <path clip-path="url(#p759c7f5db0)" d="M 673.438759 209.118125 
L 711.014517 209.118125 
L 711.014517 105.168125 
L 673.438759 105.168125 
z
" style="fill:#8fbc8f;opacity:0.95;stroke:#000000;stroke-linejoin:miter;"/>
   </g>
  </g>
  <g id="text_50">
   <g id="patch_39">
    <path d="M 49.855625 32.55625 
L 162.2025 32.55625 
L 162.2025 1.2 
L 49.855625 1.2 
z
" style="fill:#faf0e6;stroke:#000000;stroke-linejoin:miter;stroke-width:2;"/>
   </g>
   <!--    KB11    -->
   <g transform="translate(55.855625 22.396875)scale(0.2 -0.2)">
    <defs>
     <path id="DejaVuSans-Bold-32"/>
     <path d="M 9.1875 72.90625 
L 27.984375 72.90625 
L 27.984375 46.296875 
L 55.078125 72.90625 
L 76.90625 72.90625 
L 41.796875 38.375 
L 80.515625 0 
L 56.984375 0 
L 27.984375 28.71875 
L 27.984375 0 
L 9.1875 0 
z
" id="DejaVuSans-Bold-75"/>
     <path d="M 38.375 44.671875 
Q 42.828125 44.671875 45.109375 46.625 
Q 47.40625 48.578125 47.40625 52.390625 
Q 47.40625 56.15625 45.109375 58.125 
Q 42.828125 60.109375 38.375 60.109375 
L 27.984375 60.109375 
L 27.984375 44.671875 
z
M 39.015625 12.796875 
Q 44.671875 12.796875 47.53125 15.1875 
Q 50.390625 17.578125 50.390625 22.40625 
Q 50.390625 27.15625 47.5625 29.515625 
Q 44.734375 31.890625 39.015625 31.890625 
L 27.984375 31.890625 
L 27.984375 12.796875 
z
M 56.5 39.015625 
Q 62.546875 37.25 65.859375 32.515625 
Q 69.1875 27.78125 69.1875 20.90625 
Q 69.1875 10.359375 62.0625 5.171875 
Q 54.9375 0 40.375 0 
L 9.1875 0 
L 9.1875 72.90625 
L 37.40625 72.90625 
Q 52.59375 72.90625 59.40625 68.3125 
Q 66.21875 63.71875 66.21875 53.609375 
Q 66.21875 48.296875 63.71875 44.5625 
Q 61.234375 40.828125 56.5 39.015625 
z
" id="DejaVuSans-Bold-66"/>
     <path d="M 11.71875 12.984375 
L 28.328125 12.984375 
L 28.328125 60.109375 
L 11.28125 56.59375 
L 11.28125 69.390625 
L 28.21875 72.90625 
L 46.09375 72.90625 
L 46.09375 12.984375 
L 62.703125 12.984375 
L 62.703125 0 
L 11.71875 0 
z
" id="DejaVuSans-Bold-49"/>
    </defs>
    <use xlink:href="#DejaVuSans-Bold-32"/>
    <use x="34.814453" xlink:href="#DejaVuSans-Bold-32"/>
    <use x="69.628906" xlink:href="#DejaVuSans-Bold-32"/>
    <use x="104.443359" xlink:href="#DejaVuSans-Bold-75"/>
    <use x="181.933594" xlink:href="#DejaVuSans-Bold-66"/>
    <use x="258.154297" xlink:href="#DejaVuSans-Bold-49"/>
    <use x="327.734375" xlink:href="#DejaVuSans-Bold-49"/>
    <use x="397.314453" xlink:href="#DejaVuSans-Bold-32"/>
    <use x="432.128906" xlink:href="#DejaVuSans-Bold-32"/>
    <use x="466.943359" xlink:href="#DejaVuSans-Bold-32"/>
   </g>
  </g>
 </g>
 <defs>
  <clipPath id="pa6c74d022b">
   <rect height="166.32" width="186" x="49.869063" y="42.798125"/>
  </clipPath>
  <clipPath id="p845a657267">
   <rect height="166.32" width="186" x="291.669062" y="42.798125"/>
  </clipPath>
  <clipPath id="p759c7f5db0">
   <rect height="166.32" width="186" x="533.469063" y="42.798125"/>
  </clipPath>
 </defs>
</svg>
