<?xml version="1.0" encoding="utf-8" standalone="no"?>
<!DOCTYPE svg PUBLIC "-//W3C//DTD SVG 1.1//EN"
  "http://www.w3.org/Graphics/SVG/1.1/DTD/svg11.dtd">
<!-- Created with matplotlib (https://matplotlib.org/) -->
<svg height="353.25697pt" version="1.1" viewBox="0 0 464.95125 353.25697" width="464.95125pt" xmlns="http://www.w3.org/2000/svg" xmlns:xlink="http://www.w3.org/1999/xlink">
 <metadata>
  <rdf:RDF xmlns:cc="http://creativecommons.org/ns#" xmlns:dc="http://purl.org/dc/elements/1.1/" xmlns:rdf="http://www.w3.org/1999/02/22-rdf-syntax-ns#">
   <cc:Work>
    <dc:type rdf:resource="http://purl.org/dc/dcmitype/StillImage"/>
    <dc:date>2020-12-11T14:49:20.105171</dc:date>
    <dc:format>image/svg+xml</dc:format>
    <dc:creator>
     <cc:Agent>
      <dc:title>Matplotlib v3.3.3, https://matplotlib.org/</dc:title>
     </cc:Agent>
    </dc:creator>
   </cc:Work>
  </rdf:RDF>
 </metadata>
 <defs>
  <style type="text/css">*{stroke-linecap:butt;stroke-linejoin:round;}</style>
 </defs>
 <g id="figure_1">
  <g id="patch_1">
   <path d="M 0 353.25697 
L 464.95125 353.25697 
L 464.95125 0 
L 0 0 
z
" style="fill:#ffffff;"/>
  </g>
  <g id="axes_1">
   <g id="line2d_1">
    <path clip-path="url(#p95c2855406)" d="M 224.82 51.795068 
L 196.793182 98.319131 
L 178.658182 139.945923 
L 170.415 176.675446 
L 172.063636 208.5077 
L 183.604091 235.442683 
L 205.036364 257.480397 
L 236.360455 274.620841 
L 277.576364 286.864016 
L 328.684091 294.20992 
L 389.683636 296.658555 
" style="fill:none;stroke:#000000;stroke-dasharray:5.55,2.4;stroke-dashoffset:0;stroke-opacity:0.6;stroke-width:1.5;"/>
    <defs>
     <path d="M 0 1.5 
C 0.397805 1.5 0.77937 1.341951 1.06066 1.06066 
C 1.341951 0.77937 1.5 0.397805 1.5 0 
C 1.5 -0.397805 1.341951 -0.77937 1.06066 -1.06066 
C 0.77937 -1.341951 0.397805 -1.5 0 -1.5 
C -0.397805 -1.5 -0.77937 -1.341951 -1.06066 -1.06066 
C -1.341951 -0.77937 -1.5 -0.397805 -1.5 0 
C -1.5 0.397805 -1.341951 0.77937 -1.06066 1.06066 
C -0.77937 1.341951 -0.397805 1.5 0 1.5 
z
" id="m21f8beee2e" style="stroke:#000000;stroke-opacity:0.6;"/>
    </defs>
    <g clip-path="url(#p95c2855406)">
     <use style="fill-opacity:0.6;stroke:#000000;stroke-opacity:0.6;" x="224.82" xlink:href="#m21f8beee2e" y="51.795068"/>
     <use style="fill-opacity:0.6;stroke:#000000;stroke-opacity:0.6;" x="196.793182" xlink:href="#m21f8beee2e" y="98.319131"/>
     <use style="fill-opacity:0.6;stroke:#000000;stroke-opacity:0.6;" x="178.658182" xlink:href="#m21f8beee2e" y="139.945923"/>
     <use style="fill-opacity:0.6;stroke:#000000;stroke-opacity:0.6;" x="170.415" xlink:href="#m21f8beee2e" y="176.675446"/>
     <use style="fill-opacity:0.6;stroke:#000000;stroke-opacity:0.6;" x="172.063636" xlink:href="#m21f8beee2e" y="208.5077"/>
     <use style="fill-opacity:0.6;stroke:#000000;stroke-opacity:0.6;" x="183.604091" xlink:href="#m21f8beee2e" y="235.442683"/>
     <use style="fill-opacity:0.6;stroke:#000000;stroke-opacity:0.6;" x="205.036364" xlink:href="#m21f8beee2e" y="257.480397"/>
     <use style="fill-opacity:0.6;stroke:#000000;stroke-opacity:0.6;" x="236.360455" xlink:href="#m21f8beee2e" y="274.620841"/>
     <use style="fill-opacity:0.6;stroke:#000000;stroke-opacity:0.6;" x="277.576364" xlink:href="#m21f8beee2e" y="286.864016"/>
     <use style="fill-opacity:0.6;stroke:#000000;stroke-opacity:0.6;" x="328.684091" xlink:href="#m21f8beee2e" y="294.20992"/>
     <use style="fill-opacity:0.6;stroke:#000000;stroke-opacity:0.6;" x="389.683636" xlink:href="#m21f8beee2e" y="296.658555"/>
    </g>
   </g>
   <g id="line2d_2">
    <path clip-path="url(#p95c2855406)" d="M 59.956364 296.658555 
L 389.683636 296.658555 
" style="fill:none;stroke:#000000;stroke-linecap:square;stroke-width:1.5;"/>
   </g>
   <g id="line2d_3">
    <path clip-path="url(#p95c2855406)" d="M 224.82 51.795068 
L 59.956364 296.658555 
" style="fill:none;stroke:#000000;stroke-linecap:square;stroke-width:1.5;"/>
   </g>
   <g id="line2d_4">
    <path clip-path="url(#p95c2855406)" d="M 224.82 51.795068 
L 389.683636 296.658555 
" style="fill:none;stroke:#000000;stroke-linecap:square;stroke-width:1.5;"/>
   </g>
   <g id="line2d_5">
    <path clip-path="url(#p95c2855406)" d="M 59.956364 296.658555 
L 389.683636 296.658555 
" style="fill:none;stroke:#000000;stroke-dasharray:0.9,1.485;stroke-dashoffset:0;stroke-opacity:0.6;stroke-width:0.9;"/>
   </g>
   <g id="line2d_6">
    <path clip-path="url(#p95c2855406)" d="M 92.929091 247.685858 
L 356.710909 247.685858 
" style="fill:none;stroke:#000000;stroke-dasharray:0.9,1.485;stroke-dashoffset:0;stroke-opacity:0.6;stroke-width:0.9;"/>
   </g>
   <g id="line2d_7">
    <path clip-path="url(#p95c2855406)" d="M 125.901818 198.71316 
L 323.738182 198.71316 
" style="fill:none;stroke:#000000;stroke-dasharray:0.9,1.485;stroke-dashoffset:0;stroke-opacity:0.6;stroke-width:0.9;"/>
   </g>
   <g id="line2d_8">
    <path clip-path="url(#p95c2855406)" d="M 158.874545 149.740463 
L 290.765455 149.740463 
" style="fill:none;stroke:#000000;stroke-dasharray:0.9,1.485;stroke-dashoffset:0;stroke-opacity:0.6;stroke-width:0.9;"/>
   </g>
   <g id="line2d_9">
    <path clip-path="url(#p95c2855406)" d="M 191.847273 100.767766 
L 257.792727 100.767766 
" style="fill:none;stroke:#000000;stroke-dasharray:0.9,1.485;stroke-dashoffset:0;stroke-opacity:0.6;stroke-width:0.9;"/>
   </g>
   <g id="line2d_10">
    <path clip-path="url(#p95c2855406)" d="M 224.82 51.795068 
L 59.956364 296.658555 
" style="fill:none;stroke:#000000;stroke-dasharray:0.9,1.485;stroke-dashoffset:0;stroke-opacity:0.6;stroke-width:0.9;"/>
   </g>
   <g id="line2d_11">
    <path clip-path="url(#p95c2855406)" d="M 224.82 51.795068 
L 389.683636 296.658555 
" style="fill:none;stroke:#000000;stroke-dasharray:0.9,1.485;stroke-dashoffset:0;stroke-opacity:0.6;stroke-width:0.9;"/>
   </g>
   <g id="line2d_12">
    <path clip-path="url(#p95c2855406)" d="M 257.792727 100.767766 
L 125.901818 296.658555 
" style="fill:none;stroke:#000000;stroke-dasharray:0.9,1.485;stroke-dashoffset:0;stroke-opacity:0.6;stroke-width:0.9;"/>
   </g>
   <g id="line2d_13">
    <path clip-path="url(#p95c2855406)" d="M 191.847273 100.767766 
L 323.738182 296.658555 
" style="fill:none;stroke:#000000;stroke-dasharray:0.9,1.485;stroke-dashoffset:0;stroke-opacity:0.6;stroke-width:0.9;"/>
   </g>
   <g id="line2d_14">
    <path clip-path="url(#p95c2855406)" d="M 290.765455 149.740463 
L 191.847273 296.658555 
" style="fill:none;stroke:#000000;stroke-dasharray:0.9,1.485;stroke-dashoffset:0;stroke-opacity:0.6;stroke-width:0.9;"/>
   </g>
   <g id="line2d_15">
    <path clip-path="url(#p95c2855406)" d="M 158.874545 149.740463 
L 257.792727 296.658555 
" style="fill:none;stroke:#000000;stroke-dasharray:0.9,1.485;stroke-dashoffset:0;stroke-opacity:0.6;stroke-width:0.9;"/>
   </g>
   <g id="line2d_16">
    <path clip-path="url(#p95c2855406)" d="M 323.738182 198.71316 
L 257.792727 296.658555 
" style="fill:none;stroke:#000000;stroke-dasharray:0.9,1.485;stroke-dashoffset:0;stroke-opacity:0.6;stroke-width:0.9;"/>
   </g>
   <g id="line2d_17">
    <path clip-path="url(#p95c2855406)" d="M 125.901818 198.71316 
L 191.847273 296.658555 
" style="fill:none;stroke:#000000;stroke-dasharray:0.9,1.485;stroke-dashoffset:0;stroke-opacity:0.6;stroke-width:0.9;"/>
   </g>
   <g id="line2d_18">
    <path clip-path="url(#p95c2855406)" d="M 356.710909 247.685858 
L 323.738182 296.658555 
" style="fill:none;stroke:#000000;stroke-dasharray:0.9,1.485;stroke-dashoffset:0;stroke-opacity:0.6;stroke-width:0.9;"/>
   </g>
   <g id="line2d_19">
    <path clip-path="url(#p95c2855406)" d="M 92.929091 247.685858 
L 125.901818 296.658555 
" style="fill:none;stroke:#000000;stroke-dasharray:0.9,1.485;stroke-dashoffset:0;stroke-opacity:0.6;stroke-width:0.9;"/>
   </g>
   <g id="line2d_20">
    <path clip-path="url(#p95c2855406)" d="M 389.683636 296.658555 
L 389.683636 296.658555 
" style="fill:none;stroke:#000000;stroke-dasharray:0.9,1.485;stroke-dashoffset:0;stroke-opacity:0.6;stroke-width:0.9;"/>
   </g>
   <g id="line2d_21">
    <path clip-path="url(#p95c2855406)" d="M 59.956364 296.658555 
L 59.956364 296.658555 
" style="fill:none;stroke:#000000;stroke-dasharray:0.9,1.485;stroke-dashoffset:0;stroke-opacity:0.6;stroke-width:0.9;"/>
   </g>
   <g id="line2d_22">
    <path clip-path="url(#p95c2855406)" d="M 389.683636 296.658555 
L 399.575455 296.658555 
" style="fill:none;stroke:#000000;stroke-linecap:square;stroke-opacity:0.6;stroke-width:0.9;"/>
   </g>
   <g id="line2d_23">
    <path clip-path="url(#p95c2855406)" d="M 356.710909 247.685858 
L 366.602727 247.685858 
" style="fill:none;stroke:#000000;stroke-linecap:square;stroke-opacity:0.6;stroke-width:0.9;"/>
   </g>
   <g id="line2d_24">
    <path clip-path="url(#p95c2855406)" d="M 323.738182 198.71316 
L 333.63 198.71316 
" style="fill:none;stroke:#000000;stroke-linecap:square;stroke-opacity:0.6;stroke-width:0.9;"/>
   </g>
   <g id="line2d_25">
    <path clip-path="url(#p95c2855406)" d="M 290.765455 149.740463 
L 300.657273 149.740463 
" style="fill:none;stroke:#000000;stroke-linecap:square;stroke-opacity:0.6;stroke-width:0.9;"/>
   </g>
   <g id="line2d_26">
    <path clip-path="url(#p95c2855406)" d="M 257.792727 100.767766 
L 267.684545 100.767766 
" style="fill:none;stroke:#000000;stroke-linecap:square;stroke-opacity:0.6;stroke-width:0.9;"/>
   </g>
   <g id="line2d_27">
    <path clip-path="url(#p95c2855406)" d="M 224.82 51.795068 
L 234.711818 51.795068 
" style="fill:none;stroke:#000000;stroke-linecap:square;stroke-opacity:0.6;stroke-width:0.9;"/>
   </g>
   <g id="line2d_28">
    <path clip-path="url(#p95c2855406)" d="M 59.956364 296.658555 
L 55.010455 289.31265 
" style="fill:none;stroke:#000000;stroke-linecap:square;stroke-opacity:0.6;stroke-width:0.9;"/>
   </g>
   <g id="line2d_29">
    <path clip-path="url(#p95c2855406)" d="M 92.929091 247.685858 
L 87.983182 240.339953 
" style="fill:none;stroke:#000000;stroke-linecap:square;stroke-opacity:0.6;stroke-width:0.9;"/>
   </g>
   <g id="line2d_30">
    <path clip-path="url(#p95c2855406)" d="M 125.901818 198.71316 
L 120.955909 191.367256 
" style="fill:none;stroke:#000000;stroke-linecap:square;stroke-opacity:0.6;stroke-width:0.9;"/>
   </g>
   <g id="line2d_31">
    <path clip-path="url(#p95c2855406)" d="M 158.874545 149.740463 
L 153.928636 142.394558 
" style="fill:none;stroke:#000000;stroke-linecap:square;stroke-opacity:0.6;stroke-width:0.9;"/>
   </g>
   <g id="line2d_32">
    <path clip-path="url(#p95c2855406)" d="M 191.847273 100.767766 
L 186.901364 93.421861 
" style="fill:none;stroke:#000000;stroke-linecap:square;stroke-opacity:0.6;stroke-width:0.9;"/>
   </g>
   <g id="line2d_33">
    <path clip-path="url(#p95c2855406)" d="M 224.82 51.795068 
L 219.874091 44.449164 
" style="fill:none;stroke:#000000;stroke-linecap:square;stroke-opacity:0.6;stroke-width:0.9;"/>
   </g>
   <g id="line2d_34">
    <path clip-path="url(#p95c2855406)" d="M 59.956364 296.658555 
L 55.010455 304.00446 
" style="fill:none;stroke:#000000;stroke-linecap:square;stroke-opacity:0.6;stroke-width:0.9;"/>
   </g>
   <g id="line2d_35">
    <path clip-path="url(#p95c2855406)" d="M 125.901818 296.658555 
L 120.955909 304.00446 
" style="fill:none;stroke:#000000;stroke-linecap:square;stroke-opacity:0.6;stroke-width:0.9;"/>
   </g>
   <g id="line2d_36">
    <path clip-path="url(#p95c2855406)" d="M 191.847273 296.658555 
L 186.901364 304.00446 
" style="fill:none;stroke:#000000;stroke-linecap:square;stroke-opacity:0.6;stroke-width:0.9;"/>
   </g>
   <g id="line2d_37">
    <path clip-path="url(#p95c2855406)" d="M 257.792727 296.658555 
L 252.846818 304.00446 
" style="fill:none;stroke:#000000;stroke-linecap:square;stroke-opacity:0.6;stroke-width:0.9;"/>
   </g>
   <g id="line2d_38">
    <path clip-path="url(#p95c2855406)" d="M 323.738182 296.658555 
L 318.792273 304.00446 
" style="fill:none;stroke:#000000;stroke-linecap:square;stroke-opacity:0.6;stroke-width:0.9;"/>
   </g>
   <g id="line2d_39">
    <path clip-path="url(#p95c2855406)" d="M 389.683636 296.658555 
L 384.737727 304.00446 
" style="fill:none;stroke:#000000;stroke-linecap:square;stroke-opacity:0.6;stroke-width:0.9;"/>
   </g>
   <g id="line2d_40">
    <path clip-path="url(#p95c2855406)" d="M 59.956364 296.658555 
L 389.683636 296.658555 
" style="fill:none;stroke:#000000;stroke-linecap:square;stroke-width:1.5;"/>
   </g>
   <g id="line2d_41">
    <path clip-path="url(#p95c2855406)" d="M 224.82 51.795068 
L 59.956364 296.658555 
" style="fill:none;stroke:#000000;stroke-linecap:square;stroke-width:1.5;"/>
   </g>
   <g id="line2d_42">
    <path clip-path="url(#p95c2855406)" d="M 224.82 51.795068 
L 389.683636 296.658555 
" style="fill:none;stroke:#000000;stroke-linecap:square;stroke-width:1.5;"/>
   </g>
   <g id="text_1">
    <g id="patch_2">
     <path d="M 331.724812 53.427692 
L 379.059188 53.427692 
L 379.059188 23.551755 
L 331.724812 23.551755 
z
" style="fill:#faf0e6;stroke:#000000;stroke-linejoin:miter;"/>
    </g>
    <!-- n: 1968 -->
    <g transform="translate(336.224812 35.650192)scale(0.1 -0.1)">
     <defs>
      <path d="M 54.890625 33.015625 
L 54.890625 0 
L 45.90625 0 
L 45.90625 32.71875 
Q 45.90625 40.484375 42.875 44.328125 
Q 39.84375 48.1875 33.796875 48.1875 
Q 26.515625 48.1875 22.3125 43.546875 
Q 18.109375 38.921875 18.109375 30.90625 
L 18.109375 0 
L 9.078125 0 
L 9.078125 54.6875 
L 18.109375 54.6875 
L 18.109375 46.1875 
Q 21.34375 51.125 25.703125 53.5625 
Q 30.078125 56 35.796875 56 
Q 45.21875 56 50.046875 50.171875 
Q 54.890625 44.34375 54.890625 33.015625 
z
" id="DejaVuSans-110"/>
      <path d="M 11.71875 12.40625 
L 22.015625 12.40625 
L 22.015625 0 
L 11.71875 0 
z
M 11.71875 51.703125 
L 22.015625 51.703125 
L 22.015625 39.3125 
L 11.71875 39.3125 
z
" id="DejaVuSans-58"/>
      <path id="DejaVuSans-32"/>
      <path d="M 12.40625 8.296875 
L 28.515625 8.296875 
L 28.515625 63.921875 
L 10.984375 60.40625 
L 10.984375 69.390625 
L 28.421875 72.90625 
L 38.28125 72.90625 
L 38.28125 8.296875 
L 54.390625 8.296875 
L 54.390625 0 
L 12.40625 0 
z
" id="DejaVuSans-49"/>
      <path d="M 10.984375 1.515625 
L 10.984375 10.5 
Q 14.703125 8.734375 18.5 7.8125 
Q 22.3125 6.890625 25.984375 6.890625 
Q 35.75 6.890625 40.890625 13.453125 
Q 46.046875 20.015625 46.78125 33.40625 
Q 43.953125 29.203125 39.59375 26.953125 
Q 35.25 24.703125 29.984375 24.703125 
Q 19.046875 24.703125 12.671875 31.3125 
Q 6.296875 37.9375 6.296875 49.421875 
Q 6.296875 60.640625 12.9375 67.421875 
Q 19.578125 74.21875 30.609375 74.21875 
Q 43.265625 74.21875 49.921875 64.515625 
Q 56.59375 54.828125 56.59375 36.375 
Q 56.59375 19.140625 48.40625 8.859375 
Q 40.234375 -1.421875 26.421875 -1.421875 
Q 22.703125 -1.421875 18.890625 -0.6875 
Q 15.09375 0.046875 10.984375 1.515625 
z
M 30.609375 32.421875 
Q 37.25 32.421875 41.125 36.953125 
Q 45.015625 41.5 45.015625 49.421875 
Q 45.015625 57.28125 41.125 61.84375 
Q 37.25 66.40625 30.609375 66.40625 
Q 23.96875 66.40625 20.09375 61.84375 
Q 16.21875 57.28125 16.21875 49.421875 
Q 16.21875 41.5 20.09375 36.953125 
Q 23.96875 32.421875 30.609375 32.421875 
z
" id="DejaVuSans-57"/>
      <path d="M 33.015625 40.375 
Q 26.375 40.375 22.484375 35.828125 
Q 18.609375 31.296875 18.609375 23.390625 
Q 18.609375 15.53125 22.484375 10.953125 
Q 26.375 6.390625 33.015625 6.390625 
Q 39.65625 6.390625 43.53125 10.953125 
Q 47.40625 15.53125 47.40625 23.390625 
Q 47.40625 31.296875 43.53125 35.828125 
Q 39.65625 40.375 33.015625 40.375 
z
M 52.59375 71.296875 
L 52.59375 62.3125 
Q 48.875 64.0625 45.09375 64.984375 
Q 41.3125 65.921875 37.59375 65.921875 
Q 27.828125 65.921875 22.671875 59.328125 
Q 17.53125 52.734375 16.796875 39.40625 
Q 19.671875 43.65625 24.015625 45.921875 
Q 28.375 48.1875 33.59375 48.1875 
Q 44.578125 48.1875 50.953125 41.515625 
Q 57.328125 34.859375 57.328125 23.390625 
Q 57.328125 12.15625 50.6875 5.359375 
Q 44.046875 -1.421875 33.015625 -1.421875 
Q 20.359375 -1.421875 13.671875 8.265625 
Q 6.984375 17.96875 6.984375 36.375 
Q 6.984375 53.65625 15.1875 63.9375 
Q 23.390625 74.21875 37.203125 74.21875 
Q 40.921875 74.21875 44.703125 73.484375 
Q 48.484375 72.75 52.59375 71.296875 
z
" id="DejaVuSans-54"/>
      <path d="M 31.78125 34.625 
Q 24.75 34.625 20.71875 30.859375 
Q 16.703125 27.09375 16.703125 20.515625 
Q 16.703125 13.921875 20.71875 10.15625 
Q 24.75 6.390625 31.78125 6.390625 
Q 38.8125 6.390625 42.859375 10.171875 
Q 46.921875 13.96875 46.921875 20.515625 
Q 46.921875 27.09375 42.890625 30.859375 
Q 38.875 34.625 31.78125 34.625 
z
M 21.921875 38.8125 
Q 15.578125 40.375 12.03125 44.71875 
Q 8.5 49.078125 8.5 55.328125 
Q 8.5 64.0625 14.71875 69.140625 
Q 20.953125 74.21875 31.78125 74.21875 
Q 42.671875 74.21875 48.875 69.140625 
Q 55.078125 64.0625 55.078125 55.328125 
Q 55.078125 49.078125 51.53125 44.71875 
Q 48 40.375 41.703125 38.8125 
Q 48.828125 37.15625 52.796875 32.3125 
Q 56.78125 27.484375 56.78125 20.515625 
Q 56.78125 9.90625 50.3125 4.234375 
Q 43.84375 -1.421875 31.78125 -1.421875 
Q 19.734375 -1.421875 13.25 4.234375 
Q 6.78125 9.90625 6.78125 20.515625 
Q 6.78125 27.484375 10.78125 32.3125 
Q 14.796875 37.15625 21.921875 38.8125 
z
M 18.3125 54.390625 
Q 18.3125 48.734375 21.84375 45.5625 
Q 25.390625 42.390625 31.78125 42.390625 
Q 38.140625 42.390625 41.71875 45.5625 
Q 45.3125 48.734375 45.3125 54.390625 
Q 45.3125 60.0625 41.71875 63.234375 
Q 38.140625 66.40625 31.78125 66.40625 
Q 25.390625 66.40625 21.84375 63.234375 
Q 18.3125 60.0625 18.3125 54.390625 
z
" id="DejaVuSans-56"/>
     </defs>
     <use xlink:href="#DejaVuSans-110"/>
     <use x="63.378906" xlink:href="#DejaVuSans-58"/>
     <use x="97.070312" xlink:href="#DejaVuSans-32"/>
     <use x="128.857422" xlink:href="#DejaVuSans-49"/>
     <use x="192.480469" xlink:href="#DejaVuSans-57"/>
     <use x="256.103516" xlink:href="#DejaVuSans-54"/>
     <use x="319.726562" xlink:href="#DejaVuSans-56"/>
    </g>
    <!--  -->
    <g transform="translate(355.392 46.848005)scale(0.1 -0.1)"/>
   </g>
   <g id="text_2">
    <!-- 0% -->
    <g transform="translate(406.322027 300.331507)scale(0.0833 -0.0833)">
     <defs>
      <path d="M 31.78125 66.40625 
Q 24.171875 66.40625 20.328125 58.90625 
Q 16.5 51.421875 16.5 36.375 
Q 16.5 21.390625 20.328125 13.890625 
Q 24.171875 6.390625 31.78125 6.390625 
Q 39.453125 6.390625 43.28125 13.890625 
Q 47.125 21.390625 47.125 36.375 
Q 47.125 51.421875 43.28125 58.90625 
Q 39.453125 66.40625 31.78125 66.40625 
z
M 31.78125 74.21875 
Q 44.046875 74.21875 50.515625 64.515625 
Q 56.984375 54.828125 56.984375 36.375 
Q 56.984375 17.96875 50.515625 8.265625 
Q 44.046875 -1.421875 31.78125 -1.421875 
Q 19.53125 -1.421875 13.0625 8.265625 
Q 6.59375 17.96875 6.59375 36.375 
Q 6.59375 54.828125 13.0625 64.515625 
Q 19.53125 74.21875 31.78125 74.21875 
z
" id="DejaVuSans-48"/>
      <path d="M 72.703125 32.078125 
Q 68.453125 32.078125 66.03125 28.46875 
Q 63.625 24.859375 63.625 18.40625 
Q 63.625 12.0625 66.03125 8.421875 
Q 68.453125 4.78125 72.703125 4.78125 
Q 76.859375 4.78125 79.265625 8.421875 
Q 81.6875 12.0625 81.6875 18.40625 
Q 81.6875 24.8125 79.265625 28.4375 
Q 76.859375 32.078125 72.703125 32.078125 
z
M 72.703125 38.28125 
Q 80.421875 38.28125 84.953125 32.90625 
Q 89.5 27.546875 89.5 18.40625 
Q 89.5 9.28125 84.9375 3.921875 
Q 80.375 -1.421875 72.703125 -1.421875 
Q 64.890625 -1.421875 60.34375 3.921875 
Q 55.8125 9.28125 55.8125 18.40625 
Q 55.8125 27.59375 60.375 32.9375 
Q 64.9375 38.28125 72.703125 38.28125 
z
M 22.3125 68.015625 
Q 18.109375 68.015625 15.6875 64.375 
Q 13.28125 60.75 13.28125 54.390625 
Q 13.28125 47.953125 15.671875 44.328125 
Q 18.0625 40.71875 22.3125 40.71875 
Q 26.5625 40.71875 28.96875 44.328125 
Q 31.390625 47.953125 31.390625 54.390625 
Q 31.390625 60.6875 28.953125 64.34375 
Q 26.515625 68.015625 22.3125 68.015625 
z
M 66.40625 74.21875 
L 74.21875 74.21875 
L 28.609375 -1.421875 
L 20.796875 -1.421875 
z
M 22.3125 74.21875 
Q 30.03125 74.21875 34.609375 68.875 
Q 39.203125 63.53125 39.203125 54.390625 
Q 39.203125 45.171875 34.640625 39.84375 
Q 30.078125 34.515625 22.3125 34.515625 
Q 14.546875 34.515625 10.03125 39.859375 
Q 5.515625 45.21875 5.515625 54.390625 
Q 5.515625 63.484375 10.046875 68.84375 
Q 14.59375 74.21875 22.3125 74.21875 
z
" id="DejaVuSans-37"/>
     </defs>
     <use xlink:href="#DejaVuSans-48"/>
     <use x="63.623047" xlink:href="#DejaVuSans-37"/>
    </g>
   </g>
   <g id="text_3">
    <!-- 20% -->
    <g transform="translate(370.699319 251.35881)scale(0.0833 -0.0833)">
     <defs>
      <path d="M 19.1875 8.296875 
L 53.609375 8.296875 
L 53.609375 0 
L 7.328125 0 
L 7.328125 8.296875 
Q 12.9375 14.109375 22.625 23.890625 
Q 32.328125 33.6875 34.8125 36.53125 
Q 39.546875 41.84375 41.421875 45.53125 
Q 43.3125 49.21875 43.3125 52.78125 
Q 43.3125 58.59375 39.234375 62.25 
Q 35.15625 65.921875 28.609375 65.921875 
Q 23.96875 65.921875 18.8125 64.3125 
Q 13.671875 62.703125 7.8125 59.421875 
L 7.8125 69.390625 
Q 13.765625 71.78125 18.9375 73 
Q 24.125 74.21875 28.421875 74.21875 
Q 39.75 74.21875 46.484375 68.546875 
Q 53.21875 62.890625 53.21875 53.421875 
Q 53.21875 48.921875 51.53125 44.890625 
Q 49.859375 40.875 45.40625 35.40625 
Q 44.1875 33.984375 37.640625 27.21875 
Q 31.109375 20.453125 19.1875 8.296875 
z
" id="DejaVuSans-50"/>
     </defs>
     <use xlink:href="#DejaVuSans-50"/>
     <use x="63.623047" xlink:href="#DejaVuSans-48"/>
     <use x="127.246094" xlink:href="#DejaVuSans-37"/>
    </g>
   </g>
   <g id="text_4">
    <!-- 40% -->
    <g transform="translate(337.726591 202.386113)scale(0.0833 -0.0833)">
     <defs>
      <path d="M 37.796875 64.3125 
L 12.890625 25.390625 
L 37.796875 25.390625 
z
M 35.203125 72.90625 
L 47.609375 72.90625 
L 47.609375 25.390625 
L 58.015625 25.390625 
L 58.015625 17.1875 
L 47.609375 17.1875 
L 47.609375 0 
L 37.796875 0 
L 37.796875 17.1875 
L 4.890625 17.1875 
L 4.890625 26.703125 
z
" id="DejaVuSans-52"/>
     </defs>
     <use xlink:href="#DejaVuSans-52"/>
     <use x="63.623047" xlink:href="#DejaVuSans-48"/>
     <use x="127.246094" xlink:href="#DejaVuSans-37"/>
    </g>
   </g>
   <g id="text_5">
    <!-- 60% -->
    <g transform="translate(304.753864 153.413415)scale(0.0833 -0.0833)">
     <use xlink:href="#DejaVuSans-54"/>
     <use x="63.623047" xlink:href="#DejaVuSans-48"/>
     <use x="127.246094" xlink:href="#DejaVuSans-37"/>
    </g>
   </g>
   <g id="text_6">
    <!-- 80% -->
    <g transform="translate(271.781137 104.440718)scale(0.0833 -0.0833)">
     <use xlink:href="#DejaVuSans-56"/>
     <use x="63.623047" xlink:href="#DejaVuSans-48"/>
     <use x="127.246094" xlink:href="#DejaVuSans-37"/>
    </g>
   </g>
   <g id="text_7">
    <!-- 100% -->
    <g transform="translate(236.158428 55.468021)scale(0.0833 -0.0833)">
     <use xlink:href="#DejaVuSans-49"/>
     <use x="63.623047" xlink:href="#DejaVuSans-48"/>
     <use x="127.246094" xlink:href="#DejaVuSans-48"/>
     <use x="190.869141" xlink:href="#DejaVuSans-37"/>
    </g>
   </g>
   <g id="text_8">
    <!-- 100% -->
    <g transform="translate(35.684246 285.639698)scale(0.0833 -0.0833)">
     <use xlink:href="#DejaVuSans-49"/>
     <use x="63.623047" xlink:href="#DejaVuSans-48"/>
     <use x="127.246094" xlink:href="#DejaVuSans-48"/>
     <use x="190.869141" xlink:href="#DejaVuSans-37"/>
    </g>
   </g>
   <g id="text_9">
    <!-- 80% -->
    <g transform="translate(71.306955 236.667001)scale(0.0833 -0.0833)">
     <use xlink:href="#DejaVuSans-56"/>
     <use x="63.623047" xlink:href="#DejaVuSans-48"/>
     <use x="127.246094" xlink:href="#DejaVuSans-37"/>
    </g>
   </g>
   <g id="text_10">
    <!-- 60% -->
    <g transform="translate(104.279682 187.694303)scale(0.0833 -0.0833)">
     <use xlink:href="#DejaVuSans-54"/>
     <use x="63.623047" xlink:href="#DejaVuSans-48"/>
     <use x="127.246094" xlink:href="#DejaVuSans-37"/>
    </g>
   </g>
   <g id="text_11">
    <!-- 40% -->
    <g transform="translate(137.252409 138.721606)scale(0.0833 -0.0833)">
     <use xlink:href="#DejaVuSans-52"/>
     <use x="63.623047" xlink:href="#DejaVuSans-48"/>
     <use x="127.246094" xlink:href="#DejaVuSans-37"/>
    </g>
   </g>
   <g id="text_12">
    <!-- 20% -->
    <g transform="translate(170.225137 89.748909)scale(0.0833 -0.0833)">
     <use xlink:href="#DejaVuSans-50"/>
     <use x="63.623047" xlink:href="#DejaVuSans-48"/>
     <use x="127.246094" xlink:href="#DejaVuSans-37"/>
    </g>
   </g>
   <g id="text_13">
    <!-- 0% -->
    <g transform="translate(205.847845 40.776211)scale(0.0833 -0.0833)">
     <use xlink:href="#DejaVuSans-48"/>
     <use x="63.623047" xlink:href="#DejaVuSans-37"/>
    </g>
   </g>
   <g id="text_14">
    <!-- 0% -->
    <g transform="translate(40.984209 322.369221)scale(0.0833 -0.0833)">
     <use xlink:href="#DejaVuSans-48"/>
     <use x="63.623047" xlink:href="#DejaVuSans-37"/>
    </g>
   </g>
   <g id="text_15">
    <!-- 20% -->
    <g transform="translate(104.279682 322.369221)scale(0.0833 -0.0833)">
     <use xlink:href="#DejaVuSans-50"/>
     <use x="63.623047" xlink:href="#DejaVuSans-48"/>
     <use x="127.246094" xlink:href="#DejaVuSans-37"/>
    </g>
   </g>
   <g id="text_16">
    <!-- 40% -->
    <g transform="translate(170.225137 322.369221)scale(0.0833 -0.0833)">
     <use xlink:href="#DejaVuSans-52"/>
     <use x="63.623047" xlink:href="#DejaVuSans-48"/>
     <use x="127.246094" xlink:href="#DejaVuSans-37"/>
    </g>
   </g>
   <g id="text_17">
    <!-- 60% -->
    <g transform="translate(236.170591 322.369221)scale(0.0833 -0.0833)">
     <use xlink:href="#DejaVuSans-54"/>
     <use x="63.623047" xlink:href="#DejaVuSans-48"/>
     <use x="127.246094" xlink:href="#DejaVuSans-37"/>
    </g>
   </g>
   <g id="text_18">
    <!-- 80% -->
    <g transform="translate(302.116046 322.369221)scale(0.0833 -0.0833)">
     <use xlink:href="#DejaVuSans-56"/>
     <use x="63.623047" xlink:href="#DejaVuSans-48"/>
     <use x="127.246094" xlink:href="#DejaVuSans-37"/>
    </g>
   </g>
   <g id="text_19">
    <!-- 100% -->
    <g transform="translate(365.411519 322.369221)scale(0.0833 -0.0833)">
     <use xlink:href="#DejaVuSans-49"/>
     <use x="63.623047" xlink:href="#DejaVuSans-48"/>
     <use x="127.246094" xlink:href="#DejaVuSans-48"/>
     <use x="190.869141" xlink:href="#DejaVuSans-37"/>
    </g>
   </g>
   <g id="text_20">
    <path d="M 9.0375 327.316345 
L 12.796875 327.316345 
L 12.796875 341.897595 
L 9.0375 341.897595 
z
M 22.688672 334.71947 
L 28.819922 334.71947 
L 28.819922 337.560095 
L 22.688672 337.560095 
z
M 50.267969 341.097595 
Q 49.230469 341.635095 48.108594 341.90697 
Q 46.986719 342.18197 45.764844 342.18197 
Q 42.121094 342.18197 39.992969 340.14447 
Q 37.864844 338.10697 37.864844 334.622595 
Q 37.864844 331.12572 39.992969 329.091345 
Q 42.121094 327.053845 45.764844 327.053845 
Q 46.986719 327.053845 48.108594 327.328845 
Q 49.230469 327.60072 50.267969 328.13822 
L 50.267969 331.153845 
Q 49.221094 330.441345 48.205469 330.110095 
Q 47.189844 329.778845 46.067969 329.778845 
Q 44.055469 329.778845 42.902344 331.06947 
Q 41.752344 332.35697 41.752344 334.622595 
Q 41.752344 336.878845 42.902344 338.16947 
Q 44.055469 339.45697 46.067969 339.45697 
Q 47.189844 339.45697 48.205469 339.12572 
Q 49.221094 338.791345 50.267969 338.078845 
z
" style="fill:#ffffff;stroke:#000000;stroke-width:3;"/>
    <path d="M 9.0375 327.316345 
L 12.796875 327.316345 
L 12.796875 341.897595 
L 9.0375 341.897595 
z
M 22.688672 334.71947 
L 28.819922 334.71947 
L 28.819922 337.560095 
L 22.688672 337.560095 
z
M 50.267969 341.097595 
Q 49.230469 341.635095 48.108594 341.90697 
Q 46.986719 342.18197 45.764844 342.18197 
Q 42.121094 342.18197 39.992969 340.14447 
Q 37.864844 338.10697 37.864844 334.622595 
Q 37.864844 331.12572 39.992969 329.091345 
Q 42.121094 327.053845 45.764844 327.053845 
Q 46.986719 327.053845 48.108594 327.328845 
Q 49.230469 327.60072 50.267969 328.13822 
L 50.267969 331.153845 
Q 49.221094 330.441345 48.205469 330.110095 
Q 47.189844 329.778845 46.067969 329.778845 
Q 44.055469 329.778845 42.902344 331.06947 
Q 41.752344 332.35697 41.752344 334.622595 
Q 41.752344 336.878845 42.902344 338.16947 
Q 44.055469 339.45697 46.067969 339.45697 
Q 47.189844 339.45697 48.205469 339.12572 
Q 49.221094 338.791345 50.267969 338.078845 
z
" style="fill:#ffffff;"/>
   </g>
   <g id="text_21">
    <path d="M 419.57 341.097595 
Q 418.5325 341.635095 417.410625 341.90697 
Q 416.28875 342.18197 415.066875 342.18197 
Q 411.423125 342.18197 409.295 340.14447 
Q 407.166875 338.10697 407.166875 334.622595 
Q 407.166875 331.12572 409.295 329.091345 
Q 411.423125 327.053845 415.066875 327.053845 
Q 416.28875 327.053845 417.410625 327.328845 
Q 418.5325 327.60072 419.57 328.13822 
L 419.57 331.153845 
Q 418.523125 330.441345 417.5075 330.110095 
Q 416.491875 329.778845 415.37 329.778845 
Q 413.3575 329.778845 412.204375 331.06947 
Q 411.054375 332.35697 411.054375 334.622595 
Q 411.054375 336.878845 412.204375 338.16947 
Q 413.3575 339.45697 415.37 339.45697 
Q 416.491875 339.45697 417.5075 339.12572 
Q 418.523125 338.791345 419.57 338.078845 
z
M 428.895 334.71947 
L 435.02625 334.71947 
L 435.02625 337.560095 
L 428.895 337.560095 
z
M 456.474297 341.097595 
Q 455.436797 341.635095 454.314922 341.90697 
Q 453.193047 342.18197 451.971172 342.18197 
Q 448.327422 342.18197 446.199297 340.14447 
Q 444.071172 338.10697 444.071172 334.622595 
Q 444.071172 331.12572 446.199297 329.091345 
Q 448.327422 327.053845 451.971172 327.053845 
Q 453.193047 327.053845 454.314922 327.328845 
Q 455.436797 327.60072 456.474297 328.13822 
L 456.474297 331.153845 
Q 455.427422 330.441345 454.411797 330.110095 
Q 453.396172 329.778845 452.274297 329.778845 
Q 450.261797 329.778845 449.108672 331.06947 
Q 447.958672 332.35697 447.958672 334.622595 
Q 447.958672 336.878845 449.108672 338.16947 
Q 450.261797 339.45697 452.274297 339.45697 
Q 453.396172 339.45697 454.411797 339.12572 
Q 455.427422 338.791345 456.474297 338.078845 
z
" style="fill:#ffffff;stroke:#000000;stroke-width:3;"/>
    <path d="M 419.57 341.097595 
Q 418.5325 341.635095 417.410625 341.90697 
Q 416.28875 342.18197 415.066875 342.18197 
Q 411.423125 342.18197 409.295 340.14447 
Q 407.166875 338.10697 407.166875 334.622595 
Q 407.166875 331.12572 409.295 329.091345 
Q 411.423125 327.053845 415.066875 327.053845 
Q 416.28875 327.053845 417.410625 327.328845 
Q 418.5325 327.60072 419.57 328.13822 
L 419.57 331.153845 
Q 418.523125 330.441345 417.5075 330.110095 
Q 416.491875 329.778845 415.37 329.778845 
Q 413.3575 329.778845 412.204375 331.06947 
Q 411.054375 332.35697 411.054375 334.622595 
Q 411.054375 336.878845 412.204375 338.16947 
Q 413.3575 339.45697 415.37 339.45697 
Q 416.491875 339.45697 417.5075 339.12572 
Q 418.523125 338.791345 419.57 338.078845 
z
M 428.895 334.71947 
L 435.02625 334.71947 
L 435.02625 337.560095 
L 428.895 337.560095 
z
M 456.474297 341.097595 
Q 455.436797 341.635095 454.314922 341.90697 
Q 453.193047 342.18197 451.971172 342.18197 
Q 448.327422 342.18197 446.199297 340.14447 
Q 444.071172 338.10697 444.071172 334.622595 
Q 444.071172 331.12572 446.199297 329.091345 
Q 448.327422 327.053845 451.971172 327.053845 
Q 453.193047 327.053845 454.314922 327.328845 
Q 455.436797 327.60072 456.474297 328.13822 
L 456.474297 331.153845 
Q 455.427422 330.441345 454.411797 330.110095 
Q 453.396172 329.778845 452.274297 329.778845 
Q 450.261797 329.778845 449.108672 331.06947 
Q 447.958672 332.35697 447.958672 334.622595 
Q 447.958672 336.878845 449.108672 338.16947 
Q 450.261797 339.45697 452.274297 339.45697 
Q 453.396172 339.45697 454.411797 339.12572 
Q 455.427422 338.791345 456.474297 338.078845 
z
" style="fill:#ffffff;"/>
   </g>
   <g id="text_22">
    <path d="M 208.104375 7.815625 
L 211.86375 7.815625 
L 211.86375 22.396875 
L 208.104375 22.396875 
z
M 221.755547 15.21875 
L 227.886797 15.21875 
L 227.886797 18.059375 
L 221.755547 18.059375 
z
M 237.772344 7.815625 
L 241.531719 7.815625 
L 241.531719 22.396875 
L 237.772344 22.396875 
z
" style="fill:#ffffff;stroke:#000000;stroke-width:3;"/>
    <path d="M 208.104375 7.815625 
L 211.86375 7.815625 
L 211.86375 22.396875 
L 208.104375 22.396875 
z
M 221.755547 15.21875 
L 227.886797 15.21875 
L 227.886797 18.059375 
L 221.755547 18.059375 
z
M 237.772344 7.815625 
L 241.531719 7.815625 
L 241.531719 22.396875 
L 237.772344 22.396875 
z
" style="fill:#ffffff;"/>
   </g>
   <g id="text_23">
    <!-- $C_B = 1.0$ -->
    <g transform="translate(183.592497 209.35159)rotate(-299)scale(0.09 -0.09)">
     <defs>
      <path d="M 69.484375 67.28125 
L 67.484375 56.890625 
Q 62.796875 61.625 57.546875 63.921875 
Q 52.296875 66.21875 46.1875 66.21875 
Q 37.84375 66.21875 31.515625 62.203125 
Q 25.203125 58.203125 20.609375 50 
Q 17.671875 44.734375 16.125 38.84375 
Q 14.59375 32.953125 14.59375 27 
Q 14.59375 17.046875 19.75 11.8125 
Q 24.90625 6.59375 34.71875 6.59375 
Q 41.5 6.59375 47.75 8.765625 
Q 54 10.9375 59.90625 15.28125 
L 57.625 3.609375 
Q 51.8125 1.125 45.875 -0.140625 
Q 39.9375 -1.421875 33.984375 -1.421875 
Q 19.96875 -1.421875 12.078125 6.1875 
Q 4.203125 13.8125 4.203125 27.390625 
Q 4.203125 36.078125 7.203125 44.46875 
Q 10.203125 52.875 15.828125 59.8125 
Q 21.78125 67.1875 29.421875 70.703125 
Q 37.0625 74.21875 47.21875 74.21875 
Q 53.46875 74.21875 59.0625 72.484375 
Q 64.65625 70.75 69.484375 67.28125 
z
" id="DejaVuSans-Oblique-67"/>
      <path d="M 16.890625 72.90625 
L 42.09375 72.90625 
Q 52.34375 72.90625 57.421875 69.09375 
Q 62.5 65.28125 62.5 57.625 
Q 62.5 50.59375 58.125 45.484375 
Q 53.765625 40.375 46.6875 39.3125 
Q 52.734375 37.9375 55.765625 34.078125 
Q 58.796875 30.21875 58.796875 23.78125 
Q 58.796875 12.796875 50.65625 6.390625 
Q 42.53125 0 28.421875 0 
L 2.6875 0 
z
M 19.28125 34.8125 
L 14.109375 8.109375 
L 29.984375 8.109375 
Q 38.921875 8.109375 43.75 12.203125 
Q 48.578125 16.3125 48.578125 23.78125 
Q 48.578125 29.546875 45.375 32.171875 
Q 42.1875 34.8125 35.109375 34.8125 
z
M 25.09375 64.796875 
L 20.796875 42.828125 
L 35.5 42.828125 
Q 43.359375 42.828125 47.78125 46.234375 
Q 52.203125 49.65625 52.203125 55.71875 
Q 52.203125 60.453125 49.21875 62.625 
Q 46.234375 64.796875 39.703125 64.796875 
z
" id="DejaVuSans-Oblique-66"/>
      <path d="M 10.59375 45.40625 
L 73.1875 45.40625 
L 73.1875 37.203125 
L 10.59375 37.203125 
z
M 10.59375 25.484375 
L 73.1875 25.484375 
L 73.1875 17.1875 
L 10.59375 17.1875 
z
" id="DejaVuSans-61"/>
      <path d="M 10.6875 12.40625 
L 21 12.40625 
L 21 0 
L 10.6875 0 
z
" id="DejaVuSans-46"/>
     </defs>
     <use transform="translate(0 0.78125)" xlink:href="#DejaVuSans-Oblique-67"/>
     <use transform="translate(69.824219 -15.625)scale(0.7)" xlink:href="#DejaVuSans-Oblique-66"/>
     <use transform="translate(140.063477 0.78125)" xlink:href="#DejaVuSans-61"/>
     <use transform="translate(243.334961 0.78125)" xlink:href="#DejaVuSans-49"/>
     <use transform="translate(306.958008 0.78125)" xlink:href="#DejaVuSans-46"/>
     <use transform="translate(338.745117 0.78125)" xlink:href="#DejaVuSans-48"/>
    </g>
   </g>
   <g id="text_24">
    <!-- $1.2$ -->
    <g transform="translate(206.336569 245.144307)rotate(-316)scale(0.09 -0.09)">
     <use transform="translate(0 0.78125)" xlink:href="#DejaVuSans-49"/>
     <use transform="translate(63.623047 0.78125)" xlink:href="#DejaVuSans-46"/>
     <use transform="translate(89.910156 0.78125)" xlink:href="#DejaVuSans-50"/>
    </g>
   </g>
   <g id="text_25">
    <!-- $1.4$ -->
    <g transform="translate(232.293264 265.235782)rotate(-332)scale(0.09 -0.09)">
     <use transform="translate(0 0.09375)" xlink:href="#DejaVuSans-49"/>
     <use transform="translate(63.623047 0.09375)" xlink:href="#DejaVuSans-46"/>
     <use transform="translate(95.410156 0.09375)" xlink:href="#DejaVuSans-52"/>
    </g>
   </g>
   <g id="text_26">
    <!-- $1.6$ -->
    <g transform="translate(271.434628 277.679558)rotate(-346)scale(0.09 -0.09)">
     <use transform="translate(0 0.78125)" xlink:href="#DejaVuSans-49"/>
     <use transform="translate(63.623047 0.78125)" xlink:href="#DejaVuSans-46"/>
     <use transform="translate(95.410156 0.78125)" xlink:href="#DejaVuSans-54"/>
    </g>
   </g>
   <g id="text_27">
    <!-- $1.8$ -->
    <g transform="translate(320.538867 288.287525)rotate(-357)scale(0.09 -0.09)">
     <use transform="translate(0 0.78125)" xlink:href="#DejaVuSans-49"/>
     <use transform="translate(63.623047 0.78125)" xlink:href="#DejaVuSans-46"/>
     <use transform="translate(92.785156 0.78125)" xlink:href="#DejaVuSans-56"/>
    </g>
   </g>
   <g id="PathCollection_1">
    <defs>
     <path d="M 0 2.5 
C 0.663008 2.5 1.29895 2.236584 1.767767 1.767767 
C 2.236584 1.29895 2.5 0.663008 2.5 0 
C 2.5 -0.663008 2.236584 -1.29895 1.767767 -1.767767 
C 1.29895 -2.236584 0.663008 -2.5 0 -2.5 
C -0.663008 -2.5 -1.29895 -2.236584 -1.767767 -1.767767 
C -2.236584 -1.29895 -2.5 -0.663008 -2.5 0 
C -2.5 0.663008 -2.236584 1.29895 -1.767767 1.767767 
C -1.29895 2.236584 -0.663008 2.5 0 2.5 
z
" id="m0ea50300cb" style="stroke:#000000;"/>
    </defs>
    <g clip-path="url(#p95c2855406)">
     <use style="stroke:#000000;" x="318.979922" xlink:href="#m0ea50300cb" y="293.174725"/>
    </g>
   </g>
   <g id="legend_1">
    <g id="patch_3">
     <path d="M 37.614125 62.708255 
L 125.865875 62.708255 
Q 128.745875 62.708255 128.745875 59.828255 
L 128.745875 40.131755 
Q 128.745875 37.251755 125.865875 37.251755 
L 37.614125 37.251755 
Q 34.734125 37.251755 34.734125 40.131755 
L 34.734125 59.828255 
Q 34.734125 62.708255 37.614125 62.708255 
z
" style="fill:#4c4c4c;opacity:0.5;stroke:#4c4c4c;stroke-linejoin:miter;"/>
    </g>
    <g id="patch_4">
     <path d="M 35.614125 60.708255 
L 123.865875 60.708255 
Q 126.745875 60.708255 126.745875 57.828255 
L 126.745875 38.131755 
Q 126.745875 35.251755 123.865875 35.251755 
L 35.614125 35.251755 
Q 32.734125 35.251755 32.734125 38.131755 
L 32.734125 57.828255 
Q 32.734125 60.708255 35.614125 60.708255 
z
" style="fill:#ffffff;stroke:#000000;stroke-linejoin:miter;"/>
    </g>
    <g id="PathCollection_2">
     <g>
      <use style="stroke:#000000;" x="52.894125" xlink:href="#m0ea50300cb" y="48.173505"/>
     </g>
    </g>
    <g id="text_28">
     <!-- KB11 -->
     <g transform="translate(78.814125 51.953505)scale(0.144 -0.144)">
      <defs>
       <path d="M 9.1875 72.90625 
L 27.984375 72.90625 
L 27.984375 46.296875 
L 55.078125 72.90625 
L 76.90625 72.90625 
L 41.796875 38.375 
L 80.515625 0 
L 56.984375 0 
L 27.984375 28.71875 
L 27.984375 0 
L 9.1875 0 
z
" id="DejaVuSans-Bold-75"/>
       <path d="M 38.375 44.671875 
Q 42.828125 44.671875 45.109375 46.625 
Q 47.40625 48.578125 47.40625 52.390625 
Q 47.40625 56.15625 45.109375 58.125 
Q 42.828125 60.109375 38.375 60.109375 
L 27.984375 60.109375 
L 27.984375 44.671875 
z
M 39.015625 12.796875 
Q 44.671875 12.796875 47.53125 15.1875 
Q 50.390625 17.578125 50.390625 22.40625 
Q 50.390625 27.15625 47.5625 29.515625 
Q 44.734375 31.890625 39.015625 31.890625 
L 27.984375 31.890625 
L 27.984375 12.796875 
z
M 56.5 39.015625 
Q 62.546875 37.25 65.859375 32.515625 
Q 69.1875 27.78125 69.1875 20.90625 
Q 69.1875 10.359375 62.0625 5.171875 
Q 54.9375 0 40.375 0 
L 9.1875 0 
L 9.1875 72.90625 
L 37.40625 72.90625 
Q 52.59375 72.90625 59.40625 68.3125 
Q 66.21875 63.71875 66.21875 53.609375 
Q 66.21875 48.296875 63.71875 44.5625 
Q 61.234375 40.828125 56.5 39.015625 
z
" id="DejaVuSans-Bold-66"/>
       <path d="M 11.71875 12.984375 
L 28.328125 12.984375 
L 28.328125 60.109375 
L 11.28125 56.59375 
L 11.28125 69.390625 
L 28.21875 72.90625 
L 46.09375 72.90625 
L 46.09375 12.984375 
L 62.703125 12.984375 
L 62.703125 0 
L 11.71875 0 
z
" id="DejaVuSans-Bold-49"/>
      </defs>
      <use xlink:href="#DejaVuSans-Bold-75"/>
      <use x="77.490234" xlink:href="#DejaVuSans-Bold-66"/>
      <use x="153.710938" xlink:href="#DejaVuSans-Bold-49"/>
      <use x="223.291016" xlink:href="#DejaVuSans-Bold-49"/>
     </g>
    </g>
   </g>
  </g>
 </g>
 <defs>
  <clipPath id="p95c2855406">
   <rect height="282.744" width="362.7" x="43.47" y="42.188955"/>
  </clipPath>
 </defs>
</svg>
